<svg width="1430" height="463" viewBox="0 0 1430 463" fill="none" xmlns="http://www.w3.org/2000/svg">
    <rect x="677.055" y="-3.00024" width="41.0892" height="41.0892" rx="8" transform="rotate(45 677.055 -3.00024)" fill="url(#paint0_linear_0_1)"/>
    <rect x="32.8984" y="395" width="49.3548" height="49.3548" rx="5" transform="rotate(45 32.8984 395)" fill="url(#paint1_linear_0_1)"/>
    <g opacity="0.17" clip-path="url(#clip0_0_1)">
        <path fill-rule="evenodd" clip-rule="evenodd" d="M1412.54 69.8209L1408.47 83.9057L1407.15 84.2572L1406.35 75.9965L1402.25 77.0944C1402.16 77.1175 1402.07 77.1233 1401.99 77.1114C1401.9 77.0996 1401.81 77.0703 1401.73 77.0254C1401.66 76.9804 1401.59 76.9205 1401.53 76.8493C1401.48 76.778 1401.44 76.6967 1401.42 76.6101C1401.37 76.4535 1401.45 76.1498 1401.45 76.1498L1405.5 62.0858L1406.84 61.7338L1407.61 70.0155L1411.74 68.9105C1411.83 68.8874 1411.92 68.8816 1412.01 68.8935C1412.1 68.9053 1412.18 68.9346 1412.26 68.9796C1412.34 69.0245 1412.41 69.0844 1412.46 69.1556C1412.52 69.2269 1412.56 69.3082 1412.58 69.3949C1412.62 69.5427 1412.59 69.6881 1412.54 69.8201L1412.54 69.8205L1412.54 69.8209ZM1402.37 55.6044C1392.77 58.1594 1387.05 68.0176 1389.6 77.6258C1392.16 87.2341 1402.02 92.9501 1411.63 90.3951C1421.23 87.8402 1426.95 77.9811 1424.4 68.3737C1421.84 58.7663 1411.98 53.0492 1402.37 55.6044Z" fill="url(#paint2_linear_0_1)"/>
    </g>
    <path fill-rule="evenodd" clip-rule="evenodd" d="M846.172 368.352L838.621 380.918H837.253L838.605 372.73L834.358 372.736C834.268 372.736 834.18 372.719 834.097 372.684C834.014 372.65 833.939 372.6 833.875 372.536C833.812 372.473 833.762 372.398 833.727 372.315C833.693 372.232 833.675 372.143 833.675 372.054C833.675 371.892 833.826 371.617 833.826 371.617L841.352 359.066L842.744 359.072L841.358 367.273L845.635 367.267C845.724 367.267 845.813 367.284 845.896 367.319C845.979 367.353 846.054 367.403 846.117 367.467C846.181 367.53 846.231 367.605 846.265 367.688C846.3 367.771 846.317 367.86 846.317 367.95C846.317 368.103 846.257 368.237 846.172 368.351L846.173 368.351L846.172 368.352ZM840 352C830.059 352 822 360.058 822 370C822 379.942 830.059 388 840 388C849.941 388 858 379.941 858 370C858 360.058 849.942 352 840 352Z" fill="url(#paint3_linear_0_1)"/>
    <defs>
        <linearGradient id="paint0_linear_0_1" x1="694.017" y1="-42.1492" x2="707.751" y2="112.103" gradientUnits="userSpaceOnUse">
            <stop stop-color="#DADCFA"/>
            <stop offset="1" stop-color="#A9D1FF" stop-opacity="0"/>
        </linearGradient>
        <linearGradient id="paint1_linear_0_1" x1="48.5654" y1="323.276" x2="66.4018" y2="477.857" gradientUnits="userSpaceOnUse">
            <stop stop-color="white"/>
            <stop offset="1" stop-color="white" stop-opacity="0"/>
        </linearGradient>
        <linearGradient id="paint2_linear_0_1" x1="1422.72" y1="14.4334" x2="1416.11" y2="110.063" gradientUnits="userSpaceOnUse">
            <stop stop-color="white"/>
            <stop offset="1" stop-color="#1472FF" stop-opacity="0.71"/>
        </linearGradient>
        <linearGradient id="paint3_linear_0_1" x1="870.24" y1="317.44" x2="839.28" y2="408.16" gradientUnits="userSpaceOnUse">
            <stop stop-color="#2076F8"/>
            <stop offset="1" stop-color="#2076F8" stop-opacity="0"/>
        </linearGradient>
        <clipPath id="clip0_0_1">
            <rect width="36" height="36" fill="white" transform="translate(1384.98 60.2305) rotate(-14.8924)"/>
        </clipPath>
    </defs>
</svg>
