<svg width="1537" height="618" viewBox="0 0 1537 618" fill="none" xmlns="http://www.w3.org/2000/svg">
    <mask id="mask0_0_1" style="mask-type:alpha" maskUnits="userSpaceOnUse" x="745" y="6" width="411" height="462">
        <path d="M747.153 331.192C743.777 312.788 751.302 301.956 769.726 298.696C788.151 295.436 795.675 284.604 792.3 266.2C788.924 247.796 796.448 236.964 814.873 233.704C833.297 230.444 840.822 219.612 837.446 201.208C834.07 182.804 841.595 171.972 860.019 168.712C878.444 165.451 885.968 154.619 882.592 136.216C879.217 117.812 886.741 106.98 905.166 103.72C923.59 100.459 931.114 89.6273 927.739 71.2236C924.363 52.8198 931.887 41.9878 950.312 38.7275C968.736 35.4672 976.261 24.6352 972.885 6.23146" stroke="#4C75F2"/>
        <path d="M757.847 339.184C754.471 320.78 761.996 309.948 780.42 306.688C798.845 303.427 806.369 292.595 802.993 274.192C799.618 255.788 807.142 244.956 825.567 241.696C843.991 238.435 851.516 227.603 848.14 209.199C844.764 190.796 852.288 179.964 870.713 176.703C889.138 173.443 896.662 162.611 893.286 144.207C889.91 125.804 897.435 114.972 915.859 111.711C934.284 108.451 941.808 97.619 938.433 79.2153C935.057 60.8115 942.581 49.9795 961.006 46.7192C979.43 43.4589 986.955 32.6269 983.579 14.2232" stroke="#4C75F2"/>
        <path d="M768.542 347.175C765.166 328.772 772.69 317.94 791.115 314.679C809.54 311.419 817.064 300.587 813.688 282.183C810.312 263.78 817.837 252.948 836.261 249.687C854.686 246.427 862.21 235.595 858.835 217.191C855.459 198.787 862.983 187.955 881.408 184.695C899.832 181.435 907.357 170.603 903.981 152.199C900.605 133.795 908.13 122.963 926.554 119.703C944.979 116.443 952.503 105.611 949.127 87.207C945.752 68.8032 953.276 57.9712 971.701 54.7109C990.125 51.4506 997.65 40.6186 994.274 22.2149" stroke="#4C75F2"/>
        <path d="M779.236 355.167C775.86 336.764 783.385 325.932 801.809 322.671C820.234 319.411 827.758 308.579 824.383 290.175C821.007 271.771 828.531 260.939 846.956 257.679C865.38 254.419 872.905 243.587 869.529 225.183C866.153 206.779 873.678 195.947 892.102 192.687C910.527 189.427 918.051 178.595 914.675 160.191C911.3 141.787 918.824 130.955 937.249 127.695C955.673 124.435 963.197 113.603 959.822 95.1989C956.446 76.7952 963.97 65.9631 982.395 62.7029C1000.82 59.4426 1008.34 48.6105 1004.97 30.2068" stroke="#4C75F2"/>
        <path d="M789.931 363.16C786.555 344.756 794.08 333.924 812.504 330.663C830.929 327.403 838.453 316.571 835.077 298.167C831.702 279.764 839.226 268.932 857.651 265.671C876.075 262.411 883.6 251.579 880.224 233.175C876.848 214.772 884.372 203.94 902.797 200.679C921.222 197.419 928.746 186.587 925.37 168.183C921.994 149.779 929.519 138.947 947.943 135.687C966.368 132.427 973.892 121.595 970.517 103.191C967.141 84.7874 974.665 73.9553 993.09 70.695C1011.51 67.4347 1019.04 56.6027 1015.66 38.199" stroke="#4C75F2"/>
        <path d="M800.625 371.151C797.25 352.748 804.774 341.916 823.199 338.655C841.623 335.395 849.147 324.563 845.772 306.159C842.396 287.756 849.92 276.924 868.345 273.663C886.769 270.403 894.294 259.571 890.918 241.167C887.542 222.764 895.067 211.931 913.491 208.671C931.916 205.411 939.44 194.579 936.065 176.175C932.689 157.771 940.213 146.939 958.638 143.679C977.062 140.419 984.587 129.587 981.211 111.183C977.835 92.7793 985.36 81.9473 1003.78 78.687C1022.21 75.4267 1029.73 64.5947 1026.36 46.1909" stroke="#4C75F2"/>
        <path d="M811.32 379.143C807.944 360.739 815.469 349.907 833.893 346.647C852.318 343.387 859.842 332.555 856.467 314.151C853.091 295.747 860.615 284.915 879.04 281.655C897.464 278.395 904.989 267.563 901.613 249.159C898.237 230.755 905.762 219.923 924.186 216.663C942.611 213.403 950.135 202.571 946.759 184.167C943.384 165.763 950.908 154.931 969.333 151.671C987.757 148.41 995.281 137.578 991.906 119.175C988.53 100.771 996.054 89.939 1014.48 86.6787C1032.9 83.4184 1040.43 72.5864 1037.05 54.1826" stroke="#4C75F2"/>
        <path d="M822.014 387.135C818.639 368.732 826.163 357.9 844.588 354.639C863.012 351.379 870.537 340.547 867.161 322.143C863.785 303.739 871.31 292.907 889.734 289.647C908.159 286.387 915.683 275.555 912.307 257.151C908.932 238.747 916.456 227.915 934.88 224.655C953.305 221.395 960.829 210.563 957.454 192.159C954.078 173.755 961.602 162.923 980.027 159.663C998.451 156.403 1005.98 145.571 1002.6 127.167C999.224 108.763 1006.75 97.9312 1025.17 94.6709C1043.6 91.4106 1051.12 80.5786 1047.75 62.1748" stroke="#4C75F2"/>
        <path d="M832.709 395.127C829.333 376.723 836.857 365.891 855.282 362.631C873.707 359.371 881.231 348.539 877.855 330.135C874.479 311.731 882.004 300.899 900.428 297.639C918.853 294.379 926.377 283.547 923.002 265.143C919.626 246.739 927.15 235.907 945.575 232.647C963.999 229.386 971.524 218.554 968.148 200.151C964.772 181.747 972.297 170.915 990.721 167.655C1009.15 164.394 1016.67 153.562 1013.29 135.159C1009.92 116.755 1017.44 105.923 1035.87 102.663C1054.29 99.4023 1061.82 88.5703 1058.44 70.1665" stroke="#4C75F2"/>
        <path d="M843.404 403.119C840.028 384.716 847.552 373.884 865.977 370.623C884.401 367.363 891.926 356.531 888.55 338.127C885.174 319.724 892.699 308.892 911.123 305.631C929.548 302.371 937.072 291.539 933.696 273.135C930.321 254.732 937.845 243.9 956.27 240.639C974.694 237.379 982.219 226.547 978.843 208.143C975.467 189.739 982.991 178.907 1001.42 175.647C1019.84 172.387 1027.36 161.555 1023.99 143.151C1020.61 124.747 1028.14 113.915 1046.56 110.655C1064.99 107.395 1072.51 96.5627 1069.14 78.1589" stroke="#4C75F2"/>
        <path d="M854.098 411.111C850.722 392.708 858.247 381.876 876.671 378.615C895.096 375.355 902.62 364.523 899.244 346.119C895.869 327.716 903.393 316.884 921.818 313.623C940.242 310.363 947.767 299.531 944.391 281.127C941.015 262.723 948.539 251.891 966.964 248.631C985.389 245.371 992.913 234.539 989.537 216.135C986.161 197.731 993.686 186.899 1012.11 183.639C1030.53 180.379 1038.06 169.547 1034.68 151.143C1031.31 132.739 1038.83 121.907 1057.26 118.647C1075.68 115.387 1083.21 104.555 1079.83 86.1509" stroke="#4C75F2"/>
        <path d="M864.792 419.103C861.416 400.699 868.94 389.867 887.365 386.607C905.79 383.347 913.314 372.515 909.938 354.111C906.562 335.707 914.087 324.875 932.511 321.615C950.936 318.354 958.46 307.522 955.085 289.119C951.709 270.715 959.233 259.883 977.658 256.623C996.082 253.362 1003.61 242.53 1000.23 224.127C996.855 205.723 1004.38 194.891 1022.8 191.631C1041.23 188.37 1048.75 177.538 1045.38 159.134C1042 140.731 1049.53 129.899 1067.95 126.638C1086.38 123.378 1093.9 112.546 1090.52 94.1423" stroke="#4C75F2"/>
        <path d="M875.487 427.095C872.111 408.691 879.635 397.859 898.06 394.599C916.484 391.338 924.009 380.506 920.633 362.103C917.257 343.699 924.782 332.867 943.206 329.607C961.631 326.346 969.155 315.514 965.779 297.111C962.404 278.707 969.928 267.875 988.353 264.615C1006.78 261.354 1014.3 250.522 1010.93 232.118C1007.55 213.715 1015.07 202.883 1033.5 199.622C1051.92 196.362 1059.45 185.53 1056.07 167.126C1052.7 148.723 1060.22 137.891 1078.65 134.63C1097.07 131.37 1104.59 120.538 1101.22 102.134" stroke="#4C75F2"/>
        <path d="M886.181 435.087C882.805 416.683 890.33 405.851 908.754 402.59C927.179 399.33 934.703 388.498 931.327 370.094C927.952 351.691 935.476 340.859 953.901 337.598C972.325 334.338 979.85 323.506 976.474 305.102C973.098 286.699 980.622 275.867 999.047 272.606C1017.47 269.346 1025 258.514 1021.62 240.11C1018.24 221.706 1025.77 210.874 1044.19 207.614C1062.62 204.354 1070.14 193.522 1066.77 175.118C1063.39 156.714 1070.92 145.882 1089.34 142.622C1107.76 139.362 1115.29 128.53 1111.91 110.126" stroke="#4C75F2"/>
        <path d="M896.875 443.078C893.5 424.675 901.024 413.843 919.449 410.582C937.873 407.322 945.397 396.49 942.022 378.086C938.646 359.683 946.17 348.851 964.595 345.59C983.019 342.33 990.544 331.498 987.168 313.094C983.792 294.691 991.317 283.858 1009.74 280.598C1028.17 277.338 1035.69 266.506 1032.31 248.102C1028.94 229.698 1036.46 218.866 1054.89 215.606C1073.31 212.346 1080.84 201.514 1077.46 183.11C1074.09 164.706 1081.61 153.874 1100.03 150.614C1118.46 147.354 1125.98 136.522 1122.61 118.118" stroke="#4C75F2"/>
        <path d="M907.57 451.071C904.194 432.667 911.719 421.835 930.143 418.575C948.568 415.314 956.092 404.482 952.717 386.079C949.341 367.675 956.865 356.843 975.29 353.582C993.714 350.322 1001.24 339.49 997.863 321.086C994.487 302.683 1002.01 291.851 1020.44 288.59C1038.86 285.33 1046.39 274.498 1043.01 256.094C1039.63 237.691 1047.16 226.859 1065.58 223.598C1084.01 220.338 1091.53 209.506 1088.16 191.102C1084.78 172.698 1092.3 161.866 1110.73 158.606C1129.15 155.346 1136.68 144.514 1133.3 126.11" stroke="#4C75F2"/>
        <path d="M918.264 459.062C914.889 440.659 922.413 429.827 940.838 426.566C959.262 423.306 966.787 412.474 963.411 394.07C960.035 375.666 967.56 364.834 985.984 361.574C1004.41 358.314 1011.93 347.482 1008.56 329.078C1005.18 310.674 1012.71 299.842 1031.13 296.582C1049.56 293.322 1057.08 282.49 1053.7 264.086C1050.33 245.682 1057.85 234.85 1076.28 231.59C1094.7 228.33 1102.23 217.498 1098.85 199.094C1095.47 180.69 1103 169.858 1121.42 166.598C1139.85 163.338 1147.37 152.506 1144 134.102" stroke="#4C75F2"/>
        <path d="M928.959 467.055C925.584 448.651 933.108 437.819 951.532 434.559C969.957 431.298 977.481 420.466 974.106 402.063C970.73 383.659 978.254 372.827 996.679 369.567C1015.1 366.306 1022.63 355.474 1019.25 337.071C1015.88 318.667 1023.4 307.835 1041.83 304.575C1060.25 301.314 1067.77 290.482 1064.4 272.078C1061.02 253.675 1068.55 242.843 1086.97 239.582C1105.4 236.322 1112.92 225.49 1109.54 207.086C1106.17 188.683 1113.69 177.851 1132.12 174.59C1150.54 171.33 1158.07 160.498 1154.69 142.094" stroke="#4C75F2"/>
    </mask>
    <g mask="url(#mask0_0_1)">
        <path fill-rule="evenodd" clip-rule="evenodd" d="M1012.22 283.511C1003.31 307.488 994.683 335.811 970.611 344.485C946.101 353.316 921.303 336.448 898.068 324.642C874.24 312.535 845.71 302.294 837.523 276.861C829.29 251.285 840.715 222.259 858.682 202.293C873.757 185.541 899.763 191.232 921.106 183.978C943.782 176.272 963.354 150.28 985.607 159.156C1008.07 168.118 1011.1 198.253 1016.16 221.896C1020.64 242.82 1019.67 263.458 1012.22 283.511Z" fill="url(#paint0_linear_0_1)"/>
    </g>
    <circle opacity="0.41" cx="1187.5" cy="209.5" r="40" stroke="url(#paint1_linear_0_1)" stroke-width="27"/>
    <rect x="677.054" y="111" width="41.0892" height="41.0892" rx="8" transform="rotate(45 677.054 111)" fill="url(#paint2_linear_0_1)"/>
    <rect x="32.8984" y="509" width="49.3548" height="49.3548" rx="5" transform="rotate(45 32.8984 509)" fill="url(#paint3_linear_0_1)"/>
    <path d="M1491.41 532.593V602.087L1484.47 606.264L1477.52 602.065V532.647L1459.52 543.55V602.98L1484.47 618L1509.63 602.873V543.512L1491.41 532.593ZM1484.47 496L1432 527.279V586.716L1445.63 594.615V535.172L1484.48 511.927L1523.36 535.138L1523.52 535.228L1523.51 594.526L1537 586.716V527.279L1484.47 496Z" fill="url(#paint4_linear_0_1)"/>
    <g opacity="0.17" clip-path="url(#clip0_0_1)">
        <path fill-rule="evenodd" clip-rule="evenodd" d="M1412.54 183.821L1408.47 197.906L1407.15 198.257L1406.35 189.997L1402.25 191.095C1402.16 191.118 1402.07 191.124 1401.99 191.112C1401.9 191.1 1401.81 191.071 1401.73 191.026C1401.66 190.981 1401.59 190.921 1401.53 190.85C1401.48 190.778 1401.44 190.697 1401.42 190.61C1401.37 190.454 1401.45 190.15 1401.45 190.15L1405.5 176.086L1406.84 175.734L1407.61 184.016L1411.74 182.911C1411.83 182.888 1411.92 182.882 1412.01 182.894C1412.1 182.906 1412.18 182.935 1412.26 182.98C1412.34 183.025 1412.41 183.085 1412.46 183.156C1412.52 183.227 1412.56 183.308 1412.58 183.395C1412.62 183.543 1412.59 183.688 1412.54 183.82L1412.54 183.821L1412.54 183.821ZM1402.37 169.605C1392.77 172.16 1387.05 182.018 1389.6 191.626C1392.16 201.234 1402.02 206.95 1411.63 204.395C1421.23 201.84 1426.95 191.981 1424.4 182.374C1421.84 172.766 1411.98 167.049 1402.37 169.605Z" fill="url(#paint5_linear_0_1)"/>
    </g>
    <g opacity="0.36">
        <path fill-rule="evenodd" clip-rule="evenodd" d="M846.172 482.352L838.621 494.918H837.253L838.605 486.73L834.358 486.737C834.268 486.737 834.18 486.719 834.097 486.685C834.014 486.65 833.939 486.6 833.875 486.537C833.812 486.473 833.762 486.398 833.727 486.315C833.693 486.232 833.675 486.144 833.675 486.054C833.675 485.892 833.826 485.618 833.826 485.618L841.352 473.066L842.744 473.072L841.358 481.273L845.635 481.267C845.724 481.267 845.813 481.285 845.896 481.319C845.979 481.353 846.054 481.404 846.117 481.467C846.181 481.53 846.231 481.606 846.265 481.688C846.3 481.771 846.317 481.86 846.317 481.95C846.317 482.103 846.257 482.237 846.172 482.351L846.173 482.352L846.172 482.352ZM840 466C830.059 466 822 474.058 822 484C822 493.942 830.059 502 840 502C849.941 502 858 493.941 858 484C858 474.059 849.942 466 840 466Z" fill="url(#paint6_linear_0_1)"/>
    </g>
    <defs>
        <linearGradient id="paint0_linear_0_1" x1="715.399" y1="161.378" x2="974.357" y2="308.641" gradientUnits="userSpaceOnUse">
            <stop stop-color="#7EAAFF"/>
            <stop offset="1" stop-color="#FF7E7E" stop-opacity="0.63"/>
        </linearGradient>
        <linearGradient id="paint1_linear_0_1" x1="1241" y1="135.5" x2="1151" y2="290.5" gradientUnits="userSpaceOnUse">
            <stop stop-color="#589BFF" stop-opacity="0.55"/>
            <stop offset="1" stop-color="#D1F4FF" stop-opacity="0"/>
        </linearGradient>
        <linearGradient id="paint2_linear_0_1" x1="694.016" y1="71.851" x2="707.751" y2="226.104" gradientUnits="userSpaceOnUse">
            <stop stop-color="#DADCFA"/>
            <stop offset="1" stop-color="#A9D1FF" stop-opacity="0"/>
        </linearGradient>
        <linearGradient id="paint3_linear_0_1" x1="48.5654" y1="437.276" x2="66.4018" y2="591.858" gradientUnits="userSpaceOnUse">
            <stop stop-color="white"/>
            <stop offset="1" stop-color="white" stop-opacity="0"/>
        </linearGradient>
        <linearGradient id="paint4_linear_0_1" x1="1537" y1="486.5" x2="1360.5" y2="782.5" gradientUnits="userSpaceOnUse">
            <stop stop-color="white"/>
            <stop offset="1" stop-color="white" stop-opacity="0"/>
        </linearGradient>
        <linearGradient id="paint5_linear_0_1" x1="1422.72" y1="128.434" x2="1416.11" y2="224.063" gradientUnits="userSpaceOnUse">
            <stop stop-color="white"/>
            <stop offset="1" stop-color="#1472FF" stop-opacity="0.71"/>
        </linearGradient>
        <linearGradient id="paint6_linear_0_1" x1="870.24" y1="431.44" x2="839.28" y2="522.16" gradientUnits="userSpaceOnUse">
            <stop stop-color="#2076F8"/>
            <stop offset="1" stop-color="#2076F8" stop-opacity="0"/>
        </linearGradient>
        <clipPath id="clip0_0_1">
            <rect width="36" height="36" fill="white" transform="translate(1384.98 174.231) rotate(-14.8924)"/>
        </clipPath>
    </defs>
</svg>

