<svg width="444" height="569" viewBox="0 0 444 569" fill="none" xmlns="http://www.w3.org/2000/svg">
    <circle opacity="0.41" cx="302.5" cy="53.5" r="40" stroke="url(#paint0_linear_0_1)" stroke-width="27"/>
    <circle opacity="0.41" cx="168" cy="454" r="29.5" stroke="url(#paint1_linear_0_1)" stroke-width="15"/>
    <path opacity="0.37" fill-rule="evenodd" clip-rule="evenodd" d="M430.857 439.169L422.467 453.131H420.947L422.45 444.033L417.731 444.041C417.632 444.041 417.533 444.021 417.441 443.983C417.349 443.945 417.265 443.889 417.195 443.819C417.124 443.748 417.068 443.664 417.03 443.572C416.992 443.48 416.973 443.382 416.973 443.282C416.973 443.102 417.14 442.797 417.14 442.797L425.502 428.851L427.049 428.858L425.509 437.97L430.261 437.963C430.36 437.963 430.459 437.983 430.551 438.021C430.643 438.059 430.727 438.115 430.797 438.185C430.868 438.256 430.924 438.34 430.962 438.432C431 438.524 431.019 438.622 431.019 438.722C431.019 438.892 430.952 439.041 430.858 439.168L430.858 439.169L430.857 439.169ZM424 421C412.954 421 404 429.953 404 441C404 452.047 412.954 461 424 461C435.046 461 444 452.046 444 441C444 429.954 435.047 421 424 421Z" fill="url(#paint2_linear_0_1)"/>
    <mask id="mask0_0_1" style="mask-type:alpha" maskUnits="userSpaceOnUse" x="102" y="329" width="209" height="234">
        <path d="M205.6 330.036C214.989 332.399 218.473 338.267 216.051 347.641C213.629 357.014 217.113 362.883 226.502 365.245C235.89 367.608 239.374 373.476 236.952 382.85C234.531 392.224 238.014 398.092 247.403 400.455C256.791 402.817 260.275 408.686 257.853 418.059C255.432 427.433 258.915 433.301 268.304 435.664C277.693 438.027 281.176 443.895 278.754 453.269C276.333 462.642 279.816 468.511 289.205 470.873C298.594 473.236 302.077 479.104 299.656 488.478C297.234 497.852 300.717 503.72 310.106 506.083" stroke="#4C75F2"/>
        <path d="M199.542 333.354C208.931 335.717 212.414 341.585 209.992 350.959C207.571 360.332 211.054 366.201 220.443 368.563C229.832 370.926 233.315 376.794 230.894 386.168C228.472 395.542 231.955 401.41 241.344 403.773C250.733 406.136 254.216 412.004 251.795 421.377C249.373 430.751 252.857 436.619 262.245 438.982C271.634 441.345 275.117 447.213 272.696 456.587C270.274 465.96 273.758 471.829 283.146 474.191C292.535 476.554 296.019 482.422 293.597 491.796C291.175 501.17 294.659 507.038 304.048 509.401" stroke="#4C75F2"/>
        <path d="M193.482 336.672C202.871 339.035 206.354 344.903 203.933 354.277C201.511 363.651 204.995 369.519 214.383 371.882C223.772 374.244 227.256 380.113 224.834 389.486C222.412 398.86 225.896 404.728 235.285 407.091C244.673 409.454 248.157 415.322 245.735 424.696C243.314 434.069 246.797 439.937 256.186 442.3C265.574 444.663 269.058 450.531 266.636 459.905C264.215 469.279 267.698 475.147 277.087 477.51C286.475 479.872 289.959 485.741 287.537 495.114C285.116 504.488 288.599 510.356 297.988 512.719" stroke="#4C75F2"/>
        <path d="M187.424 339.991C196.812 342.353 200.296 348.222 197.874 357.595C195.453 366.969 198.936 372.837 208.325 375.2C217.713 377.563 221.197 383.431 218.775 392.805C216.354 402.178 219.837 408.046 229.226 410.409C238.615 412.772 242.098 418.64 239.677 428.014C237.255 437.388 240.738 443.256 250.127 445.619C259.516 447.981 262.999 453.85 260.578 463.223C258.156 472.597 261.64 478.465 271.028 480.828C280.417 483.191 283.9 489.059 281.479 498.433C279.057 507.806 282.541 513.674 291.929 516.037" stroke="#4C75F2"/>
        <path d="M181.365 343.31C190.754 345.673 194.237 351.541 191.816 360.914C189.394 370.288 192.878 376.156 202.266 378.519C211.655 380.882 215.138 386.75 212.717 396.124C210.295 405.497 213.779 411.366 223.167 413.728C232.556 416.091 236.04 421.959 233.618 431.333C231.196 440.707 234.68 446.575 244.069 448.938C253.457 451.3 256.941 457.169 254.519 466.542C252.097 475.916 255.581 481.784 264.97 484.147C274.358 486.51 277.842 492.378 275.42 501.752C272.999 511.125 276.482 516.994 285.871 519.356" stroke="#4C75F2"/>
        <path d="M175.307 346.628C184.695 348.991 188.179 354.859 185.757 364.233C183.335 373.606 186.819 379.475 196.208 381.837C205.596 384.2 209.08 390.068 206.658 399.442C204.237 408.816 207.72 414.684 217.109 417.047C226.497 419.41 229.981 425.278 227.559 434.651C225.138 444.025 228.621 449.893 238.01 452.256C247.399 454.619 250.882 460.487 248.46 469.861C246.039 479.234 249.522 485.103 258.911 487.465C268.3 489.828 271.783 495.696 269.362 505.07C266.94 514.444 270.424 520.312 279.812 522.675" stroke="#4C75F2"/>
        <path d="M169.248 349.946C178.637 352.309 182.12 358.177 179.698 367.551C177.277 376.925 180.76 382.793 190.149 385.156C199.538 387.518 203.021 393.387 200.6 402.76C198.178 412.134 201.662 418.002 211.05 420.365C220.439 422.728 223.922 428.596 221.501 437.969C219.079 447.343 222.563 453.211 231.951 455.574C241.34 457.937 244.823 463.805 242.402 473.179C239.98 482.552 243.464 488.421 252.852 490.783C262.241 493.146 265.725 499.014 263.303 508.388C260.881 517.762 264.365 523.63 273.754 525.993" stroke="#4C75F2"/>
        <path d="M163.188 353.264C172.577 355.627 176.061 361.495 173.639 370.869C171.217 380.243 174.701 386.111 184.089 388.474C193.478 390.836 196.962 396.705 194.54 406.078C192.118 415.452 195.602 421.32 204.991 423.683C214.379 426.046 217.863 431.914 215.441 441.288C213.02 450.661 216.503 456.529 225.892 458.892C235.28 461.255 238.764 467.123 236.342 476.497C233.921 485.871 237.404 491.739 246.793 494.102C256.182 496.464 259.665 502.333 257.243 511.706C254.822 521.08 258.305 526.948 267.694 529.311" stroke="#4C75F2"/>
        <path d="M157.13 356.583C166.518 358.945 170.002 364.814 167.58 374.187C165.159 383.561 168.642 389.429 178.031 391.792C187.42 394.155 190.903 400.023 188.481 409.397C186.06 418.77 189.543 424.639 198.932 427.001C208.321 429.364 211.804 435.232 209.383 444.606C206.961 453.98 210.445 459.848 219.833 462.211C229.222 464.573 232.705 470.442 230.284 479.815C227.862 489.189 231.346 495.057 240.734 497.42C250.123 499.783 253.606 505.651 251.185 515.025C248.763 524.398 252.247 530.266 261.635 532.629" stroke="#4C75F2"/>
        <path d="M151.071 359.902C160.46 362.265 163.943 368.133 161.522 377.506C159.1 386.88 162.584 392.748 171.972 395.111C181.361 397.474 184.844 403.342 182.423 412.716C180.001 422.089 183.485 427.958 192.873 430.32C202.262 432.683 205.746 438.551 203.324 447.925C200.902 457.299 204.386 463.167 213.775 465.53C223.163 467.893 226.647 473.761 224.225 483.134C221.804 492.508 225.287 498.376 234.676 500.739C244.064 503.102 247.548 508.97 245.126 518.344C242.705 527.717 246.188 533.586 255.577 535.948" stroke="#4C75F2"/>
        <path d="M145.013 363.22C154.401 365.583 157.885 371.451 155.463 380.825C153.042 390.198 156.525 396.067 165.914 398.429C175.302 400.792 178.786 406.66 176.364 416.034C173.943 425.408 177.426 431.276 186.815 433.639C196.203 436.002 199.687 441.87 197.265 451.243C194.844 460.617 198.327 466.485 207.716 468.848C217.105 471.211 220.588 477.079 218.167 486.453C215.745 495.826 219.228 501.695 228.617 504.057C238.006 506.42 241.489 512.288 239.068 521.662C236.646 531.036 240.13 536.904 249.518 539.267" stroke="#4C75F2"/>
        <path d="M138.954 366.538C148.343 368.901 151.826 374.769 149.405 384.143C146.983 393.517 150.466 399.385 159.855 401.748C169.244 404.11 172.727 409.979 170.306 419.352C167.884 428.726 171.368 434.594 180.756 436.957C190.145 439.32 193.628 445.188 191.207 454.562C188.785 463.935 192.269 469.803 201.657 472.166C211.046 474.529 214.53 480.397 212.108 489.771C209.686 499.145 213.17 505.013 222.559 507.376C231.947 509.738 235.431 515.607 233.009 524.98C230.587 534.354 234.071 540.222 243.46 542.585" stroke="#4C75F2"/>
        <path d="M132.894 369.856C142.283 372.219 145.767 378.087 143.345 387.461C140.923 396.835 144.407 402.703 153.796 405.066C163.184 407.428 166.668 413.297 164.246 422.67C161.824 432.044 165.308 437.912 174.697 440.275C184.085 442.638 187.569 448.506 185.147 457.88C182.726 467.253 186.209 473.122 195.598 475.484C204.986 477.847 208.47 483.715 206.048 493.089C203.627 502.463 207.11 508.331 216.499 510.694C225.888 513.056 229.371 518.925 226.95 528.298C224.528 537.672 228.011 543.54 237.4 545.903" stroke="#4C75F2"/>
        <path d="M126.836 373.174C136.224 375.537 139.708 381.405 137.286 390.779C134.865 400.153 138.348 406.021 147.737 408.384C157.126 410.747 160.609 416.615 158.188 425.988C155.766 435.362 159.249 441.23 168.638 443.593C178.027 445.956 181.51 451.824 179.089 461.198C176.667 470.571 180.151 476.44 189.539 478.802C198.928 481.165 202.411 487.033 199.99 496.407C197.568 505.781 201.052 511.649 210.44 514.012C219.829 516.375 223.313 522.243 220.891 531.616C218.469 540.99 221.953 546.858 231.341 549.221" stroke="#4C75F2"/>
        <path d="M120.777 376.493C130.166 378.856 133.649 384.724 131.228 394.098C128.806 403.471 132.29 409.339 141.678 411.702C151.067 414.065 154.551 419.933 152.129 429.307C149.707 438.68 153.191 444.549 162.579 446.911C171.968 449.274 175.452 455.142 173.03 464.516C170.608 473.89 174.092 479.758 183.481 482.121C192.869 484.484 196.353 490.352 193.931 499.725C191.51 509.099 194.993 514.967 204.382 517.33C213.77 519.693 217.254 525.561 214.832 534.935C212.411 544.308 215.894 550.177 225.283 552.539" stroke="#4C75F2"/>
        <path d="M114.719 379.812C124.107 382.175 127.591 388.043 125.169 397.417C122.748 406.79 126.231 412.658 135.62 415.021C145.008 417.384 148.492 423.252 146.07 432.626C143.649 442 147.132 447.868 156.521 450.231C165.91 452.593 169.393 458.462 166.971 467.835C164.55 477.209 168.033 483.077 177.422 485.44C186.811 487.803 190.294 493.671 187.873 503.045C185.451 512.418 188.935 518.286 198.323 520.649C207.712 523.012 211.195 528.88 208.774 538.254C206.352 547.627 209.836 553.496 219.224 555.859" stroke="#4C75F2"/>
        <path d="M108.66 383.13C118.049 385.493 121.532 391.361 119.111 400.735C116.689 410.108 120.173 415.977 129.561 418.339C138.95 420.702 142.433 426.57 140.012 435.944C137.59 445.318 141.074 451.186 150.462 453.549C159.851 455.911 163.334 461.78 160.913 471.153C158.491 480.527 161.975 486.395 171.363 488.758C180.752 491.121 184.236 496.989 181.814 506.363C179.392 515.736 182.876 521.605 192.265 523.967C201.653 526.33 205.137 532.198 202.715 541.572C200.294 550.946 203.777 556.814 213.166 559.177" stroke="#4C75F2"/>
        <path d="M102.6 386.448C111.989 388.811 115.473 394.679 113.051 404.053C110.629 413.427 114.113 419.295 123.502 421.658C132.89 424.021 136.374 429.889 133.952 439.262C131.531 448.636 135.014 454.504 144.403 456.867C153.791 459.23 157.275 465.098 154.853 474.472C152.432 483.845 155.915 489.714 165.304 492.076C174.693 494.439 178.176 500.307 175.754 509.681C173.333 519.055 176.816 524.923 186.205 527.286C195.594 529.648 199.077 535.517 196.656 544.89C194.234 554.264 197.717 560.132 207.106 562.495" stroke="#4C75F2"/>
    </mask>
    <g mask="url(#mask0_0_1)">
        <path fill-rule="evenodd" clip-rule="evenodd" d="M162.756 469.347C153.381 460.004 141.9 449.861 142.986 436.667C144.092 423.232 157.358 415.18 167.905 406.777C178.722 398.16 189.669 386.928 203.4 388.535C217.208 390.151 228.419 401.763 233.96 414.509C238.609 425.203 230.346 436.223 229.177 447.828C227.936 460.158 235.969 474.953 227.012 483.523C217.969 492.174 203.131 487.131 190.915 484.436C180.103 482.05 170.596 477.161 162.756 469.347Z" fill="url(#paint3_linear_0_1)"/>
    </g>
    <path opacity="0.68" fill-rule="evenodd" clip-rule="evenodd" d="M416.086 20.1759L412.31 26.4591H411.626L412.302 22.365L410.179 22.3683C410.134 22.3683 410.09 22.3595 410.048 22.3424C410.007 22.3252 409.969 22.3001 409.938 22.2684C409.906 22.2367 409.881 22.199 409.864 22.1576C409.846 22.1162 409.838 22.0718 409.838 22.0269C409.838 21.9459 409.913 21.8088 409.913 21.8088L413.676 15.5331L414.372 15.5362L413.679 19.6366L415.817 19.6335C415.862 19.6335 415.907 19.6423 415.948 19.6595C415.989 19.6766 416.027 19.7018 416.059 19.7335C416.09 19.7652 416.116 19.8028 416.133 19.8442C416.15 19.8857 416.159 19.9301 416.159 19.9749C416.159 20.0514 416.129 20.1186 416.086 20.1756L416.086 20.1759L416.086 20.1759ZM413 12C408.029 12 404 16.0289 404 21C404 25.9711 408.029 30 413 30C417.971 30 422 25.9707 422 21C422 16.0293 417.971 12 413 12Z" fill="url(#paint4_linear_0_1)"/>
    <path opacity="0.68" fill-rule="evenodd" clip-rule="evenodd" d="M105.086 499.176L101.31 505.459H100.626L101.302 501.365L99.1791 501.368C99.1342 501.368 99.0898 501.359 99.0484 501.342C99.007 501.325 98.9693 501.3 98.9376 501.268C98.9059 501.237 98.8808 501.199 98.8636 501.158C98.8465 501.116 98.8377 501.072 98.8377 501.027C98.8377 500.946 98.9129 500.809 98.9129 500.809L102.676 494.533L103.372 494.536L102.679 498.637L104.817 498.634C104.862 498.634 104.907 498.642 104.948 498.659C104.989 498.677 105.027 498.702 105.059 498.733C105.09 498.765 105.116 498.803 105.133 498.844C105.15 498.886 105.159 498.93 105.159 498.975C105.159 499.051 105.129 499.119 105.086 499.176L105.086 499.176L105.086 499.176ZM102 491C97.0293 491 93 495.029 93 500C93 504.971 97.0293 509 102 509C106.971 509 111 504.971 111 500C111 495.029 106.971 491 102 491Z" fill="url(#paint5_linear_0_1)"/>
    <path opacity="0.37" fill-rule="evenodd" clip-rule="evenodd" d="M26.8573 37.1688L18.4673 51.1312H16.9473L18.45 42.0333L13.7312 42.0406C13.6316 42.0407 13.5329 42.0211 13.4409 41.983C13.3488 41.9449 13.2652 41.889 13.1947 41.8186C13.1243 41.7481 13.0684 41.6645 13.0303 41.5724C12.9922 41.4803 12.9726 41.3817 12.9727 41.282C12.9727 41.102 13.1398 40.7973 13.1398 40.7973L21.5023 26.8514L23.0492 26.8581L21.5086 35.9702L26.2606 35.9634C26.3603 35.9634 26.4589 35.983 26.551 36.0211C26.6431 36.0592 26.7267 36.115 26.7972 36.1855C26.8676 36.2559 26.9235 36.3396 26.9616 36.4317C26.9997 36.5237 27.0193 36.6224 27.0192 36.722C27.0192 36.892 26.9525 37.0414 26.8578 37.168L26.8584 37.1686L26.8573 37.1688ZM20 19C8.95406 19 0 27.9531 0 39C0 50.0469 8.95406 59 20 59C31.0459 59 40 50.0459 40 39C40 27.9541 31.0469 19 20 19Z" fill="url(#paint6_linear_0_1)"/>
    <defs>
        <linearGradient id="paint0_linear_0_1" x1="356" y1="-20.5" x2="266" y2="134.5" gradientUnits="userSpaceOnUse">
            <stop stop-color="#589BFF" stop-opacity="0.55"/>
            <stop offset="1" stop-color="#D1F4FF" stop-opacity="0"/>
        </linearGradient>
        <linearGradient id="paint1_linear_0_1" x1="205" y1="402.822" x2="142.757" y2="510.019" gradientUnits="userSpaceOnUse">
            <stop stop-color="#D1F4FF" stop-opacity="0"/>
            <stop offset="1" stop-color="#589BFF" stop-opacity="0.55"/>
        </linearGradient>
        <linearGradient id="paint2_linear_0_1" x1="457.6" y1="382.6" x2="423.2" y2="483.4" gradientUnits="userSpaceOnUse">
            <stop stop-color="#2076F8"/>
            <stop offset="1" stop-color="#2076F8" stop-opacity="0"/>
        </linearGradient>
        <linearGradient id="paint3_linear_0_1" x1="283.989" y1="355.842" x2="159.056" y2="446.127" gradientUnits="userSpaceOnUse">
            <stop stop-color="#7EAAFF"/>
            <stop offset="1" stop-color="#FF7E7E" stop-opacity="0.63"/>
        </linearGradient>
        <linearGradient id="paint4_linear_0_1" x1="428.12" y1="-5.28" x2="412.64" y2="40.08" gradientUnits="userSpaceOnUse">
            <stop stop-color="#2076F8"/>
            <stop offset="1" stop-color="#2076F8" stop-opacity="0"/>
        </linearGradient>
        <linearGradient id="paint5_linear_0_1" x1="117.12" y1="473.72" x2="101.64" y2="519.08" gradientUnits="userSpaceOnUse">
            <stop stop-color="#2076F8"/>
            <stop offset="1" stop-color="#2076F8" stop-opacity="0"/>
        </linearGradient>
        <linearGradient id="paint6_linear_0_1" x1="53.6" y1="-19.4" x2="19.2" y2="81.4" gradientUnits="userSpaceOnUse">
            <stop stop-color="#2076F8"/>
            <stop offset="1" stop-color="#2076F8" stop-opacity="0"/>
        </linearGradient>
    </defs>
</svg>
