<svg width="1920" height="716" viewBox="0 0 1920 716" fill="none" xmlns="http://www.w3.org/2000/svg">
    <path d="M0 153.289C288.483 142.822 571.951 131.561 966 121.055C1118 121.055 1147 180.5 1292 180.5C1437 180.5 1451.5 112.099 1588.5 112.099C1795.97 106.199 1829.13 100.725 1920 96V716H0L0 153.289Z" fill="url(#paint0_linear_0_1)"/>
    <mask id="mask0_0_1" style="mask-type:alpha" maskUnits="userSpaceOnUse" x="877" y="6" width="411" height="462">
        <path d="M879.153 331.192C875.777 312.788 883.302 301.956 901.726 298.696C920.151 295.436 927.675 284.604 924.3 266.2C920.924 247.796 928.448 236.964 946.873 233.704C965.297 230.444 972.822 219.612 969.446 201.208C966.07 182.804 973.595 171.972 992.019 168.712C1010.44 165.451 1017.97 154.619 1014.59 136.216C1011.22 117.812 1018.74 106.98 1037.17 103.72C1055.59 100.459 1063.11 89.6273 1059.74 71.2236C1056.36 52.8198 1063.89 41.9878 1082.31 38.7275C1100.74 35.4672 1108.26 24.6352 1104.89 6.23146" stroke="#4C75F2"/>
        <path d="M889.847 339.184C886.471 320.78 893.996 309.948 912.42 306.688C930.845 303.427 938.369 292.595 934.993 274.192C931.618 255.788 939.142 244.956 957.567 241.696C975.991 238.435 983.516 227.603 980.14 209.199C976.764 190.796 984.288 179.964 1002.71 176.703C1021.14 173.443 1028.66 162.611 1025.29 144.207C1021.91 125.804 1029.43 114.972 1047.86 111.711C1066.28 108.451 1073.81 97.619 1070.43 79.2153C1067.06 60.8115 1074.58 49.9795 1093.01 46.7192C1111.43 43.4589 1118.95 32.6269 1115.58 14.2232" stroke="#4C75F2"/>
        <path d="M900.542 347.175C897.166 328.772 904.69 317.94 923.115 314.679C941.54 311.419 949.064 300.587 945.688 282.183C942.312 263.78 949.837 252.948 968.261 249.687C986.686 246.427 994.21 235.595 990.835 217.191C987.459 198.787 994.983 187.955 1013.41 184.695C1031.83 181.435 1039.36 170.603 1035.98 152.199C1032.61 133.795 1040.13 122.963 1058.55 119.703C1076.98 116.443 1084.5 105.611 1081.13 87.207C1077.75 68.8032 1085.28 57.9712 1103.7 54.7109C1122.13 51.4506 1129.65 40.6186 1126.27 22.2149" stroke="#4C75F2"/>
        <path d="M911.236 355.167C907.86 336.764 915.385 325.932 933.809 322.671C952.234 319.411 959.758 308.579 956.383 290.175C953.007 271.771 960.531 260.939 978.956 257.679C997.38 254.419 1004.9 243.587 1001.53 225.183C998.153 206.779 1005.68 195.947 1024.1 192.687C1042.53 189.427 1050.05 178.595 1046.68 160.191C1043.3 141.787 1050.82 130.955 1069.25 127.695C1087.67 124.435 1095.2 113.603 1091.82 95.1989C1088.45 76.7952 1095.97 65.9631 1114.39 62.7029C1132.82 59.4426 1140.34 48.6105 1136.97 30.2068" stroke="#4C75F2"/>
        <path d="M921.931 363.16C918.555 344.756 926.08 333.924 944.504 330.663C962.929 327.403 970.453 316.571 967.077 298.167C963.702 279.764 971.226 268.932 989.651 265.671C1008.08 262.411 1015.6 251.579 1012.22 233.175C1008.85 214.772 1016.37 203.94 1034.8 200.679C1053.22 197.419 1060.75 186.587 1057.37 168.183C1053.99 149.779 1061.52 138.947 1079.94 135.687C1098.37 132.427 1105.89 121.595 1102.52 103.191C1099.14 84.7874 1106.67 73.9553 1125.09 70.695C1143.51 67.4347 1151.04 56.6027 1147.66 38.199" stroke="#4C75F2"/>
        <path d="M932.625 371.151C929.25 352.748 936.774 341.916 955.199 338.655C973.623 335.395 981.147 324.563 977.772 306.159C974.396 287.756 981.92 276.924 1000.34 273.663C1018.77 270.403 1026.29 259.571 1022.92 241.167C1019.54 222.764 1027.07 211.931 1045.49 208.671C1063.92 205.411 1071.44 194.579 1068.06 176.175C1064.69 157.771 1072.21 146.939 1090.64 143.679C1109.06 140.419 1116.59 129.587 1113.21 111.183C1109.84 92.7793 1117.36 81.9473 1135.78 78.687C1154.21 75.4267 1161.73 64.5947 1158.36 46.1909" stroke="#4C75F2"/>
        <path d="M943.32 379.143C939.944 360.739 947.469 349.907 965.893 346.647C984.318 343.387 991.842 332.555 988.467 314.151C985.091 295.747 992.615 284.915 1011.04 281.655C1029.46 278.395 1036.99 267.563 1033.61 249.159C1030.24 230.755 1037.76 219.923 1056.19 216.663C1074.61 213.403 1082.14 202.571 1078.76 184.167C1075.38 165.763 1082.91 154.931 1101.33 151.671C1119.76 148.41 1127.28 137.578 1123.91 119.175C1120.53 100.771 1128.05 89.939 1146.48 86.6787C1164.9 83.4184 1172.43 72.5864 1169.05 54.1826" stroke="#4C75F2"/>
        <path d="M954.014 387.135C950.639 368.732 958.163 357.9 976.588 354.639C995.012 351.379 1002.54 340.547 999.161 322.143C995.785 303.739 1003.31 292.907 1021.73 289.647C1040.16 286.387 1047.68 275.555 1044.31 257.151C1040.93 238.747 1048.46 227.915 1066.88 224.655C1085.31 221.395 1092.83 210.563 1089.45 192.159C1086.08 173.755 1093.6 162.923 1112.03 159.663C1130.45 156.403 1137.98 145.571 1134.6 127.167C1131.22 108.763 1138.75 97.9312 1157.17 94.6709C1175.6 91.4106 1183.12 80.5786 1179.75 62.1748" stroke="#4C75F2"/>
        <path d="M964.709 395.127C961.333 376.723 968.857 365.891 987.282 362.631C1005.71 359.371 1013.23 348.539 1009.86 330.135C1006.48 311.731 1014 300.899 1032.43 297.639C1050.85 294.379 1058.38 283.547 1055 265.143C1051.63 246.739 1059.15 235.907 1077.57 232.647C1096 229.386 1103.52 218.554 1100.15 200.151C1096.77 181.747 1104.3 170.915 1122.72 167.655C1141.15 164.394 1148.67 153.562 1145.29 135.159C1141.92 116.755 1149.44 105.923 1167.87 102.663C1186.29 99.4023 1193.82 88.5703 1190.44 70.1665" stroke="#4C75F2"/>
        <path d="M975.404 403.119C972.028 384.716 979.552 373.884 997.977 370.623C1016.4 367.363 1023.93 356.531 1020.55 338.127C1017.17 319.724 1024.7 308.892 1043.12 305.631C1061.55 302.371 1069.07 291.539 1065.7 273.135C1062.32 254.732 1069.85 243.9 1088.27 240.639C1106.69 237.379 1114.22 226.547 1110.84 208.143C1107.47 189.739 1114.99 178.907 1133.42 175.647C1151.84 172.387 1159.36 161.555 1155.99 143.151C1152.61 124.747 1160.14 113.915 1178.56 110.655C1196.99 107.395 1204.51 96.5627 1201.14 78.1589" stroke="#4C75F2"/>
        <path d="M986.098 411.111C982.722 392.708 990.247 381.876 1008.67 378.615C1027.1 375.355 1034.62 364.523 1031.24 346.119C1027.87 327.716 1035.39 316.884 1053.82 313.623C1072.24 310.363 1079.77 299.531 1076.39 281.127C1073.02 262.723 1080.54 251.891 1098.96 248.631C1117.39 245.371 1124.91 234.539 1121.54 216.135C1118.16 197.731 1125.69 186.899 1144.11 183.639C1162.53 180.379 1170.06 169.547 1166.68 151.143C1163.31 132.739 1170.83 121.907 1189.26 118.647C1207.68 115.387 1215.21 104.555 1211.83 86.1509" stroke="#4C75F2"/>
        <path d="M996.792 419.103C993.416 400.699 1000.94 389.867 1019.37 386.607C1037.79 383.347 1045.31 372.515 1041.94 354.111C1038.56 335.707 1046.09 324.875 1064.51 321.615C1082.94 318.354 1090.46 307.522 1087.08 289.119C1083.71 270.715 1091.23 259.883 1109.66 256.623C1128.08 253.362 1135.61 242.53 1132.23 224.127C1128.86 205.723 1136.38 194.891 1154.8 191.631C1173.23 188.37 1180.75 177.538 1177.38 159.134C1174 140.731 1181.53 129.899 1199.95 126.638C1218.38 123.378 1225.9 112.546 1222.52 94.1423" stroke="#4C75F2"/>
        <path d="M1007.49 427.095C1004.11 408.691 1011.64 397.859 1030.06 394.599C1048.48 391.338 1056.01 380.506 1052.63 362.103C1049.26 343.699 1056.78 332.867 1075.21 329.607C1093.63 326.346 1101.16 315.514 1097.78 297.111C1094.4 278.707 1101.93 267.875 1120.35 264.615C1138.78 261.354 1146.3 250.522 1142.93 232.118C1139.55 213.715 1147.07 202.883 1165.5 199.622C1183.92 196.362 1191.45 185.53 1188.07 167.126C1184.7 148.723 1192.22 137.891 1210.65 134.63C1229.07 131.37 1236.59 120.538 1233.22 102.134" stroke="#4C75F2"/>
        <path d="M1018.18 435.087C1014.81 416.683 1022.33 405.851 1040.75 402.59C1059.18 399.33 1066.7 388.498 1063.33 370.094C1059.95 351.691 1067.48 340.859 1085.9 337.598C1104.33 334.338 1111.85 323.506 1108.47 305.102C1105.1 286.699 1112.62 275.867 1131.05 272.606C1149.47 269.346 1157 258.514 1153.62 240.11C1150.24 221.706 1157.77 210.874 1176.19 207.614C1194.62 204.354 1202.14 193.522 1198.77 175.118C1195.39 156.714 1202.92 145.882 1221.34 142.622C1239.76 139.362 1247.29 128.53 1243.91 110.126" stroke="#4C75F2"/>
        <path d="M1028.88 443.078C1025.5 424.675 1033.02 413.843 1051.45 410.582C1069.87 407.322 1077.4 396.49 1074.02 378.086C1070.65 359.683 1078.17 348.851 1096.59 345.59C1115.02 342.33 1122.54 331.498 1119.17 313.094C1115.79 294.691 1123.32 283.858 1141.74 280.598C1160.17 277.338 1167.69 266.506 1164.31 248.102C1160.94 229.698 1168.46 218.866 1186.89 215.606C1205.31 212.346 1212.84 201.514 1209.46 183.11C1206.09 164.706 1213.61 153.874 1232.03 150.614C1250.46 147.354 1257.98 136.522 1254.61 118.118" stroke="#4C75F2"/>
        <path d="M1039.57 451.071C1036.19 432.667 1043.72 421.835 1062.14 418.575C1080.57 415.314 1088.09 404.482 1084.72 386.079C1081.34 367.675 1088.87 356.843 1107.29 353.582C1125.71 350.322 1133.24 339.49 1129.86 321.086C1126.49 302.683 1134.01 291.851 1152.44 288.59C1170.86 285.33 1178.39 274.498 1175.01 256.094C1171.63 237.691 1179.16 226.859 1197.58 223.598C1216.01 220.338 1223.53 209.506 1220.16 191.102C1216.78 172.698 1224.3 161.866 1242.73 158.606C1261.15 155.346 1268.68 144.514 1265.3 126.11" stroke="#4C75F2"/>
        <path d="M1050.26 459.062C1046.89 440.659 1054.41 429.827 1072.84 426.566C1091.26 423.306 1098.79 412.474 1095.41 394.07C1092.04 375.666 1099.56 364.834 1117.98 361.574C1136.41 358.314 1143.93 347.482 1140.56 329.078C1137.18 310.674 1144.71 299.842 1163.13 296.582C1181.56 293.322 1189.08 282.49 1185.7 264.086C1182.33 245.682 1189.85 234.85 1208.28 231.59C1226.7 228.33 1234.23 217.498 1230.85 199.094C1227.47 180.69 1235 169.858 1253.42 166.598C1271.85 163.338 1279.37 152.506 1276 134.102" stroke="#4C75F2"/>
        <path d="M1060.96 467.055C1057.58 448.651 1065.11 437.819 1083.53 434.559C1101.96 431.298 1109.48 420.466 1106.11 402.063C1102.73 383.659 1110.25 372.827 1128.68 369.567C1147.1 366.306 1154.63 355.474 1151.25 337.071C1147.88 318.667 1155.4 307.835 1173.83 304.575C1192.25 301.314 1199.77 290.482 1196.4 272.078C1193.02 253.675 1200.55 242.843 1218.97 239.582C1237.4 236.322 1244.92 225.49 1241.54 207.086C1238.17 188.683 1245.69 177.851 1264.12 174.59C1282.54 171.33 1290.07 160.498 1286.69 142.094" stroke="#4C75F2"/>
    </mask>
    <g mask="url(#mask0_0_1)">
        <path fill-rule="evenodd" clip-rule="evenodd" d="M1144.22 283.511C1135.31 307.488 1126.68 335.811 1102.61 344.485C1078.1 353.316 1053.3 336.448 1030.07 324.642C1006.24 312.535 977.71 302.294 969.523 276.861C961.29 251.285 972.715 222.259 990.682 202.293C1005.76 185.541 1031.76 191.232 1053.11 183.978C1075.78 176.272 1095.35 150.28 1117.61 159.156C1140.07 168.118 1143.1 198.253 1148.16 221.896C1152.64 242.82 1151.67 263.458 1144.22 283.511Z" fill="url(#paint1_linear_0_1)"/>
    </g>
    <circle opacity="0.41" cx="1319.5" cy="209.5" r="40" stroke="url(#paint2_linear_0_1)" stroke-width="27"/>
    <rect x="809.054" y="111" width="41.0892" height="41.0892" rx="8" transform="rotate(45 809.054 111)" fill="url(#paint3_linear_0_1)"/>
    <rect x="164.898" y="509" width="49.3548" height="49.3548" rx="5" transform="rotate(45 164.898 509)" fill="url(#paint4_linear_0_1)"/>
    <g opacity="0.17" clip-path="url(#clip0_0_1)">
        <path fill-rule="evenodd" clip-rule="evenodd" d="M1544.54 183.821L1540.47 197.906L1539.15 198.257L1538.35 189.997L1534.25 191.095C1534.16 191.118 1534.07 191.124 1533.99 191.112C1533.9 191.1 1533.81 191.071 1533.73 191.026C1533.66 190.981 1533.59 190.921 1533.53 190.85C1533.48 190.778 1533.44 190.697 1533.42 190.61C1533.37 190.454 1533.45 190.15 1533.45 190.15L1537.5 176.086L1538.84 175.734L1539.61 184.016L1543.74 182.911C1543.83 182.888 1543.92 182.882 1544.01 182.894C1544.1 182.906 1544.18 182.935 1544.26 182.98C1544.34 183.025 1544.41 183.085 1544.46 183.156C1544.52 183.227 1544.56 183.308 1544.58 183.395C1544.62 183.543 1544.59 183.688 1544.54 183.82L1544.54 183.821L1544.54 183.821ZM1534.37 169.605C1524.77 172.16 1519.05 182.018 1521.6 191.626C1524.16 201.234 1534.02 206.95 1543.63 204.395C1553.23 201.84 1558.95 191.981 1556.4 182.374C1553.84 172.766 1543.98 167.049 1534.37 169.605Z" fill="url(#paint5_linear_0_1)"/>
    </g>
    <g opacity="0.36">
        <path fill-rule="evenodd" clip-rule="evenodd" d="M978.172 482.352L970.621 494.918H969.253L970.605 486.73L966.358 486.737C966.268 486.737 966.18 486.719 966.097 486.685C966.014 486.65 965.939 486.6 965.875 486.537C965.812 486.473 965.762 486.398 965.727 486.315C965.693 486.232 965.675 486.144 965.675 486.054C965.675 485.892 965.826 485.618 965.826 485.618L973.352 473.066L974.744 473.072L973.358 481.273L977.635 481.267C977.724 481.267 977.813 481.285 977.896 481.319C977.979 481.353 978.054 481.404 978.117 481.467C978.181 481.53 978.231 481.606 978.265 481.688C978.3 481.771 978.317 481.86 978.317 481.95C978.317 482.103 978.257 482.237 978.172 482.351L978.173 482.352L978.172 482.352ZM972 466C962.059 466 954 474.058 954 484C954 493.942 962.059 502 972 502C981.941 502 990 493.941 990 484C990 474.059 981.942 466 972 466Z" fill="url(#paint6_linear_0_1)"/>
    </g>
    <defs>
        <linearGradient id="paint0_linear_0_1" x1="1184.5" y1="-732.068" x2="776.913" y2="1575.38" gradientUnits="userSpaceOnUse">
            <stop stop-color="#E3F2FF"/>
            <stop offset="0.924853" stop-color="#DDF3FF" stop-opacity="1"/>
        </linearGradient>
        <linearGradient id="paint1_linear_0_1" x1="847.399" y1="161.378" x2="1106.36" y2="308.641" gradientUnits="userSpaceOnUse">
            <stop stop-color="#7EAAFF"/>
            <stop offset="1" stop-color="#FF7E7E" stop-opacity="0.63"/>
        </linearGradient>
        <linearGradient id="paint2_linear_0_1" x1="1373" y1="135.5" x2="1283" y2="290.5" gradientUnits="userSpaceOnUse">
            <stop stop-color="#589BFF" stop-opacity="0.55"/>
            <stop offset="1" stop-color="#D1F4FF" stop-opacity="0"/>
        </linearGradient>
        <linearGradient id="paint3_linear_0_1" x1="826.016" y1="71.851" x2="839.751" y2="226.104" gradientUnits="userSpaceOnUse">
            <stop stop-color="#DADCFA"/>
            <stop offset="1" stop-color="#A9D1FF" stop-opacity="0"/>
        </linearGradient>
        <linearGradient id="paint4_linear_0_1" x1="180.565" y1="437.276" x2="198.402" y2="591.858" gradientUnits="userSpaceOnUse">
            <stop stop-color="white"/>
            <stop offset="1" stop-color="white" stop-opacity="0"/>
        </linearGradient>
        <linearGradient id="paint5_linear_0_1" x1="1554.72" y1="128.434" x2="1548.11" y2="224.063" gradientUnits="userSpaceOnUse">
            <stop stop-color="white"/>
            <stop offset="1" stop-color="#1472FF" stop-opacity="0.71"/>
        </linearGradient>
        <linearGradient id="paint6_linear_0_1" x1="1002.24" y1="431.44" x2="971.28" y2="522.16" gradientUnits="userSpaceOnUse">
            <stop stop-color="#2076F8"/>
            <stop offset="1" stop-color="#2076F8" stop-opacity="0"/>
        </linearGradient>
        <clipPath id="clip0_0_1">
            <rect width="36" height="36" fill="white" transform="translate(1516.98 174.231) rotate(-14.8924)"/>
        </clipPath>
    </defs>
</svg>

