<svg width="38" height="38" viewBox="0 0 38 38" fill="none" xmlns="http://www.w3.org/2000/svg">
    <path fill-rule="evenodd" clip-rule="evenodd" d="M25.303 17.9621L16.5618 29.7315L15.2003 29.598L17.3453 21.5809L13.118 21.1731C13.0287 21.1644 12.9421 21.1382 12.863 21.096C12.7839 21.0538 12.7138 20.9964 12.6569 20.9271C12.6 20.8578 12.5573 20.7779 12.5313 20.6921C12.5052 20.6063 12.4963 20.5162 12.5051 20.427C12.521 20.2658 12.6975 20.0075 12.6975 20.0075L21.4125 8.25048L22.7975 8.39234L20.6173 16.4187L24.8743 16.83C24.9636 16.8387 25.0502 16.8649 25.1294 16.9072C25.2085 16.9494 25.2785 17.0068 25.3354 17.0761C25.3923 17.1453 25.435 17.2252 25.4611 17.311C25.4871 17.3968 25.496 17.4869 25.4872 17.5761C25.4723 17.7284 25.3994 17.8563 25.3034 17.9614L25.304 17.962L25.303 17.9621ZM20.7564 1.086C10.8625 0.115939 2.05602 7.34895 1.08588 17.2437C0.115737 27.1384 7.34967 35.9441 17.2436 36.9142C27.1375 37.8843 35.944 30.6504 36.9141 20.7565C37.8841 10.8626 30.6511 2.05614 20.7564 1.086Z" fill="url(#paint0_linear_122_535)"/>
    <defs>
        <linearGradient id="paint0_linear_122_535" x1="54.2244" y1="-30.3583" x2="14.5598" y2="56.9077" gradientUnits="userSpaceOnUse">
            <stop stop-color="white"/>
            <stop offset="1" stop-color="#7BDFFF" stop-opacity="0.71"/>
        </linearGradient>
    </defs>
</svg>
