<svg width="809" height="618" viewBox="0 0 809 618" fill="none" xmlns="http://www.w3.org/2000/svg">
    <mask id="mask0_0_1" style="mask-type:alpha" maskUnits="userSpaceOnUse" x="17" y="6" width="411" height="462">
        <path d="M19.1536 331.192C15.7779 312.788 23.3023 301.956 41.7268 298.696C60.1514 295.435 67.6758 284.603 64.3 266.2C60.9243 247.796 68.4487 236.964 86.8732 233.704C105.298 230.443 112.822 219.611 109.446 201.208C106.071 182.804 113.595 171.972 132.02 168.711C150.444 165.451 157.969 154.619 154.593 136.215C151.217 117.812 158.741 106.98 177.166 103.719C195.591 100.459 203.115 89.6271 199.739 71.2233C196.363 52.8196 203.888 41.9876 222.312 38.7273C240.737 35.467 248.261 24.635 244.886 6.23122" stroke="#4C75F2"/>
        <path d="M29.847 339.183C26.4712 320.78 33.9956 309.948 52.4202 306.687C70.8447 303.427 78.3691 292.595 74.9934 274.191C71.6176 255.788 79.142 244.956 97.5666 241.695C115.991 238.435 123.516 227.603 120.14 209.199C116.764 190.795 124.288 179.963 142.713 176.703C161.138 173.443 168.662 162.611 165.286 144.207C161.91 125.803 169.435 114.971 187.859 111.711C206.284 108.451 213.808 97.6188 210.433 79.215C207.057 60.8113 214.581 49.9793 233.006 46.719C251.43 43.4587 258.955 32.6267 255.579 14.2229" stroke="#4C75F2"/>
        <path d="M40.5423 347.175C37.1666 328.771 44.691 317.939 63.1155 314.679C81.54 311.419 89.0644 300.587 85.6887 282.183C82.313 263.779 89.8374 252.947 108.262 249.687C126.686 246.427 134.211 235.595 130.835 217.191C127.459 198.787 134.984 187.955 153.408 184.695C171.833 181.435 179.357 170.603 175.981 152.199C172.606 133.795 180.13 122.963 198.555 119.703C216.979 116.442 224.504 105.61 221.128 87.2067C217.752 68.803 225.277 57.971 243.701 54.7107C262.126 51.4504 269.65 40.6184 266.274 22.2146" stroke="#4C75F2"/>
        <path d="M51.2361 355.167C47.8604 336.763 55.3848 325.931 73.8093 322.671C92.2339 319.411 99.7583 308.579 96.3825 290.175C93.0068 271.771 100.531 260.939 118.956 257.679C137.38 254.419 144.905 243.587 141.529 225.183C138.153 206.779 145.678 195.947 164.102 192.687C182.527 189.427 190.051 178.595 186.675 160.191C183.3 141.787 190.824 130.955 209.249 127.695C227.673 124.434 235.197 113.602 231.822 95.1987C228.446 76.7949 235.97 65.9629 254.395 62.7026C272.819 59.4423 280.344 48.6103 276.968 30.2066" stroke="#4C75F2"/>
        <path d="M61.931 363.159C58.5552 344.756 66.0796 333.924 84.5042 330.663C102.929 327.403 110.453 316.571 107.077 298.167C103.702 279.763 111.226 268.931 129.651 265.671C148.075 262.411 155.6 251.579 152.224 233.175C148.848 214.771 156.372 203.939 174.797 200.679C193.222 197.419 200.746 186.587 197.37 168.183C193.994 149.779 201.519 138.947 219.943 135.687C238.368 132.427 245.892 121.595 242.517 103.191C239.141 84.7871 246.665 73.9551 265.09 70.6948C283.514 67.4345 291.039 56.6025 287.663 38.1987" stroke="#4C75F2"/>
        <path d="M72.6253 371.151C69.2496 352.747 76.774 341.915 95.1985 338.655C113.623 335.395 121.147 324.563 117.772 306.159C114.396 287.755 121.92 276.923 140.345 273.663C158.769 270.403 166.294 259.571 162.918 241.167C159.542 222.763 167.067 211.931 185.491 208.671C203.916 205.411 211.44 194.579 208.065 176.175C204.689 157.771 212.213 146.939 230.638 143.679C249.062 140.419 256.587 129.587 253.211 111.183C249.835 92.7791 257.36 81.947 275.784 78.6867C294.209 75.4264 301.733 64.5944 298.357 46.1907" stroke="#4C75F2"/>
        <path d="M83.3201 379.143C79.9444 360.739 87.4688 349.907 105.893 346.647C124.318 343.387 131.842 332.555 128.467 314.151C125.091 295.747 132.615 284.915 151.04 281.655C169.464 278.394 176.989 267.562 173.613 249.159C170.237 230.755 177.762 219.923 196.186 216.663C214.611 213.402 222.135 202.57 218.759 184.167C215.384 165.763 222.908 154.931 241.333 151.671C259.757 148.41 267.281 137.578 263.906 119.174C260.53 100.771 268.054 89.9387 286.479 86.6784C304.903 83.4181 312.428 72.5861 309.052 54.1824" stroke="#4C75F2"/>
        <path d="M94.0145 387.135C90.6387 368.731 98.1631 357.899 116.588 354.639C135.012 351.379 142.537 340.547 139.161 322.143C135.785 303.739 143.31 292.907 161.734 289.647C180.159 286.387 187.683 275.555 184.307 257.151C180.932 238.747 188.456 227.915 206.88 224.655C225.305 221.395 232.829 210.563 229.454 192.159C226.078 173.755 233.602 162.923 252.027 159.663C270.451 156.402 277.976 145.57 274.6 127.167C271.224 108.763 278.749 97.9309 297.173 94.6706C315.598 91.4103 323.122 80.5783 319.746 62.1746" stroke="#4C75F2"/>
        <path d="M104.709 395.127C101.333 376.723 108.857 365.891 127.282 362.631C145.707 359.37 153.231 348.538 149.855 330.135C146.479 311.731 154.004 300.899 172.428 297.639C190.853 294.378 198.377 283.546 195.002 265.143C191.626 246.739 199.15 235.907 217.575 232.647C235.999 229.386 243.524 218.554 240.148 200.15C236.772 181.747 244.297 170.915 262.721 167.654C281.146 164.394 288.67 153.562 285.294 135.158C281.919 116.755 289.443 105.923 307.868 102.662C326.292 99.402 333.817 88.57 330.441 70.1663" stroke="#4C75F2"/>
        <path d="M115.404 403.119C112.028 384.715 119.552 373.883 137.977 370.623C156.401 367.363 163.926 356.531 160.55 338.127C157.174 319.723 164.699 308.891 183.123 305.631C201.548 302.371 209.072 291.539 205.696 273.135C202.321 254.731 209.845 243.899 228.27 240.639C246.694 237.379 254.219 226.547 250.843 208.143C247.467 189.739 254.991 178.907 273.416 175.647C291.841 172.387 299.365 161.555 295.989 143.151C292.613 124.747 300.138 113.915 318.562 110.655C336.987 107.394 344.511 96.5624 341.136 78.1587" stroke="#4C75F2"/>
        <path d="M126.098 411.111C122.722 392.707 130.247 381.875 148.671 378.615C167.096 375.355 174.62 364.523 171.244 346.119C167.869 327.715 175.393 316.883 193.818 313.623C212.242 310.363 219.767 299.531 216.391 281.127C213.015 262.723 220.539 251.891 238.964 248.631C257.389 245.371 264.913 234.539 261.537 216.135C258.161 197.731 265.686 186.899 284.11 183.639C302.535 180.379 310.059 169.546 306.684 151.143C303.308 132.739 310.832 121.907 329.257 118.647C347.681 115.386 355.206 104.554 351.83 86.1506" stroke="#4C75F2"/>
        <path d="M136.792 419.103C133.416 400.699 140.94 389.867 159.365 386.607C177.79 383.346 185.314 372.514 181.938 354.111C178.562 335.707 186.087 324.875 204.511 321.614C222.936 318.354 230.46 307.522 227.085 289.118C223.709 270.715 231.233 259.883 249.658 256.622C268.082 253.362 275.607 242.53 272.231 224.126C268.855 205.723 276.38 194.891 294.804 191.63C313.229 188.37 320.753 177.538 317.377 159.134C314.002 140.73 321.526 129.898 339.951 126.638C358.375 123.378 365.9 112.546 362.524 94.1421" stroke="#4C75F2"/>
        <path d="M147.487 427.095C144.111 408.691 151.635 397.859 170.06 394.599C188.484 391.338 196.009 380.506 192.633 362.102C189.257 343.699 196.782 332.867 215.206 329.606C233.631 326.346 241.155 315.514 237.779 297.11C234.404 278.707 241.928 267.875 260.353 264.614C278.777 261.354 286.302 250.522 282.926 232.118C279.55 213.715 287.074 202.882 305.499 199.622C323.924 196.362 331.448 185.53 328.072 167.126C324.696 148.722 332.221 137.89 350.645 134.63C369.07 131.37 376.594 120.538 373.219 102.134" stroke="#4C75F2"/>
        <path d="M158.181 435.086C154.805 416.683 162.33 405.851 180.754 402.59C199.179 399.33 206.703 388.498 203.327 370.094C199.952 351.69 207.476 340.858 225.901 337.598C244.325 334.338 251.85 323.506 248.474 305.102C245.098 286.698 252.622 275.866 271.047 272.606C289.472 269.346 296.996 258.514 293.62 240.11C290.244 221.706 297.769 210.874 316.193 207.614C334.618 204.354 342.142 193.522 338.767 175.118C335.391 156.714 342.915 145.882 361.34 142.622C379.764 139.362 387.289 128.529 383.913 110.126" stroke="#4C75F2"/>
        <path d="M168.875 443.078C165.5 424.674 173.024 413.842 191.449 410.582C209.873 407.322 217.397 396.49 214.022 378.086C210.646 359.682 218.17 348.85 236.595 345.59C255.019 342.33 262.544 331.498 259.168 313.094C255.792 294.69 263.317 283.858 281.741 280.598C300.166 277.338 307.69 266.506 304.315 248.102C300.939 229.698 308.463 218.866 326.888 215.606C345.312 212.346 352.837 201.514 349.461 183.11C346.085 164.706 353.61 153.874 372.034 150.614C390.459 147.353 397.983 136.521 394.607 118.118" stroke="#4C75F2"/>
        <path d="M179.57 451.07C176.194 432.667 183.719 421.835 202.143 418.574C220.568 415.314 228.092 404.482 224.717 386.078C221.341 367.675 228.865 356.843 247.29 353.582C265.714 350.322 273.239 339.49 269.863 321.086C266.487 302.682 274.012 291.85 292.436 288.59C310.861 285.33 318.385 274.498 315.009 256.094C311.634 237.69 319.158 226.858 337.583 223.598C356.007 220.338 363.531 209.506 360.156 191.102C356.78 172.698 364.304 161.866 382.729 158.606C401.153 155.346 408.678 144.514 405.302 126.11" stroke="#4C75F2"/>
        <path d="M190.264 459.062C186.889 440.658 194.413 429.826 212.838 426.566C231.262 423.306 238.787 412.474 235.411 394.07C232.035 375.666 239.56 364.834 257.984 361.574C276.409 358.314 283.933 347.482 280.557 329.078C277.182 310.674 284.706 299.842 303.13 296.582C321.555 293.322 329.079 282.49 325.704 264.086C322.328 245.682 329.852 234.85 348.277 231.59C366.701 228.329 374.226 217.497 370.85 199.094C367.474 180.69 374.999 169.858 393.423 166.598C411.848 163.337 419.372 152.505 415.996 134.102" stroke="#4C75F2"/>
        <path d="M200.959 467.055C197.584 448.651 205.108 437.819 223.532 434.558C241.957 431.298 249.481 420.466 246.106 402.062C242.73 383.659 250.254 372.827 268.679 369.566C287.103 366.306 294.628 355.474 291.252 337.07C287.876 318.667 295.401 307.835 313.825 304.574C332.25 301.314 339.774 290.482 336.398 272.078C333.023 253.674 340.547 242.842 358.972 239.582C377.396 236.322 384.921 225.49 381.545 207.086C378.169 188.682 385.694 177.85 404.118 174.59C422.543 171.33 430.067 160.498 426.691 142.094" stroke="#4C75F2"/>
    </mask>
    <g mask="url(#mask0_0_1)">
        <path fill-rule="evenodd" clip-rule="evenodd" d="M284.219 283.511C275.309 307.488 266.683 335.811 242.611 344.485C218.101 353.316 193.303 336.447 170.068 324.641C146.24 312.534 117.71 302.294 109.523 276.861C101.29 251.285 112.715 222.259 130.682 202.292C145.757 185.54 171.763 191.232 193.106 183.978C215.782 176.271 235.354 150.28 257.607 159.156C280.073 168.118 283.105 198.252 288.165 221.895C292.642 242.82 291.67 263.458 284.219 283.511Z" fill="url(#paint0_linear_0_1)"/>
    </g>
    <circle opacity="0.41" cx="459.5" cy="209.5" r="40" stroke="url(#paint1_linear_0_1)" stroke-width="27"/>
    <path d="M763.412 532.593V602.087L756.467 606.264L749.516 602.065V532.646L731.519 543.55V602.98L756.467 618L781.625 602.873V543.512L763.412 532.593ZM756.467 496L704 527.278V586.716L717.627 594.615V535.172L756.477 511.927L795.364 535.138L795.525 535.228L795.507 594.526L809 586.716V527.278L756.467 496Z" fill="url(#paint2_linear_0_1)"/>
    <defs>
        <linearGradient id="paint0_linear_0_1" x1="-12.6007" y1="161.378" x2="246.357" y2="308.64" gradientUnits="userSpaceOnUse">
            <stop stop-color="#7EAAFF"/>
            <stop offset="1" stop-color="#FF7E7E" stop-opacity="0.63"/>
        </linearGradient>
        <linearGradient id="paint1_linear_0_1" x1="513" y1="135.5" x2="423" y2="290.5" gradientUnits="userSpaceOnUse">
            <stop stop-color="#589BFF" stop-opacity="0.55"/>
            <stop offset="1" stop-color="#D1F4FF" stop-opacity="0"/>
        </linearGradient>
        <linearGradient id="paint2_linear_0_1" x1="809" y1="486.5" x2="632.5" y2="782.5" gradientUnits="userSpaceOnUse">
            <stop stop-color="white"/>
            <stop offset="1" stop-color="white" stop-opacity="0"/>
        </linearGradient>
    </defs>
</svg>
