<svg width="247" height="155" viewBox="0 0 247 155" fill="none" xmlns="http://www.w3.org/2000/svg">
    <circle opacity="0.41" cx="151.5" cy="101.5" r="40" stroke="url(#paint0_linear_0_1)" stroke-width="27"/>
    <mask id="mask0_0_1" style="mask-type:alpha" maskUnits="userSpaceOnUse" x="0" y="3" width="215" height="146">
        <path d="M1.17301 28.8497C7.15627 21.2385 13.9347 20.4483 21.5082 26.4792C29.0817 32.51 35.8601 31.7199 41.8433 24.1087C47.8266 16.4975 54.605 15.7074 62.1785 21.7382C69.752 27.7691 76.5304 26.9789 82.5137 19.3677C88.4969 11.7566 95.2753 10.9664 102.849 16.9973C110.422 23.0281 117.201 22.238 123.184 14.6268C129.167 7.0156 135.946 6.22544 143.519 12.2563C151.093 18.2872 157.871 17.497 163.854 9.88582C169.838 2.27464 176.616 1.48448 184.19 7.51534C191.763 13.5462 198.541 12.756 204.525 5.14486" stroke="#4C75F2"/>
        <path d="M1.73453 35.7344C7.71779 28.1232 14.4962 27.3331 22.0697 33.3639C29.6432 39.3948 36.4216 38.6046 42.4049 30.9935C48.3881 23.3823 55.1665 22.5921 62.74 28.623C70.3136 34.6538 77.092 33.8637 83.0752 26.2525C89.0585 18.6413 95.8369 17.8512 103.41 23.882C110.984 29.9129 117.762 29.1227 123.746 21.5115C129.729 13.9004 136.507 13.1102 144.081 19.1411C151.654 25.1719 158.433 24.3818 164.416 16.7706C170.399 9.15941 177.178 8.36925 184.751 14.4001C192.325 20.431 199.103 19.6408 205.086 12.0296" stroke="#4C75F2"/>
        <path d="M2.29654 42.6197C8.2798 35.0085 15.0582 34.2183 22.6317 40.2492C30.2052 46.2801 36.9836 45.4899 42.9669 37.8787C48.9501 30.2675 55.7285 29.4774 63.3021 35.5082C70.8756 41.5391 77.654 40.7489 83.6372 33.1378C89.6205 25.5266 96.3989 24.7364 103.972 30.7673C111.546 36.7981 118.324 36.008 124.308 28.3968C130.291 20.7856 137.069 19.9955 144.643 26.0263C152.216 32.0572 158.995 31.267 164.978 23.6558C170.961 16.0447 177.74 15.2545 185.313 21.2854C192.887 27.3162 199.665 26.5261 205.648 18.9149" stroke="#4C75F2"/>
        <path d="M2.85807 49.5047C8.84133 41.8935 15.6197 41.1033 23.1932 47.1342C30.7668 53.1651 37.5451 52.3749 43.5284 44.7637C49.5117 37.1525 56.2901 36.3624 63.8636 42.3932C71.4371 48.4241 78.2155 47.6339 84.1987 40.0228C90.182 32.4116 96.9604 31.6214 104.534 37.6523C112.107 43.6832 118.886 42.893 124.869 35.2818C130.852 27.6706 137.631 26.8805 145.204 32.9113C152.778 38.9422 159.556 38.152 165.539 30.5409C171.523 22.9297 178.301 22.1395 185.875 28.1704C193.448 34.2012 200.227 33.4111 206.21 25.7999" stroke="#4C75F2"/>
        <path d="M3.42008 56.3899C9.40334 48.7788 16.1817 47.9886 23.7552 54.0195C31.3288 60.0503 38.1072 59.2602 44.0904 51.649C50.0737 44.0378 56.8521 43.2476 64.4256 49.2785C71.9991 55.3094 78.7775 54.5192 84.7608 46.908C90.744 39.2968 97.5224 38.5067 105.096 44.5375C112.669 50.5684 119.448 49.7782 125.431 42.1671C131.414 34.5559 138.193 33.7657 145.766 39.7966C153.34 45.8274 160.118 45.0373 166.101 37.4261C172.085 29.8149 178.863 29.0248 186.437 35.0556C194.01 41.0865 200.789 40.2963 206.772 32.6851" stroke="#4C75F2"/>
        <path d="M3.9816 63.2752C9.96486 55.664 16.7433 54.8738 24.3168 60.9047C31.8903 66.9356 38.6687 66.1454 44.6519 58.5342C50.6352 50.9231 57.4136 50.1329 64.9871 56.1638C72.5606 62.1946 79.339 61.4045 85.3223 53.7933C91.3055 46.1821 98.0839 45.3919 105.657 51.4228C113.231 57.4537 120.009 56.6635 125.993 49.0523C131.976 41.4411 138.754 40.651 146.328 46.6818C153.901 52.7127 160.68 51.9225 166.663 44.3114C172.646 36.7002 179.425 35.91 186.998 41.9409C194.572 47.9717 201.35 47.1816 207.333 39.5704" stroke="#4C75F2"/>
        <path d="M4.54361 70.1602C10.5269 62.549 17.3053 61.7589 24.8788 67.7897C32.4523 73.8206 39.2307 73.0304 45.214 65.4192C51.1972 57.8081 57.9756 57.0179 65.5491 63.0488C73.1226 69.0796 79.901 68.2895 85.8843 60.6783C91.8676 53.0671 98.6459 52.2769 106.219 58.3078C113.793 64.3387 120.571 63.5485 126.555 55.9373C132.538 48.3261 139.316 47.536 146.89 53.5668C154.463 59.5977 161.242 58.8076 167.225 51.1964C173.208 43.5852 179.987 42.795 187.56 48.8259C195.134 54.8568 201.912 54.0666 207.895 46.4554" stroke="#4C75F2"/>
        <path d="M5.10514 77.0455C11.0884 69.4343 17.8668 68.6441 25.4403 74.675C33.0138 80.7058 39.7922 79.9157 45.7755 72.3045C51.7587 64.6933 58.5371 63.9032 66.1106 69.934C73.6842 75.9649 80.4626 75.1747 86.4458 67.5635C92.4291 59.9524 99.2075 59.1622 106.781 65.1931C114.355 71.2239 121.133 70.4338 127.116 62.8226C133.099 55.2114 139.878 54.4212 147.451 60.4521C155.025 66.483 161.803 65.6928 167.786 58.0816C173.77 50.4704 180.548 49.6803 188.122 55.7111C195.695 61.742 202.474 60.9518 208.457 53.3407" stroke="#4C75F2"/>
        <path d="M5.66666 83.9305C11.6499 76.3193 18.4283 75.5291 26.0018 81.56C33.5753 87.5908 40.3537 86.8007 46.337 79.1895C52.3203 71.5783 59.0987 70.7882 66.6722 76.819C74.2457 82.8499 81.0241 82.0597 87.0073 74.4485C92.9906 66.8374 99.769 66.0472 107.343 72.0781C114.916 78.1089 121.694 77.3188 127.678 69.7076C133.661 62.0964 140.439 61.3062 148.013 67.3371C155.586 73.368 162.365 72.5778 168.348 64.9666C174.331 57.3555 181.11 56.5653 188.683 62.5962C196.257 68.627 203.035 67.8369 209.018 60.2257" stroke="#4C75F2"/>
        <path d="M6.22867 90.816C12.2119 83.2048 18.9903 82.4146 26.5638 88.4455C34.1374 94.4763 40.9158 93.6862 46.899 86.075C52.8823 78.4638 59.6607 77.6737 67.2342 83.7045C74.8077 89.7354 81.5861 88.9452 87.5694 81.334C93.5526 73.7229 100.331 72.9327 107.905 78.9636C115.478 84.9944 122.256 84.2043 128.24 76.5931C134.223 68.9819 141.001 68.1917 148.575 74.2226C156.148 80.2535 162.927 79.4633 168.91 71.8521C174.893 64.2409 181.672 63.4508 189.245 69.4817C196.819 75.5125 203.597 74.7224 209.58 67.1112" stroke="#4C75F2"/>
        <path d="M6.79019 97.701C12.7735 90.0898 19.5518 89.2996 27.1254 95.3305C34.6989 101.361 41.4773 100.571 47.4605 92.96C53.4438 85.3488 60.2222 84.5587 67.7957 90.5895C75.3692 96.6204 82.1476 95.8302 88.1309 88.2191C94.1141 80.6079 100.893 79.8177 108.466 85.8486C116.04 91.8794 122.818 91.0893 128.801 83.4781C134.784 75.8669 141.563 75.0768 149.136 81.1076C156.71 87.1385 163.488 86.3483 169.472 78.7371C175.455 71.126 182.233 70.3358 189.807 76.3667C197.38 82.3975 204.159 81.6074 210.142 73.9962" stroke="#4C75F2"/>
        <path d="M7.35172 104.586C13.335 96.9746 20.1134 96.1844 27.6869 102.215C35.2604 108.246 42.0388 107.456 48.0221 99.8448C54.0053 92.2336 60.7837 91.4434 68.3572 97.4743C75.9307 103.505 82.7091 102.715 88.6924 95.1038C94.6757 87.4926 101.454 86.7025 109.028 92.7333C116.601 98.7642 123.379 97.974 129.363 90.3629C135.346 82.7517 142.124 81.9615 149.698 87.9924C157.271 94.0232 164.05 93.2331 170.033 85.6219C176.016 78.0107 182.795 77.2206 190.368 83.2514C197.942 89.2823 204.72 88.4921 210.703 80.8809" stroke="#4C75F2"/>
        <path d="M7.91373 111.471C13.897 103.86 20.6754 103.07 28.2489 109.101C35.8224 115.131 42.6008 114.341 48.5841 106.73C54.5673 99.1189 61.3457 98.3287 68.9192 104.36C76.4928 110.39 83.2711 109.6 89.2544 101.989C95.2377 94.3779 102.016 93.5877 109.59 99.6186C117.163 105.649 123.941 104.859 129.925 97.2481C135.908 89.6369 142.686 88.8468 150.26 94.8776C157.833 100.909 164.612 100.118 170.595 92.5072C176.578 84.896 183.357 84.1058 190.93 90.1367C198.504 96.1675 205.282 95.3774 211.265 87.7662" stroke="#4C75F2"/>
        <path d="M8.47525 118.356C14.4585 110.745 21.2369 109.955 28.8104 115.986C36.3839 122.016 43.1623 121.226 49.1456 113.615C55.1289 106.004 61.9072 105.214 69.4808 111.245C77.0543 117.275 83.8327 116.485 89.8159 108.874C95.7992 101.263 102.578 100.473 110.151 106.504C117.725 112.534 124.503 111.744 130.486 104.133C136.47 96.5219 143.248 95.7318 150.821 101.763C158.395 107.794 165.173 107.003 171.157 99.3922C177.14 91.781 183.918 90.9908 191.492 97.0217C199.065 103.053 205.844 102.262 211.827 94.6512" stroke="#4C75F2"/>
        <path d="M9.03678 125.241C15.02 117.63 21.7984 116.84 29.3719 122.871C36.9455 128.901 43.7239 128.111 49.7071 120.5C55.6904 112.889 62.4688 112.099 70.0423 118.13C77.6158 124.16 84.3942 123.37 90.3775 115.759C96.3607 108.148 103.139 107.358 110.713 113.389C118.286 119.419 125.065 118.629 131.048 111.018C137.031 103.407 143.809 102.617 151.383 108.648C158.956 114.679 165.735 113.888 171.718 106.277C177.701 98.666 184.48 97.8758 192.053 103.907C199.627 109.938 206.405 109.147 212.388 101.536" stroke="#4C75F2"/>
        <path d="M9.59879 132.126C15.582 124.515 22.3604 123.725 29.934 129.756C37.5075 135.787 44.2859 134.996 50.2691 127.385C56.2524 119.774 63.0308 118.984 70.6043 125.015C78.1778 131.046 84.9562 130.256 90.9395 122.644C96.9227 115.033 103.701 114.243 111.275 120.274C118.848 126.305 125.627 125.515 131.61 117.903C137.593 110.292 144.371 109.502 151.945 115.533C159.518 121.564 166.297 120.774 172.28 113.162C178.263 105.551 185.042 104.761 192.615 110.792C200.189 116.823 206.967 116.033 212.95 108.421" stroke="#4C75F2"/>
        <path d="M10.1603 139.011C16.1436 131.4 22.922 130.61 30.4955 136.641C38.069 142.672 44.8474 141.881 50.8307 134.27C56.8139 126.659 63.5923 125.869 71.1658 131.9C78.7393 137.931 85.5177 137.141 91.501 129.529C97.4843 121.918 104.263 121.128 111.836 127.159C119.41 133.19 126.188 132.4 132.171 124.788C138.155 117.177 144.933 116.387 152.507 122.418C160.08 128.449 166.858 127.659 172.842 120.047C178.825 112.436 185.603 111.646 193.177 117.677C200.75 123.708 207.529 122.918 213.512 115.306" stroke="#4C75F2"/>
        <path d="M10.7218 145.897C16.7051 138.286 23.4835 137.495 31.057 143.526C38.6305 149.557 45.4089 148.767 51.3922 141.156C57.3754 133.545 64.1538 132.754 71.7273 138.785C79.3009 144.816 86.0793 144.026 92.0625 136.415C98.0458 128.804 104.824 128.014 112.398 134.044C119.971 140.075 126.75 139.285 132.733 131.674C138.716 124.063 145.495 123.273 153.068 129.303C160.642 135.334 167.42 134.544 173.403 126.933C179.386 119.322 186.165 118.532 193.738 124.562C201.312 130.593 208.09 129.803 214.074 122.192" stroke="#4C75F2"/>
    </mask>
    <g mask="url(#mask0_0_1)">
        <path fill-rule="evenodd" clip-rule="evenodd" d="M110.938 124.739C98.5861 129.493 84.6456 135.846 73.0384 129.477C61.2199 122.994 59.2724 107.598 55.8962 94.5419C52.4339 81.1531 46.6371 66.5792 53.6997 54.6947C60.8019 42.7434 75.9742 37.2366 89.8716 37.3697C101.532 37.4814 108.229 49.5182 118.351 55.3139C129.105 61.4714 145.889 60.164 150.065 71.8357C154.282 83.6193 143.63 95.1139 136.191 105.172C129.607 114.074 121.269 120.764 110.938 124.739Z" fill="url(#paint1_linear_0_1)"/>
    </g>
    <path opacity="0.68" fill-rule="evenodd" clip-rule="evenodd" d="M241.086 83.1762L237.31 89.4593H236.626L237.302 85.3652L235.179 85.3685C235.134 85.3686 235.09 85.3597 235.048 85.3426C235.007 85.3255 234.969 85.3003 234.938 85.2686C234.906 85.2369 234.881 85.1993 234.864 85.1578C234.846 85.1164 234.838 85.072 234.838 85.0272C234.838 84.9462 234.913 84.809 234.913 84.809L238.676 78.5334L239.372 78.5364L238.679 82.6368L240.817 82.6338C240.862 82.6338 240.907 82.6426 240.948 82.6597C240.989 82.6769 241.027 82.702 241.059 82.7337C241.09 82.7654 241.116 82.8031 241.133 82.8445C241.15 82.8859 241.159 82.9303 241.159 82.9752C241.159 83.0517 241.129 83.1189 241.086 83.1758L241.086 83.1761L241.086 83.1762ZM238 75.0002C233.029 75.0002 229 79.0292 229 84.0002C229 88.9713 233.029 93.0002 238 93.0002C242.971 93.0002 247 88.9709 247 84.0002C247 79.0296 242.971 75.0002 238 75.0002Z" fill="url(#paint2_linear_0_1)"/>
    <defs>
        <linearGradient id="paint0_linear_0_1" x1="205" y1="27.5002" x2="115" y2="182.5" gradientUnits="userSpaceOnUse">
            <stop stop-color="#589BFF" stop-opacity="0.55"/>
            <stop offset="1" stop-color="#D1F4FF" stop-opacity="0"/>
        </linearGradient>
        <linearGradient id="paint1_linear_0_1" x1="56.6812" y1="-32.2221" x2="88.2258" y2="118.657" gradientUnits="userSpaceOnUse">
            <stop stop-color="#7EAAFF"/>
            <stop offset="1" stop-color="#FF7E7E" stop-opacity="0.63"/>
        </linearGradient>
        <linearGradient id="paint2_linear_0_1" x1="253.12" y1="57.7202" x2="237.64" y2="103.08" gradientUnits="userSpaceOnUse">
            <stop stop-color="#2076F8"/>
            <stop offset="1" stop-color="#2076F8" stop-opacity="0"/>
        </linearGradient>
    </defs>
</svg>
