<svg width="1888" height="899" viewBox="0 0 1888 899" fill="none" xmlns="http://www.w3.org/2000/svg">
    <path d="M1805.72 627.43L1703.72 689.512C1699.55 692.053 1697 696.585 1697 701.471V820.449C1697 825.266 1699.48 829.745 1703.56 832.306L1805.56 896.328C1810.11 899.185 1815.89 899.185 1820.44 896.328L1922.44 832.306C1926.52 829.745 1929 825.266 1929 820.449V701.471C1929 696.585 1926.45 692.053 1922.28 689.512L1820.28 627.43C1815.81 624.709 1810.19 624.709 1805.72 627.43Z" stroke="#F0F0FF"/>
    <path d="M193.94 1.19729L74.5645 3.96196C69.6797 4.07509 65.2073 6.72674 62.7643 10.9582L3.27573 113.995C0.866974 118.168 0.772504 123.285 3.02564 127.543L59.3491 233.988C61.862 238.737 66.8711 241.629 72.2403 241.431L192.586 236.986C197.4 236.808 201.785 234.168 204.194 229.995L263.682 126.958C266.125 122.727 266.185 117.528 263.841 113.241L206.547 8.47613C204.036 3.88391 199.173 1.0761 193.94 1.19729Z" stroke="#F0F0FF"/>
    <path d="M1683.79 614.181L1641.79 639.822C1638.81 641.638 1637 644.872 1637 648.357V697.741C1637 701.177 1638.76 704.373 1641.67 706.203L1683.67 732.646C1686.93 734.696 1691.07 734.696 1694.33 732.646L1736.33 706.203C1739.24 704.373 1741 701.177 1741 697.741V648.357C1741 644.872 1739.19 641.638 1736.21 639.822L1694.21 614.181C1691.01 612.228 1686.99 612.228 1683.79 614.181Z" stroke="#CFCEF3" stroke-opacity="0.5"/>
    <path d="M1683.79 82.1811L1641.79 107.822C1638.81 109.638 1637 112.872 1637 116.357V165.741C1637 169.177 1638.76 172.373 1641.67 174.203L1683.67 200.646C1686.93 202.696 1691.07 202.696 1694.33 200.646L1736.33 174.203C1739.24 172.373 1741 169.177 1741 165.741V116.357C1741 112.872 1739.19 109.638 1736.21 107.822L1694.21 82.1811C1691.01 80.228 1686.99 80.228 1683.79 82.1811Z" stroke="#CFCEF3" stroke-opacity="0.5"/>
    <path d="M1809.35 460.235L1794.35 469.413C1792.27 470.685 1791 472.946 1791 475.384V493.259C1791 495.662 1792.23 497.897 1794.26 499.179L1809.26 508.643C1811.55 510.083 1814.45 510.083 1816.74 508.643L1831.74 499.179C1833.77 497.897 1835 495.662 1835 493.259V475.384C1835 472.946 1833.73 470.685 1831.65 469.413L1816.65 460.235C1814.41 458.863 1811.59 458.863 1809.35 460.235Z" stroke="#CFCEF3" stroke-opacity="0.5"/>
    <path d="M1737.35 153.235L1722.35 162.413C1720.27 163.685 1719 165.946 1719 168.384V186.259C1719 188.662 1720.23 190.897 1722.26 192.179L1737.26 201.643C1739.55 203.083 1742.45 203.083 1744.74 201.643L1759.74 192.179C1761.77 190.897 1763 188.662 1763 186.259V168.384C1763 165.946 1761.73 163.685 1759.65 162.413L1744.65 153.235C1742.41 151.863 1739.59 151.863 1737.35 153.235Z" stroke="#CFCEF3" stroke-opacity="0.5"/>
    <path d="M223.895 168.877L208.895 177.948C207.098 179.034 206 180.982 206 183.082V200.575C206 202.646 207.068 204.571 208.825 205.667L223.825 215.02C225.768 216.232 228.232 216.232 230.175 215.02L245.175 205.667C246.932 204.571 248 202.646 248 200.575V183.082C248 180.982 246.902 179.034 245.105 177.948L230.105 168.877C228.196 167.723 225.804 167.723 223.895 168.877Z" stroke="#CFCEF3"/>
</svg>
