<svg width="356" height="292" viewBox="0 0 356 292" fill="none" xmlns="http://www.w3.org/2000/svg">
    <path d="M425.692 1.27566L352.947 2.96039C348.062 3.07352 343.589 5.72517 341.146 9.95664L304.772 72.9596C302.363 77.1317 302.268 82.2492 304.522 86.5074L338.844 151.373C341.357 156.122 346.366 159.014 351.735 158.815L425.071 156.107C429.886 155.929 434.27 153.288 436.679 149.116L473.054 86.1134C475.497 81.8819 475.557 76.6829 473.213 72.396L438.299 8.5545C435.788 3.96227 430.924 1.15447 425.692 1.27566Z" stroke="#F0F0FF"/>
    <path d="M18.0282 220.083L2.55118 248.384C1.04406 251.14 1.08276 254.482 2.65329 257.202L18.8413 285.241C20.3898 287.923 23.2085 289.62 26.3033 289.734L58.813 290.935C62.2646 291.063 65.4848 289.203 67.1002 286.151L82.3152 257.396C83.7636 254.659 83.7029 251.369 82.1544 248.687L65.9664 220.648C64.3959 217.928 61.5208 216.223 58.3806 216.151L26.1329 215.404C22.7691 215.326 19.6427 217.131 18.0282 220.083Z" stroke="#F0F0FF"/>
    <path d="M213.237 180.686L225.874 172.995C227.365 172.087 228.274 170.469 228.274 168.724L228.274 153.835C228.274 152.115 227.39 150.515 225.933 149.6L213.295 141.669C211.67 140.648 209.604 140.648 207.979 141.669L195.342 149.6C193.885 150.515 193 152.115 193 153.835L193 168.724C193 170.469 193.91 172.087 195.4 172.995L208.038 180.686C209.634 181.658 211.64 181.658 213.237 180.686Z" stroke="#F0F0FF"/>
    <path d="M275 287L287 279.635L287 265.595L275 258L263 265.595L263 279.635L275 287Z" stroke="#F0F0FF"/>
</svg>
