<svg width="665" height="330" viewBox="0 0 665 330" fill="none" xmlns="http://www.w3.org/2000/svg">
    <rect opacity="0.13" x="36.4746" width="51.5832" height="51.5832" rx="2" transform="rotate(45 36.4746 0)" fill="url(#paint0_linear_0_1)"/>
    <rect opacity="0.12" x="248.051" y="78" width="22.6989" height="22.6989" rx="2" transform="rotate(45 248.051 78)" fill="url(#paint1_linear_0_1)"/>
    <mask id="mask0_0_1" style="mask-type:alpha" maskUnits="userSpaceOnUse" x="537" y="203" width="112" height="103">
        <path d="M616.208 203.637L570.553 204.773C567.07 204.859 563.883 206.752 562.141 209.77L539.187 249.528C537.469 252.503 537.399 256.151 539 259.19L560.472 299.94C562.267 303.347 565.858 305.42 569.706 305.271L615.733 303.491C619.165 303.359 622.289 301.473 624.006 298.499L646.961 258.74C648.703 255.723 648.749 252.017 647.083 248.957L625.239 208.851C623.444 205.557 619.958 203.544 616.208 203.637Z" fill="#C4C4C4"/>
    </mask>
    <g mask="url(#mask0_0_1)">
        <path d="M574.746 372.691C566.029 368.728 563.68 362.401 567.697 353.71C571.714 345.018 569.364 338.691 560.648 334.729C551.931 330.766 549.582 324.439 553.599 315.748C557.616 307.057 555.266 300.73 546.55 296.767C537.833 292.805 535.484 286.478 539.501 277.786C543.518 269.095 541.168 262.768 532.452 258.805C523.735 254.843 521.386 248.516 525.403 239.824C529.42 231.133 527.07 224.806 518.354 220.844C509.637 216.881 507.288 210.554 511.305 201.863C515.322 193.171 512.972 186.844 504.256 182.882" stroke="#404C69"/>
        <path d="M581.229 370.535C572.513 366.573 570.163 360.246 574.18 351.554C578.197 342.863 575.848 336.536 567.131 332.574C558.415 328.611 556.065 322.284 560.082 313.593C564.099 304.901 561.75 298.574 553.033 294.612C544.317 290.649 541.967 284.322 545.984 275.631C550.001 266.939 547.652 260.613 538.935 256.65C530.219 252.688 527.869 246.361 531.886 237.669C535.903 228.978 533.553 222.651 524.837 218.688C516.121 214.726 513.771 208.399 517.788 199.707C521.805 191.016 519.455 184.689 510.739 180.727" stroke="#404C69"/>
        <path d="M587.713 368.38C578.996 364.417 576.646 358.091 580.664 349.399C584.681 340.708 582.331 334.381 573.615 330.418C564.898 326.456 562.548 320.129 566.566 311.437C570.583 302.746 568.233 296.419 559.517 292.456C550.8 288.494 548.45 282.167 552.467 273.476C556.485 264.784 554.135 258.457 545.418 254.495C536.702 250.532 534.352 244.205 538.369 235.514C542.387 226.822 540.037 220.496 531.32 216.533C522.604 212.57 520.254 206.244 524.271 197.552C528.289 188.861 525.939 182.534 517.222 178.571" stroke="#404C69"/>
        <path d="M594.195 366.225C585.479 362.262 583.129 355.935 587.146 347.244C591.163 338.552 588.813 332.225 580.097 328.263C571.381 324.3 569.031 317.973 573.048 309.282C577.065 300.591 574.715 294.264 565.999 290.301C557.283 286.339 554.933 280.012 558.95 271.32C562.967 262.629 560.617 256.302 551.901 252.339C543.184 248.377 540.835 242.05 544.852 233.359C548.869 224.667 546.519 218.34 537.803 214.378C529.086 210.415 526.737 204.088 530.754 195.397C534.771 186.705 532.421 180.378 523.705 176.416" stroke="#404C69"/>
        <path d="M600.678 364.069C591.962 360.107 589.612 353.78 593.629 345.089C597.646 336.397 595.297 330.07 586.58 326.108C577.864 322.145 575.514 315.818 579.531 307.127C583.548 298.435 581.199 292.108 572.482 288.146C563.766 284.183 561.416 277.856 565.433 269.165C569.45 260.474 567.101 254.147 558.384 250.184C549.668 246.222 547.318 239.895 551.335 231.203C555.352 222.512 553.003 216.185 544.286 212.222C535.57 208.26 533.22 201.933 537.237 193.242C541.254 184.55 538.905 178.223 530.188 174.261" stroke="#404C69"/>
        <path d="M607.162 361.914C598.445 357.952 596.096 351.625 600.113 342.934C604.13 334.242 601.78 327.915 593.064 323.953C584.347 319.99 581.998 313.663 586.015 304.972C590.032 296.28 587.682 289.953 578.966 285.991C570.249 282.028 567.9 275.701 571.917 267.01C575.934 258.319 573.584 251.992 564.868 248.029C556.151 244.067 553.802 237.74 557.819 229.048C561.836 220.357 559.486 214.03 550.77 210.067C542.053 206.105 539.704 199.778 543.721 191.087C547.738 182.395 545.388 176.068 536.672 172.106" stroke="#404C69"/>
        <path d="M613.644 359.759C604.928 355.797 602.578 349.47 606.595 340.778C610.612 332.087 608.263 325.76 599.546 321.797C590.83 317.835 588.48 311.508 592.497 302.817C596.514 294.125 594.165 287.798 585.448 283.836C576.732 279.873 574.382 273.546 578.399 264.855C582.416 256.163 580.067 249.836 571.35 245.874C562.634 241.911 560.284 235.584 564.301 226.893C568.318 218.202 565.969 211.875 557.252 207.912C548.536 203.95 546.186 197.623 550.203 188.931C554.22 180.24 551.87 173.913 543.154 169.95" stroke="#404C69"/>
        <path d="M620.128 357.604C611.411 353.641 609.062 347.314 613.079 338.623C617.096 329.932 614.746 323.605 606.03 319.642C597.313 315.68 594.963 309.353 598.981 300.661C602.998 291.97 600.648 285.643 591.932 281.68C583.215 277.718 580.865 271.391 584.883 262.699C588.9 254.008 586.55 247.681 577.834 243.719C569.117 239.756 566.767 233.429 570.785 224.738C574.802 216.046 572.452 209.719 563.735 205.757C555.019 201.794 552.669 195.467 556.686 186.776C560.704 178.085 558.354 171.758 549.637 167.795" stroke="#404C69"/>
        <path d="M626.611 355.449C617.895 351.486 615.545 345.159 619.562 336.468C623.579 327.776 621.229 321.449 612.513 317.487C603.797 313.524 601.447 307.197 605.464 298.506C609.481 289.815 607.131 283.488 598.415 279.525C589.699 275.563 587.349 269.236 591.366 260.544C595.383 251.853 593.033 245.526 584.317 241.563C575.6 237.601 573.251 231.274 577.268 222.582C581.285 213.891 578.935 207.564 570.219 203.602C561.502 199.639 559.153 193.312 563.17 184.621C567.187 175.929 564.837 169.602 556.121 165.64" stroke="#404C69"/>
        <path d="M633.094 353.293C624.378 349.331 622.028 343.004 626.045 334.312C630.062 325.621 627.713 319.294 618.996 315.332C610.28 311.369 607.93 305.042 611.947 296.351C615.964 287.659 613.615 281.332 604.898 277.37C596.182 273.407 593.832 267.08 597.849 258.389C601.866 249.698 599.517 243.371 590.8 239.408C582.084 235.446 579.734 229.119 583.751 220.427C587.768 211.736 585.419 205.409 576.702 201.446C567.986 197.484 565.636 191.157 569.653 182.465C573.67 173.774 571.321 167.447 562.604 163.485" stroke="#404C69"/>
        <path d="M639.577 351.138C630.86 347.176 628.511 340.849 632.528 332.157C636.545 323.466 634.195 317.139 625.479 313.176C616.762 309.214 614.413 302.887 618.43 294.195C622.447 285.504 620.097 279.177 611.381 275.215C602.664 271.252 600.315 264.925 604.332 256.234C608.349 247.542 605.999 241.215 597.283 237.253C588.566 233.29 586.217 226.963 590.234 218.272C594.251 209.581 591.901 203.254 583.185 199.291C574.468 195.329 572.119 189.002 576.136 180.31C580.153 171.619 577.803 165.292 569.087 161.329" stroke="#404C69"/>
        <path d="M646.06 348.983C637.344 345.021 634.994 338.694 639.011 330.002C643.028 321.311 640.679 314.984 631.962 311.021C623.246 307.059 620.896 300.732 624.913 292.04C628.93 283.349 626.581 277.022 617.864 273.06C609.148 269.097 606.798 262.77 610.815 254.079C614.832 245.387 612.483 239.06 603.766 235.098C595.05 231.135 592.7 224.808 596.717 216.117C600.734 207.425 598.385 201.099 589.668 197.136C580.952 193.174 578.602 186.847 582.619 178.155C586.636 169.464 584.287 163.137 575.57 159.174" stroke="#404C69"/>
        <path d="M652.544 346.828C643.827 342.865 641.478 336.538 645.495 327.847C649.512 319.155 647.162 312.829 638.446 308.866C629.729 304.903 627.379 298.577 631.397 289.885C635.414 281.194 633.064 274.867 624.348 270.904C615.631 266.942 613.281 260.615 617.299 251.923C621.316 243.232 618.966 236.905 610.25 232.943C601.533 228.98 599.183 222.653 603.201 213.962C607.218 205.27 604.868 198.943 596.152 194.981C587.435 191.018 585.085 184.691 589.102 176C593.12 167.308 590.77 160.982 582.053 157.019" stroke="#404C69"/>
        <path d="M659.026 344.672C650.31 340.71 647.96 334.383 651.977 325.692C655.994 317 653.644 310.673 644.928 306.711C636.212 302.748 633.862 296.421 637.879 287.73C641.896 279.038 639.546 272.711 630.83 268.749C622.114 264.786 619.764 258.46 623.781 249.768C627.798 241.077 625.448 234.75 616.732 230.787C608.016 226.825 605.666 220.498 609.683 211.806C613.7 203.115 611.35 196.788 602.634 192.825C593.918 188.863 591.568 182.536 595.585 173.845C599.602 165.153 597.252 158.826 588.536 154.864" stroke="#404C69"/>
        <path d="M665.509 342.517C656.793 338.555 654.443 332.228 658.46 323.536C662.478 314.845 660.128 308.518 651.411 304.555C642.695 300.593 640.345 294.266 644.362 285.575C648.379 276.883 646.03 270.556 637.313 266.594C628.597 262.631 626.247 256.304 630.264 247.613C634.281 238.921 631.932 232.594 623.215 228.632C614.499 224.669 612.149 218.342 616.166 209.651C620.183 200.96 617.834 194.633 609.117 190.67C600.401 186.708 598.051 180.381 602.068 171.689C606.085 162.998 603.736 156.671 595.019 152.708" stroke="#404C69"/>
        <path d="M671.992 340.362C663.275 336.4 660.926 330.073 664.943 321.381C668.96 312.69 666.61 306.363 657.894 302.4C649.177 298.438 646.828 292.111 650.845 283.42C654.862 274.728 652.512 268.401 643.796 264.439C635.079 260.476 632.73 254.149 636.747 245.458C640.764 236.766 638.414 230.439 629.698 226.477C620.981 222.514 618.632 216.187 622.649 207.496C626.666 198.805 624.316 192.478 615.6 188.515C606.883 184.553 604.534 178.226 608.551 169.534C612.568 160.843 610.218 154.516 601.502 150.553" stroke="#404C69"/>
        <path d="M678.476 338.207C669.76 334.244 667.41 327.917 671.427 319.226C675.444 310.534 673.095 304.207 664.378 300.245C655.662 296.282 653.312 289.955 657.329 281.264C661.346 272.573 658.997 266.246 650.28 262.283C641.564 258.321 639.214 251.994 643.231 243.302C647.248 234.611 644.899 228.284 636.182 224.321C627.466 220.359 625.116 214.032 629.133 205.341C633.15 196.649 630.801 190.322 622.084 186.36C613.368 182.397 611.018 176.07 615.035 167.379C619.052 158.687 616.703 152.36 607.986 148.398" stroke="#404C69"/>
        <path d="M684.959 336.052C676.242 332.089 673.893 325.762 677.91 317.071C681.927 308.379 679.577 302.052 670.861 298.09C662.144 294.127 659.795 287.8 663.812 279.109C667.829 270.418 665.479 264.091 656.763 260.128C648.046 256.166 645.697 249.839 649.714 241.147C653.731 232.456 651.381 226.129 642.665 222.166C633.948 218.204 631.598 211.877 635.616 203.186C639.633 194.494 637.283 188.167 628.567 184.205C619.85 180.242 617.5 173.915 621.518 165.224C625.535 156.532 623.185 150.205 614.469 146.243" stroke="#404C69"/>
    </g>
    <rect opacity="0.11" x="362.669" y="231.334" width="33.0001" height="33.0001" rx="5" transform="rotate(135 362.669 231.334)" fill="url(#paint2_linear_0_1)"/>
    <rect opacity="0.12" x="622.513" y="115" width="13.453" height="13.453" rx="2" transform="rotate(45 622.513 115)" fill="url(#paint3_linear_0_1)"/>
    <defs>
        <linearGradient id="paint0_linear_0_1" x1="52.8489" y1="-74.9625" x2="71.4906" y2="86.5988" gradientUnits="userSpaceOnUse">
            <stop stop-color="white"/>
            <stop offset="1" stop-color="white" stop-opacity="0"/>
        </linearGradient>
        <linearGradient id="paint1_linear_0_1" x1="255.256" y1="45.0132" x2="263.459" y2="116.107" gradientUnits="userSpaceOnUse">
            <stop stop-color="white"/>
            <stop offset="1" stop-color="white" stop-opacity="0"/>
        </linearGradient>
        <linearGradient id="paint2_linear_0_1" x1="373.144" y1="183.378" x2="385.07" y2="286.736" gradientUnits="userSpaceOnUse">
            <stop stop-color="white"/>
            <stop offset="1" stop-color="white" stop-opacity="0"/>
        </linearGradient>
        <linearGradient id="paint3_linear_0_1" x1="626.783" y1="95.4497" x2="631.645" y2="137.585" gradientUnits="userSpaceOnUse">
            <stop stop-color="white"/>
            <stop offset="1" stop-color="white" stop-opacity="0"/>
        </linearGradient>
    </defs>
</svg>
