<svg width="838" height="606" viewBox="0 0 838 606" fill="none" xmlns="http://www.w3.org/2000/svg">
    <mask id="mask0_0_1" style="mask-type:alpha" maskUnits="userSpaceOnUse" x="551" y="313" width="218" height="218">
        <path d="M737.044 338.224L636.966 314.058C633.579 313.24 630.011 314.244 627.548 316.708L554.826 389.429C552.397 391.858 551.385 395.364 552.145 398.713L575.125 499.978C575.977 503.733 578.909 506.665 582.664 507.517L683.928 530.496C687.278 531.256 690.783 530.244 693.212 527.815L765.934 455.094C768.397 452.63 769.401 449.062 768.583 445.676L744.418 345.597C743.537 341.951 740.69 339.104 737.044 338.224Z" fill="#C4C4C4"/>
    </mask>
    <g mask="url(#mask0_0_1)">
        <path d="M563.658 641.642C548.883 629.486 547.62 616.059 559.868 601.361C572.117 586.663 570.854 573.236 556.079 561.08C541.305 548.924 540.042 535.497 552.29 520.799C564.539 506.101 563.276 492.674 548.501 480.518C533.727 468.362 532.464 454.935 544.712 440.237C556.961 425.539 555.698 412.112 540.923 399.956C526.149 387.8 524.886 374.373 537.134 359.675C549.383 344.977 548.12 331.55 533.345 319.394C518.571 307.238 517.308 293.811 529.556 279.113C541.805 264.415 540.542 250.988 525.767 238.832" stroke="#404C69"/>
        <path d="M577.285 640.835C562.51 628.679 561.247 615.252 573.496 600.554C585.744 585.856 584.481 572.429 569.707 560.273C554.932 548.117 553.669 534.69 565.918 519.992C578.166 505.294 576.903 491.867 562.129 479.711C547.354 467.555 546.091 454.128 558.34 439.43C570.588 424.732 569.325 411.305 554.551 399.149C539.776 386.993 538.513 373.566 550.762 358.868C563.01 344.17 561.747 330.743 546.973 318.587C532.198 306.431 530.935 293.004 543.184 278.306C555.432 263.608 554.169 250.181 539.395 238.025" stroke="#404C69"/>
        <path d="M590.913 640.028C576.138 627.872 574.875 614.445 587.124 599.747C599.372 585.049 598.109 571.622 583.335 559.466C568.56 547.31 567.297 533.883 579.546 519.185C591.794 504.487 590.531 491.06 575.757 478.904C560.982 466.748 559.719 453.321 571.968 438.623C584.216 423.925 582.953 410.498 568.179 398.342C553.404 386.186 552.141 372.759 564.39 358.061C576.638 343.363 575.375 329.936 560.601 317.78C545.826 305.624 544.563 292.197 556.812 277.499C569.06 262.801 567.797 249.374 553.023 237.218" stroke="#404C69"/>
        <path d="M604.541 639.221C589.766 627.065 588.503 613.638 600.752 598.94C613 584.242 611.737 570.815 596.963 558.659C582.188 546.503 580.925 533.076 593.174 518.378C605.422 503.68 604.159 490.253 589.385 478.097C574.61 465.941 573.347 452.514 585.596 437.816C597.844 423.118 596.581 409.691 581.807 397.535C567.032 385.379 565.769 371.952 578.018 357.254C590.266 342.556 589.003 329.129 574.229 316.973C559.454 304.817 558.191 291.39 570.439 276.692C582.688 261.994 581.425 248.567 566.65 236.411" stroke="#404C69"/>
        <path d="M618.169 638.414C603.394 626.258 602.131 612.831 614.38 598.133C626.628 583.435 625.365 570.008 610.591 557.852C595.816 545.696 594.553 532.269 606.802 517.571C619.05 502.873 617.787 489.446 603.013 477.29C588.238 465.134 586.975 451.707 599.224 437.009C611.472 422.311 610.209 408.884 595.435 396.728C580.66 384.572 579.397 371.145 591.645 356.447C603.894 341.749 602.631 328.322 587.856 316.166C573.082 304.01 571.819 290.583 584.067 275.885C596.316 261.187 595.053 247.76 580.278 235.604" stroke="#404C69"/>
        <path d="M631.797 637.607C617.022 625.451 615.759 612.024 628.008 597.326C640.256 582.628 638.993 569.201 624.219 557.045C609.444 544.889 608.181 531.462 620.43 516.764C632.678 502.066 631.415 488.639 616.641 476.483C601.866 464.327 600.603 450.9 612.852 436.202C625.1 421.504 623.837 408.077 609.062 395.921C594.288 383.765 593.025 370.338 605.273 355.64C617.522 340.942 616.259 327.515 601.484 315.359C586.71 303.203 585.447 289.776 597.695 275.078C609.944 260.38 608.681 246.953 593.906 234.797" stroke="#404C69"/>
        <path d="M645.425 636.8C630.65 624.644 629.387 611.217 641.636 596.519C653.884 581.821 652.621 568.394 637.847 556.238C623.072 544.082 621.809 530.655 634.058 515.957C646.306 501.259 645.043 487.832 630.268 475.676C615.494 463.52 614.231 450.093 626.479 435.395C638.728 420.697 637.465 407.27 622.69 395.114C607.916 382.958 606.653 369.531 618.901 354.833C631.15 340.135 629.887 326.708 615.112 314.552C600.338 302.396 599.075 288.969 611.323 274.271C623.572 259.573 622.309 246.146 607.534 233.99" stroke="#404C69"/>
        <path d="M659.053 635.993C644.278 623.837 643.015 610.41 655.264 595.712C667.512 581.014 666.249 567.587 651.474 555.431C636.7 543.275 635.437 529.848 647.685 515.15C659.934 500.452 658.671 487.025 643.896 474.869C629.122 462.713 627.859 449.286 640.107 434.588C652.356 419.89 651.093 406.463 636.318 394.307C621.544 382.151 620.281 368.724 632.529 354.026C644.778 339.328 643.515 325.901 628.74 313.745C613.966 301.589 612.703 288.162 624.951 273.464C637.2 258.766 635.937 245.339 621.162 233.183" stroke="#404C69"/>
        <path d="M672.68 635.186C657.906 623.03 656.642 609.603 668.891 594.905C681.139 580.207 679.876 566.78 665.102 554.624C650.327 542.468 649.064 529.041 661.313 514.343C673.561 499.645 672.298 486.218 657.524 474.062C642.749 461.906 641.486 448.479 653.735 433.781C665.983 419.083 664.72 405.656 649.946 393.5C635.171 381.344 633.908 367.917 646.157 353.219C658.405 338.521 657.142 325.094 642.368 312.938C627.593 300.782 626.33 287.355 638.579 272.657C650.827 257.959 649.564 244.532 634.79 232.376" stroke="#404C69"/>
        <path d="M686.308 634.379C671.534 622.223 670.271 608.796 682.519 594.098C694.768 579.4 693.505 565.973 678.73 553.817C663.956 541.661 662.693 528.234 674.941 513.536C687.19 498.838 685.927 485.411 671.152 473.255C656.378 461.099 655.115 447.672 667.363 432.974C679.612 418.276 678.349 404.849 663.574 392.693C648.8 380.537 647.537 367.11 659.785 352.412C672.034 337.714 670.771 324.287 655.996 312.131C641.222 299.975 639.959 286.548 652.207 271.85C664.456 257.152 663.193 243.725 648.418 231.569" stroke="#404C69"/>
        <path d="M699.936 633.572C685.162 621.416 683.899 607.989 696.147 593.291C708.396 578.593 707.133 565.166 692.358 553.01C677.584 540.854 676.321 527.427 688.569 512.729C700.818 498.031 699.555 484.604 684.78 472.448C670.006 460.292 668.743 446.865 680.991 432.167C693.24 417.469 691.977 404.042 677.202 391.886C662.428 379.73 661.165 366.303 673.413 351.605C685.662 336.907 684.399 323.48 669.624 311.324C654.85 299.168 653.587 285.741 665.835 271.043C678.083 256.345 676.82 242.918 662.046 230.762" stroke="#404C69"/>
        <path d="M713.564 632.766C698.789 620.609 697.526 607.182 709.775 592.485C722.023 577.787 720.76 564.36 705.986 552.203C691.211 540.047 689.948 526.62 702.197 511.922C714.445 497.225 713.182 483.798 698.408 471.641C683.633 459.485 682.37 446.058 694.619 431.36C706.867 416.662 705.604 403.235 690.83 391.079C676.055 378.923 674.792 365.496 687.041 350.798C699.289 336.1 698.026 322.673 683.251 310.517C668.477 298.361 667.214 284.934 679.462 270.236C691.711 255.538 690.448 242.111 675.673 229.955" stroke="#404C69"/>
        <path d="M727.191 631.959C712.417 619.802 711.154 606.375 723.402 591.678C735.651 576.98 734.388 563.553 719.613 551.396C704.839 539.24 703.576 525.813 715.824 511.115C728.073 496.418 726.81 482.99 712.035 470.834C697.261 458.678 695.998 445.251 708.246 430.553C720.494 415.855 719.231 402.428 704.457 390.272C689.683 378.116 688.42 364.689 700.668 349.991C712.916 335.293 711.653 321.866 696.879 309.71C682.104 297.554 680.841 284.127 693.09 269.429C705.338 254.731 704.075 241.304 689.301 229.148" stroke="#404C69"/>
        <path d="M740.819 631.152C726.045 618.995 724.782 605.568 737.03 590.871C749.279 576.173 748.016 562.746 733.241 550.589C718.467 538.433 717.204 525.006 729.452 510.308C741.7 495.61 740.437 482.183 725.663 470.027C710.889 457.871 709.626 444.444 721.874 429.746C734.122 415.048 732.859 401.621 718.085 389.465C703.31 377.309 702.047 363.882 714.296 349.184C726.544 334.486 725.281 321.059 710.507 308.903C695.732 296.747 694.469 283.32 706.718 268.622C718.966 253.924 717.703 240.497 702.929 228.341" stroke="#404C69"/>
        <path d="M754.447 630.345C739.673 618.188 738.41 604.761 750.658 590.063C762.906 575.366 761.643 561.939 746.869 549.782C732.095 537.626 730.832 524.199 743.08 509.501C755.328 494.803 754.065 481.376 739.291 469.22C724.516 457.064 723.253 443.637 735.502 428.939C747.75 414.241 746.487 400.814 731.713 388.658C716.938 376.502 715.675 363.075 727.924 348.377C740.172 333.679 738.909 320.252 724.135 308.096C709.36 295.94 708.097 282.513 720.346 267.815C732.594 253.117 731.331 239.69 716.557 227.534" stroke="#404C69"/>
        <path d="M768.075 629.538C753.3 617.382 752.037 603.955 764.285 589.257C776.534 574.559 775.271 561.132 760.496 548.976C745.722 536.82 744.459 523.393 756.707 508.695C768.956 493.997 767.693 480.57 752.918 468.414C738.144 456.257 736.881 442.83 749.129 428.133C761.378 413.435 760.115 400.008 745.34 387.852C730.566 375.695 729.303 362.268 741.551 347.57C753.8 332.873 752.537 319.446 737.762 307.289C722.988 295.133 721.725 281.706 733.973 267.008C746.222 252.31 744.959 238.883 730.184 226.727" stroke="#404C69"/>
        <path d="M781.702 628.73C766.928 616.574 765.665 603.147 777.913 588.449C790.162 573.752 788.899 560.325 774.124 548.168C759.35 536.012 758.087 522.585 770.335 507.887C782.584 493.189 781.321 479.762 766.546 467.606C751.772 455.45 750.509 442.023 762.757 427.325C775.006 412.627 773.743 399.2 758.968 387.044C744.194 374.888 742.931 361.461 755.179 346.763C767.428 332.065 766.165 318.638 751.39 306.482C736.616 294.326 735.353 280.899 747.601 266.201C759.85 251.503 758.587 238.076 743.812 225.92" stroke="#404C69"/>
        <path d="M795.331 627.924C780.556 615.768 779.293 602.341 791.542 587.643C803.79 572.945 802.527 559.518 787.753 547.362C772.978 535.206 771.715 521.779 783.964 507.081C796.212 492.383 794.949 478.956 780.175 466.8C765.4 454.644 764.137 441.217 776.386 426.519C788.634 411.821 787.371 398.394 772.597 386.238C757.822 374.082 756.559 360.655 768.808 345.957C781.056 331.259 779.793 317.832 765.019 305.676C750.244 293.52 748.981 280.093 761.23 265.395C773.478 250.697 772.215 237.27 757.441 225.114" stroke="#404C69"/>
    </g>
    <mask id="mask1_0_1" style="mask-type:alpha" maskUnits="userSpaceOnUse" x="50" y="366" width="158" height="158">
        <path d="M182.819 383.644L113.589 366.927C110.203 366.11 106.634 367.113 104.171 369.577L53.7522 419.996C51.3233 422.424 50.3111 425.93 51.0712 429.28L66.9674 499.33C67.8195 503.085 70.7516 506.017 74.5065 506.869L144.557 522.765C147.906 523.525 151.412 522.513 153.841 520.084L204.259 469.665C206.723 467.202 207.727 463.634 206.909 460.247L190.192 391.017C189.312 387.371 186.465 384.524 182.819 383.644Z" fill="#C4C4C4"/>
    </mask>
    <g mask="url(#mask1_0_1)">
        <path d="M59.0592 603.49C48.3734 594.698 47.46 584.987 56.3187 574.357C65.1775 563.727 64.264 554.015 53.5783 545.223C42.8926 536.431 41.9791 526.72 50.8378 516.09C59.6966 505.46 58.7831 495.748 48.0974 486.956C37.4117 478.165 36.4982 468.453 45.3569 457.823C54.2157 447.193 53.3022 437.481 42.6165 428.689C31.9308 419.898 31.0173 410.186 39.8761 399.556C48.7348 388.926 47.8213 379.214 37.1356 370.422C26.4499 361.631 25.5364 351.919 34.3952 341.289C43.2539 330.659 42.3405 320.947 31.6547 312.156" stroke="#404C69"/>
        <path d="M68.9156 602.907C58.2299 594.115 57.3164 584.404 66.1752 573.773C75.0339 563.143 74.1204 553.432 63.4347 544.64C52.749 535.848 51.8355 526.137 60.6943 515.506C69.553 504.876 68.6396 495.165 57.9538 486.373C47.2681 477.581 46.3546 467.87 55.2134 457.239C64.0722 446.609 63.1587 436.898 52.473 428.106C41.7872 419.314 40.8737 409.603 49.7325 398.972C58.5913 388.342 57.6778 378.631 46.9921 369.839C36.3063 361.047 35.3929 351.336 44.2516 340.705C53.1104 330.075 52.1969 320.364 41.5112 311.572" stroke="#404C69"/>
        <path d="M78.7721 602.323C68.0863 593.531 67.1728 583.82 76.0316 573.19C84.8904 562.559 83.9769 552.848 73.2912 544.056C62.6054 535.264 61.692 525.553 70.5507 514.923C79.4095 504.292 78.496 494.581 67.8103 485.789C57.1246 476.997 56.2111 467.286 65.0698 456.656C73.9286 446.025 73.0151 436.314 62.3294 427.522C51.6437 418.73 50.7302 409.019 59.589 398.389C68.4477 387.758 67.5342 378.047 56.8485 369.255C46.1628 360.463 45.2493 350.752 54.1081 340.122C62.9668 329.491 62.0533 319.78 51.3676 310.988" stroke="#404C69"/>
        <path d="M88.6285 601.739C77.9428 592.947 77.0293 583.236 85.8881 572.606C94.7468 561.976 93.8333 552.264 83.1476 543.472C72.4619 534.681 71.5484 524.969 80.4072 514.339C89.2659 503.709 88.3524 493.997 77.6667 485.205C66.981 476.414 66.0675 466.702 74.9263 456.072C83.785 445.442 82.8716 435.73 72.1858 426.938C61.5001 418.147 60.5866 408.435 69.4454 397.805C78.3042 387.175 77.3907 377.463 66.705 368.672C56.0192 359.88 55.1058 350.168 63.9645 339.538C72.8233 328.908 71.9098 319.196 61.2241 310.405" stroke="#404C69"/>
        <path d="M98.4849 601.156C87.7992 592.364 86.8857 582.653 95.7445 572.022C104.603 561.392 103.69 551.681 93.0041 542.889C82.3183 534.097 81.4049 524.386 90.2636 513.755C99.1224 503.125 98.2089 493.414 87.5232 484.622C76.8375 475.83 75.924 466.119 84.7827 455.488C93.6415 444.858 92.728 435.147 82.0423 426.355C71.3566 417.563 70.4431 407.852 79.3018 397.222C88.1606 386.591 87.2471 376.88 76.5614 368.088C65.8757 359.296 64.9622 349.585 73.821 338.955C82.6797 328.324 81.7662 318.613 71.0805 309.821" stroke="#404C69"/>
        <path d="M108.341 600.572C97.6557 591.78 96.7422 582.069 105.601 571.439C114.46 560.808 113.546 551.097 102.861 542.305C92.1748 533.513 91.2613 523.802 100.12 513.172C108.979 502.541 108.065 492.83 97.3796 484.038C86.6939 475.246 85.7804 465.535 94.6392 454.905C103.498 444.274 102.584 434.563 91.8987 425.771C81.213 416.979 80.2995 407.268 89.1583 396.638C98.0171 386.007 97.1036 376.296 86.4178 367.504C75.7321 358.712 74.8186 349.001 83.6774 338.371C92.5362 327.741 91.6227 318.029 80.937 309.237" stroke="#404C69"/>
        <path d="M118.198 599.989C107.512 591.197 106.599 581.485 115.457 570.855C124.316 560.225 123.403 550.514 112.717 541.722C102.031 532.93 101.118 523.218 109.977 512.588C118.835 501.958 117.922 492.247 107.236 483.455C96.5503 474.663 95.6369 464.952 104.496 454.321C113.354 443.691 112.441 433.98 101.755 425.188C91.0695 416.396 90.156 406.685 99.0147 396.054C107.873 385.424 106.96 375.713 96.2743 366.921C85.5886 358.129 84.6751 348.418 93.5339 337.787C102.393 327.157 101.479 317.446 90.7934 308.654" stroke="#404C69"/>
        <path d="M128.054 599.405C117.369 590.613 116.455 580.902 125.314 570.271C134.173 559.641 133.259 549.93 122.573 541.138C111.888 532.346 110.974 522.635 119.833 512.004C128.692 501.374 127.778 491.663 117.093 482.871C106.407 474.079 105.493 464.368 114.352 453.738C123.211 443.107 122.297 433.396 111.612 424.604C100.926 415.812 100.012 406.101 108.871 395.471C117.73 384.84 116.816 375.129 106.131 366.337C95.445 357.545 94.5315 347.834 103.39 337.204C112.249 326.573 111.336 316.862 100.65 308.07" stroke="#404C69"/>
        <path d="M137.91 598.821C127.225 590.029 126.311 580.318 135.17 569.688C144.029 559.057 143.115 549.346 132.429 540.554C121.744 531.762 120.83 522.051 129.689 511.421C138.548 500.79 137.634 491.079 126.948 482.287C116.263 473.495 115.349 463.784 124.208 453.154C133.067 442.523 132.153 432.812 121.468 424.02C110.782 415.228 109.868 405.517 118.727 394.887C127.586 384.256 126.672 374.545 115.987 365.753C105.301 356.961 104.387 347.25 113.246 336.62C122.105 325.989 121.192 316.278 110.506 307.486" stroke="#404C69"/>
        <path d="M147.767 598.238C137.081 589.446 136.168 579.735 145.027 569.104C153.885 558.474 152.972 548.763 142.286 539.971C131.601 531.179 130.687 521.468 139.546 510.837C148.405 500.207 147.491 490.496 136.805 481.704C126.12 472.912 125.206 463.201 134.065 452.57C142.924 441.94 142.01 432.229 131.325 423.437C120.639 414.645 119.725 404.934 128.584 394.303C137.443 383.673 136.529 373.962 125.844 365.17C115.158 356.378 114.244 346.667 123.103 336.036C131.962 325.406 131.048 315.695 120.363 306.903" stroke="#404C69"/>
        <path d="M157.624 597.654C146.938 588.862 146.024 579.151 154.883 568.52C163.742 557.89 162.828 548.179 152.143 539.387C141.457 530.595 140.544 520.884 149.402 510.254C158.261 499.623 157.348 489.912 146.662 481.12C135.976 472.328 135.063 462.617 143.921 451.987C152.78 441.356 151.867 431.645 141.181 422.853C130.495 414.061 129.582 404.35 138.441 393.72C147.299 383.089 146.386 373.378 135.7 364.586C125.014 355.794 124.101 346.083 132.96 335.453C141.818 324.822 140.905 315.111 130.219 306.319" stroke="#404C69"/>
        <path d="M167.48 597.07C156.794 588.278 155.881 578.567 164.74 567.937C173.598 557.306 172.685 547.595 161.999 538.803C151.313 530.011 150.4 520.3 159.259 509.67C168.117 499.039 167.204 489.328 156.518 480.536C145.833 471.744 144.919 462.033 153.778 451.403C162.637 440.773 161.723 431.061 151.037 422.269C140.352 413.477 139.438 403.766 148.297 393.136C157.156 382.506 156.242 372.794 145.557 364.002C134.871 355.211 133.957 345.499 142.816 334.869C151.675 324.239 150.761 314.527 140.076 305.735" stroke="#404C69"/>
        <path d="M177.336 596.487C166.65 587.695 165.737 577.984 174.596 567.353C183.454 556.723 182.541 547.012 171.855 538.22C161.169 529.428 160.256 519.717 169.115 509.086C177.973 498.456 177.06 488.745 166.374 479.953C155.689 471.161 154.775 461.45 163.634 450.819C172.493 440.189 171.579 430.478 160.893 421.686C150.208 412.894 149.294 403.183 158.153 392.552C167.012 381.922 166.098 372.211 155.412 363.419C144.727 354.627 143.813 344.916 152.672 334.285C161.531 323.655 160.617 313.944 149.932 305.152" stroke="#404C69"/>
        <path d="M187.192 595.903C176.507 587.111 175.593 577.4 184.452 566.77C193.311 556.139 192.397 546.428 181.712 537.636C171.026 528.844 170.112 519.133 178.971 508.503C187.83 497.872 186.916 488.161 176.231 479.369C165.545 470.577 164.631 460.866 173.49 450.236C182.349 439.605 181.436 429.894 170.75 421.102C160.064 412.31 159.151 402.599 168.009 391.969C176.868 381.338 175.955 371.627 165.269 362.835C154.583 354.043 153.67 344.332 162.528 333.702C171.387 323.071 170.474 313.36 159.788 304.568" stroke="#404C69"/>
        <path d="M197.049 595.319C186.363 586.527 185.45 576.816 194.308 566.186C203.167 555.555 202.254 545.844 191.568 537.052C180.882 528.26 179.969 518.549 188.828 507.919C197.686 497.289 196.773 487.577 186.087 478.785C175.401 469.993 174.488 460.282 183.347 449.652C192.205 439.022 191.292 429.31 180.606 420.518C169.921 411.727 169.007 402.015 177.866 391.385C186.725 380.755 185.811 371.043 175.125 362.251C164.44 353.46 163.526 343.748 172.385 333.118C181.244 322.488 180.33 312.776 169.644 303.984" stroke="#404C69"/>
        <path d="M206.905 594.736C196.219 585.944 195.306 576.233 204.164 565.602C213.023 554.972 212.11 545.261 201.424 536.469C190.738 527.677 189.825 517.966 198.684 507.335C207.542 496.705 206.629 486.994 195.943 478.202C185.257 469.41 184.344 459.699 193.203 449.068C202.061 438.438 201.148 428.727 190.462 419.935C179.776 411.143 178.863 401.432 187.722 390.801C196.581 380.171 195.667 370.46 184.981 361.668C174.296 352.876 173.382 343.165 182.241 332.534C191.1 321.904 190.186 312.193 179.5 303.401" stroke="#404C69"/>
        <path d="M216.762 594.152C206.076 585.36 205.163 575.649 214.021 565.019C222.88 554.388 221.967 544.677 211.281 535.885C200.595 527.093 199.682 517.382 208.54 506.752C217.399 496.121 216.486 486.41 205.8 477.618C195.114 468.826 194.201 459.115 203.06 448.485C211.918 437.854 211.005 428.143 200.319 419.351C189.633 410.559 188.72 400.848 197.579 390.218C206.437 379.587 205.524 369.876 194.838 361.084C184.153 352.292 183.239 342.581 192.098 331.951C200.957 321.32 200.043 311.609 189.357 302.817" stroke="#404C69"/>
        <path d="M226.618 593.569C215.933 584.777 215.019 575.065 223.878 564.435C232.737 553.805 231.823 544.093 221.137 535.302C210.452 526.51 209.538 516.798 218.397 506.168C227.256 495.538 226.342 485.827 215.656 477.035C204.971 468.243 204.057 458.531 212.916 447.901C221.775 437.271 220.861 427.56 210.176 418.768C199.49 409.976 198.576 400.264 207.435 389.634C216.294 379.004 215.38 369.293 204.695 360.501C194.009 351.709 193.096 341.998 201.954 331.367C210.813 320.737 209.9 311.026 199.214 302.234" stroke="#404C69"/>
    </g>
    <rect opacity="0.11" x="757.666" y="503.833" width="69.0601" height="69.0601" rx="5" transform="rotate(135 757.666 503.833)" fill="url(#paint0_linear_0_1)"/>
    <rect opacity="0.27" x="91.4746" width="51.5832" height="51.5832" rx="2" transform="rotate(45 91.4746 0)" fill="url(#paint1_linear_0_1)"/>
    <rect opacity="0.27" x="111.05" y="574" width="22.6989" height="22.6989" rx="2" transform="rotate(45 111.05 574)" fill="url(#paint2_linear_0_1)"/>
    <defs>
        <linearGradient id="paint0_linear_0_1" x1="779.588" y1="403.472" x2="804.545" y2="619.772" gradientUnits="userSpaceOnUse">
            <stop stop-color="white"/>
            <stop offset="1" stop-color="white" stop-opacity="0"/>
        </linearGradient>
        <linearGradient id="paint1_linear_0_1" x1="107.849" y1="-74.9625" x2="126.491" y2="86.5988" gradientUnits="userSpaceOnUse">
            <stop stop-color="white"/>
            <stop offset="1" stop-color="white" stop-opacity="0"/>
        </linearGradient>
        <linearGradient id="paint2_linear_0_1" x1="118.256" y1="541.013" x2="126.459" y2="612.107" gradientUnits="userSpaceOnUse">
            <stop stop-color="white"/>
            <stop offset="1" stop-color="white" stop-opacity="0"/>
        </linearGradient>
    </defs>
</svg>


