<svg width="1911" height="678" viewBox="0 0 1911 678" fill="none" xmlns="http://www.w3.org/2000/svg">
    <mask id="mask0_0_1" style="mask-type:alpha" maskUnits="userSpaceOnUse" x="1488" y="313" width="218" height="218">
        <path d="M1674.04 338.224L1573.97 314.058C1570.58 313.24 1567.01 314.244 1564.55 316.708L1491.83 389.429C1489.4 391.858 1488.39 395.364 1489.15 398.713L1512.12 499.978C1512.98 503.733 1515.91 506.665 1519.66 507.517L1620.93 530.496C1624.28 531.256 1627.78 530.244 1630.21 527.815L1702.93 455.094C1705.4 452.63 1706.4 449.062 1705.58 445.676L1681.42 345.597C1680.54 341.951 1677.69 339.104 1674.04 338.224Z" fill="#C4C4C4"/>
    </mask>
    <g mask="url(#mask0_0_1)">
        <path d="M1500.66 641.642C1485.88 629.486 1484.62 616.059 1496.87 601.361C1509.12 586.663 1507.85 573.236 1493.08 561.08C1478.3 548.924 1477.04 535.497 1489.29 520.799C1501.54 506.101 1500.28 492.674 1485.5 480.518C1470.73 468.362 1469.46 454.935 1481.71 440.237C1493.96 425.539 1492.7 412.112 1477.92 399.956C1463.15 387.8 1461.89 374.373 1474.13 359.675C1486.38 344.977 1485.12 331.55 1470.35 319.394C1455.57 307.238 1454.31 293.811 1466.56 279.113C1478.8 264.415 1477.54 250.988 1462.77 238.832" stroke="#404C69"/>
        <path d="M1514.28 640.835C1499.51 628.679 1498.25 615.252 1510.5 600.554C1522.74 585.856 1521.48 572.429 1506.71 560.273C1491.93 548.117 1490.67 534.69 1502.92 519.992C1515.17 505.294 1513.9 491.867 1499.13 479.711C1484.35 467.555 1483.09 454.128 1495.34 439.43C1507.59 424.732 1506.33 411.305 1491.55 399.149C1476.78 386.993 1475.51 373.566 1487.76 358.868C1500.01 344.17 1498.75 330.743 1483.97 318.587C1469.2 306.431 1467.94 293.004 1480.18 278.306C1492.43 263.608 1491.17 250.181 1476.39 238.025" stroke="#404C69"/>
        <path d="M1527.91 640.028C1513.14 627.872 1511.88 614.445 1524.12 599.747C1536.37 585.049 1535.11 571.622 1520.33 559.466C1505.56 547.31 1504.3 533.883 1516.55 519.185C1528.79 504.487 1527.53 491.06 1512.76 478.904C1497.98 466.748 1496.72 453.321 1508.97 438.623C1521.22 423.925 1519.95 410.498 1505.18 398.342C1490.4 386.186 1489.14 372.759 1501.39 358.061C1513.64 343.363 1512.38 329.936 1497.6 317.78C1482.83 305.624 1481.56 292.197 1493.81 277.499C1506.06 262.801 1504.8 249.374 1490.02 237.218" stroke="#404C69"/>
        <path d="M1541.54 639.221C1526.77 627.065 1525.5 613.638 1537.75 598.94C1550 584.242 1548.74 570.815 1533.96 558.659C1519.19 546.503 1517.93 533.076 1530.17 518.378C1542.42 503.68 1541.16 490.253 1526.38 478.097C1511.61 465.941 1510.35 452.514 1522.6 437.816C1534.84 423.118 1533.58 409.691 1518.81 397.535C1504.03 385.379 1502.77 371.952 1515.02 357.254C1527.27 342.556 1526 329.129 1511.23 316.973C1496.45 304.817 1495.19 291.39 1507.44 276.692C1519.69 261.994 1518.42 248.567 1503.65 236.411" stroke="#404C69"/>
        <path d="M1555.17 638.414C1540.39 626.258 1539.13 612.831 1551.38 598.133C1563.63 583.435 1562.37 570.008 1547.59 557.852C1532.82 545.696 1531.55 532.269 1543.8 517.571C1556.05 502.873 1554.79 489.446 1540.01 477.29C1525.24 465.134 1523.98 451.707 1536.22 437.009C1548.47 422.311 1547.21 408.884 1532.43 396.728C1517.66 384.572 1516.4 371.145 1528.65 356.447C1540.89 341.749 1539.63 328.322 1524.86 316.166C1510.08 304.01 1508.82 290.583 1521.07 275.885C1533.32 261.187 1532.05 247.76 1517.28 235.604" stroke="#404C69"/>
        <path d="M1568.8 637.607C1554.02 625.451 1552.76 612.024 1565.01 597.326C1577.26 582.628 1575.99 569.201 1561.22 557.045C1546.44 544.889 1545.18 531.462 1557.43 516.764C1569.68 502.066 1568.42 488.639 1553.64 476.483C1538.87 464.327 1537.6 450.9 1549.85 436.202C1562.1 421.504 1560.84 408.077 1546.06 395.921C1531.29 383.765 1530.02 370.338 1542.27 355.64C1554.52 340.942 1553.26 327.515 1538.48 315.359C1523.71 303.203 1522.45 289.776 1534.7 275.078C1546.94 260.38 1545.68 246.953 1530.91 234.797" stroke="#404C69"/>
        <path d="M1582.42 636.8C1567.65 624.644 1566.39 611.217 1578.64 596.519C1590.88 581.821 1589.62 568.394 1574.85 556.238C1560.07 544.082 1558.81 530.655 1571.06 515.957C1583.31 501.259 1582.04 487.832 1567.27 475.676C1552.49 463.52 1551.23 450.093 1563.48 435.395C1575.73 420.697 1574.46 407.27 1559.69 395.114C1544.92 382.958 1543.65 369.531 1555.9 354.833C1568.15 340.135 1566.89 326.708 1552.11 314.552C1537.34 302.396 1536.07 288.969 1548.32 274.271C1560.57 259.573 1559.31 246.146 1544.53 233.99" stroke="#404C69"/>
        <path d="M1596.05 635.993C1581.28 623.837 1580.02 610.41 1592.26 595.712C1604.51 581.014 1603.25 567.587 1588.47 555.431C1573.7 543.275 1572.44 529.848 1584.69 515.15C1596.93 500.452 1595.67 487.025 1580.9 474.869C1566.12 462.713 1564.86 449.286 1577.11 434.588C1589.36 419.89 1588.09 406.463 1573.32 394.307C1558.54 382.151 1557.28 368.724 1569.53 354.026C1581.78 339.328 1580.51 325.901 1565.74 313.745C1550.97 301.589 1549.7 288.162 1561.95 273.464C1574.2 258.766 1572.94 245.339 1558.16 233.183" stroke="#404C69"/>
        <path d="M1609.68 635.186C1594.91 623.03 1593.64 609.603 1605.89 594.905C1618.14 580.207 1616.88 566.78 1602.1 554.624C1587.33 542.468 1586.06 529.041 1598.31 514.343C1610.56 499.645 1609.3 486.218 1594.52 474.062C1579.75 461.906 1578.49 448.479 1590.73 433.781C1602.98 419.083 1601.72 405.656 1586.95 393.5C1572.17 381.344 1570.91 367.917 1583.16 353.219C1595.41 338.521 1594.14 325.094 1579.37 312.938C1564.59 300.782 1563.33 287.355 1575.58 272.657C1587.83 257.959 1586.56 244.532 1571.79 232.376" stroke="#404C69"/>
        <path d="M1623.31 634.379C1608.53 622.223 1607.27 608.796 1619.52 594.098C1631.77 579.4 1630.5 565.973 1615.73 553.817C1600.96 541.661 1599.69 528.234 1611.94 513.536C1624.19 498.838 1622.93 485.411 1608.15 473.255C1593.38 461.099 1592.11 447.672 1604.36 432.974C1616.61 418.276 1615.35 404.849 1600.57 392.693C1585.8 380.537 1584.54 367.11 1596.79 352.412C1609.03 337.714 1607.77 324.287 1593 312.131C1578.22 299.975 1576.96 286.548 1589.21 271.85C1601.46 257.152 1600.19 243.725 1585.42 231.569" stroke="#404C69"/>
        <path d="M1636.94 633.572C1622.16 621.416 1620.9 607.989 1633.15 593.291C1645.4 578.593 1644.13 565.166 1629.36 553.01C1614.58 540.854 1613.32 527.427 1625.57 512.729C1637.82 498.031 1636.55 484.604 1621.78 472.448C1607.01 460.292 1605.74 446.865 1617.99 432.167C1630.24 417.469 1628.98 404.042 1614.2 391.886C1599.43 379.73 1598.16 366.303 1610.41 351.605C1622.66 336.907 1621.4 323.48 1606.62 311.324C1591.85 299.168 1590.59 285.741 1602.84 271.043C1615.08 256.345 1613.82 242.918 1599.05 230.762" stroke="#404C69"/>
        <path d="M1650.56 632.766C1635.79 620.609 1634.53 607.182 1646.77 592.485C1659.02 577.787 1657.76 564.36 1642.99 552.203C1628.21 540.047 1626.95 526.62 1639.2 511.922C1651.45 497.225 1650.18 483.798 1635.41 471.641C1620.63 459.485 1619.37 446.058 1631.62 431.36C1643.87 416.662 1642.6 403.235 1627.83 391.079C1613.06 378.923 1611.79 365.496 1624.04 350.798C1636.29 336.1 1635.03 322.673 1620.25 310.517C1605.48 298.361 1604.21 284.934 1616.46 270.236C1628.71 255.538 1627.45 242.111 1612.67 229.955" stroke="#404C69"/>
        <path d="M1664.19 631.959C1649.42 619.802 1648.15 606.375 1660.4 591.678C1672.65 576.98 1671.39 563.553 1656.61 551.396C1641.84 539.24 1640.58 525.813 1652.82 511.115C1665.07 496.418 1663.81 482.99 1649.04 470.834C1634.26 458.678 1633 445.251 1645.25 430.553C1657.49 415.855 1656.23 402.428 1641.46 390.272C1626.68 378.116 1625.42 364.689 1637.67 349.991C1649.92 335.293 1648.65 321.866 1633.88 309.71C1619.1 297.554 1617.84 284.127 1630.09 269.429C1642.34 254.731 1641.08 241.304 1626.3 229.148" stroke="#404C69"/>
        <path d="M1677.82 631.152C1663.04 618.995 1661.78 605.568 1674.03 590.871C1686.28 576.173 1685.02 562.746 1670.24 550.589C1655.47 538.433 1654.2 525.006 1666.45 510.308C1678.7 495.61 1677.44 482.183 1662.66 470.027C1647.89 457.871 1646.63 444.444 1658.87 429.746C1671.12 415.048 1669.86 401.621 1655.08 389.465C1640.31 377.309 1639.05 363.882 1651.3 349.184C1663.54 334.486 1662.28 321.059 1647.51 308.903C1632.73 296.747 1631.47 283.32 1643.72 268.622C1655.97 253.924 1654.7 240.497 1639.93 228.341" stroke="#404C69"/>
        <path d="M1691.45 630.345C1676.67 618.188 1675.41 604.761 1687.66 590.063C1699.91 575.366 1698.64 561.939 1683.87 549.782C1669.09 537.626 1667.83 524.199 1680.08 509.501C1692.33 494.803 1691.07 481.376 1676.29 469.22C1661.52 457.064 1660.25 443.637 1672.5 428.939C1684.75 414.241 1683.49 400.814 1668.71 388.658C1653.94 376.502 1652.68 363.075 1664.92 348.377C1677.17 333.679 1675.91 320.252 1661.13 308.096C1646.36 295.94 1645.1 282.513 1657.35 267.815C1669.59 253.117 1668.33 239.69 1653.56 227.534" stroke="#404C69"/>
        <path d="M1705.07 629.538C1690.3 617.382 1689.04 603.955 1701.29 589.257C1713.53 574.559 1712.27 561.132 1697.5 548.976C1682.72 536.82 1681.46 523.393 1693.71 508.695C1705.96 493.997 1704.69 480.57 1689.92 468.414C1675.14 456.257 1673.88 442.83 1686.13 428.133C1698.38 413.435 1697.11 400.008 1682.34 387.852C1667.57 375.695 1666.3 362.268 1678.55 347.57C1690.8 332.873 1689.54 319.446 1674.76 307.289C1659.99 295.133 1658.72 281.706 1670.97 267.008C1683.22 252.31 1681.96 238.883 1667.18 226.727" stroke="#404C69"/>
        <path d="M1718.7 628.73C1703.93 616.574 1702.66 603.147 1714.91 588.449C1727.16 573.752 1725.9 560.325 1711.12 548.168C1696.35 536.012 1695.09 522.585 1707.34 507.887C1719.58 493.189 1718.32 479.762 1703.55 467.606C1688.77 455.45 1687.51 442.023 1699.76 427.325C1712.01 412.627 1710.74 399.2 1695.97 387.044C1681.19 374.888 1679.93 361.461 1692.18 346.763C1704.43 332.065 1703.16 318.638 1688.39 306.482C1673.62 294.326 1672.35 280.899 1684.6 266.201C1696.85 251.503 1695.59 238.076 1680.81 225.92" stroke="#404C69"/>
        <path d="M1732.33 627.924C1717.56 615.768 1716.29 602.341 1728.54 587.643C1740.79 572.945 1739.53 559.518 1724.75 547.362C1709.98 535.206 1708.72 521.779 1720.96 507.081C1733.21 492.383 1731.95 478.956 1717.17 466.8C1702.4 454.644 1701.14 441.217 1713.39 426.519C1725.63 411.821 1724.37 398.394 1709.6 386.238C1694.82 374.082 1693.56 360.655 1705.81 345.957C1718.06 331.259 1716.79 317.832 1702.02 305.676C1687.24 293.52 1685.98 280.093 1698.23 265.395C1710.48 250.697 1709.21 237.27 1694.44 225.114" stroke="#404C69"/>
    </g>
    <mask id="mask1_0_1" style="mask-type:alpha" maskUnits="userSpaceOnUse" x="987" y="366" width="158" height="158">
        <path d="M1119.82 383.644L1050.59 366.927C1047.2 366.11 1043.63 367.113 1041.17 369.577L990.752 419.996C988.323 422.424 987.311 425.93 988.071 429.28L1003.97 499.33C1004.82 503.085 1007.75 506.017 1011.51 506.869L1081.56 522.765C1084.91 523.525 1088.41 522.513 1090.84 520.084L1141.26 469.665C1143.72 467.202 1144.73 463.634 1143.91 460.247L1127.19 391.017C1126.31 387.371 1123.46 384.524 1119.82 383.644Z" fill="#C4C4C4"/>
    </mask>
    <g mask="url(#mask1_0_1)">
        <path d="M996.059 603.49C985.373 594.698 984.46 584.987 993.319 574.357C1002.18 563.727 1001.26 554.015 990.578 545.223C979.893 536.431 978.979 526.72 987.838 516.09C996.697 505.46 995.783 495.748 985.097 486.956C974.412 478.165 973.498 468.453 982.357 457.823C991.216 447.193 990.302 437.481 979.617 428.689C968.931 419.898 968.017 410.186 976.876 399.556C985.735 388.926 984.821 379.214 974.136 370.422C963.45 361.631 962.536 351.919 971.395 341.289C980.254 330.659 979.34 320.947 968.655 312.156" stroke="#404C69"/>
        <path d="M1005.92 602.907C995.23 594.115 994.316 584.404 1003.18 573.773C1012.03 563.143 1011.12 553.432 1000.43 544.64C989.749 535.848 988.836 526.137 997.694 515.506C1006.55 504.876 1005.64 495.165 994.954 486.373C984.268 477.581 983.355 467.87 992.213 457.239C1001.07 446.609 1000.16 436.898 989.473 428.106C978.787 419.314 977.874 409.603 986.733 398.972C995.591 388.342 994.678 378.631 983.992 369.839C973.306 361.047 972.393 351.336 981.252 340.705C990.11 330.075 989.197 320.364 978.511 311.572" stroke="#404C69"/>
        <path d="M1015.77 602.323C1005.09 593.531 1004.17 583.82 1013.03 573.19C1021.89 562.559 1020.98 552.848 1010.29 544.056C999.605 535.264 998.692 525.553 1007.55 514.923C1016.41 504.292 1015.5 494.581 1004.81 485.789C994.125 476.997 993.211 467.286 1002.07 456.656C1010.93 446.025 1010.02 436.314 999.329 427.522C988.644 418.73 987.73 409.019 996.589 398.389C1005.45 387.758 1004.53 378.047 993.849 369.255C983.163 360.463 982.249 350.752 991.108 340.122C999.967 329.491 999.053 319.78 988.368 310.988" stroke="#404C69"/>
        <path d="M1025.63 601.739C1014.94 592.947 1014.03 583.236 1022.89 572.606C1031.75 561.976 1030.83 552.264 1020.15 543.472C1009.46 534.681 1008.55 524.969 1017.41 514.339C1026.27 503.709 1025.35 493.997 1014.67 485.205C1003.98 476.414 1003.07 466.702 1011.93 456.072C1020.79 445.442 1019.87 435.73 1009.19 426.938C998.5 418.147 997.587 408.435 1006.45 397.805C1015.3 387.175 1014.39 377.463 1003.7 368.672C993.019 359.88 992.106 350.168 1000.96 339.538C1009.82 328.908 1008.91 319.196 998.224 310.405" stroke="#404C69"/>
        <path d="M1035.48 601.156C1024.8 592.364 1023.89 582.653 1032.74 572.022C1041.6 561.392 1040.69 551.681 1030 542.889C1019.32 534.097 1018.4 524.386 1027.26 513.755C1036.12 503.125 1035.21 493.414 1024.52 484.622C1013.84 475.83 1012.92 466.119 1021.78 455.488C1030.64 444.858 1029.73 435.147 1019.04 426.355C1008.36 417.563 1007.44 407.852 1016.3 397.222C1025.16 386.591 1024.25 376.88 1013.56 368.088C1002.88 359.296 1001.96 349.585 1010.82 338.955C1019.68 328.324 1018.77 318.613 1008.08 309.821" stroke="#404C69"/>
        <path d="M1045.34 600.572C1034.66 591.78 1033.74 582.069 1042.6 571.439C1051.46 560.808 1050.55 551.097 1039.86 542.305C1029.17 533.513 1028.26 523.802 1037.12 513.172C1045.98 502.541 1045.07 492.83 1034.38 484.038C1023.69 475.246 1022.78 465.535 1031.64 454.905C1040.5 444.274 1039.58 434.563 1028.9 425.771C1018.21 416.979 1017.3 407.268 1026.16 396.638C1035.02 386.007 1034.1 376.296 1023.42 367.504C1012.73 358.712 1011.82 349.001 1020.68 338.371C1029.54 327.741 1028.62 318.029 1017.94 309.237" stroke="#404C69"/>
        <path d="M1055.2 599.989C1044.51 591.197 1043.6 581.485 1052.46 570.855C1061.32 560.225 1060.4 550.514 1049.72 541.722C1039.03 532.93 1038.12 523.218 1046.98 512.588C1055.84 501.958 1054.92 492.247 1044.24 483.455C1033.55 474.663 1032.64 464.952 1041.5 454.321C1050.35 443.691 1049.44 433.98 1038.76 425.188C1028.07 416.396 1027.16 406.685 1036.01 396.054C1044.87 385.424 1043.96 375.713 1033.27 366.921C1022.59 358.129 1021.68 348.418 1030.53 337.787C1039.39 327.157 1038.48 317.446 1027.79 308.654" stroke="#404C69"/>
        <path d="M1065.05 599.405C1054.37 590.613 1053.46 580.902 1062.31 570.271C1071.17 559.641 1070.26 549.93 1059.57 541.138C1048.89 532.346 1047.97 522.635 1056.83 512.004C1065.69 501.374 1064.78 491.663 1054.09 482.871C1043.41 474.079 1042.49 464.368 1051.35 453.738C1060.21 443.107 1059.3 433.396 1048.61 424.604C1037.93 415.812 1037.01 406.101 1045.87 395.471C1054.73 384.84 1053.82 375.129 1043.13 366.337C1032.45 357.545 1031.53 347.834 1040.39 337.204C1049.25 326.573 1048.34 316.862 1037.65 308.07" stroke="#404C69"/>
        <path d="M1074.91 598.821C1064.22 590.029 1063.31 580.318 1072.17 569.688C1081.03 559.057 1080.12 549.346 1069.43 540.554C1058.74 531.762 1057.83 522.051 1066.69 511.421C1075.55 500.79 1074.63 491.079 1063.95 482.287C1053.26 473.495 1052.35 463.784 1061.21 453.154C1070.07 442.523 1069.15 432.812 1058.47 424.02C1047.78 415.228 1046.87 405.517 1055.73 394.887C1064.59 384.256 1063.67 374.545 1052.99 365.753C1042.3 356.961 1041.39 347.25 1050.25 336.62C1059.11 325.989 1058.19 316.278 1047.51 307.486" stroke="#404C69"/>
        <path d="M1084.77 598.238C1074.08 589.446 1073.17 579.735 1082.03 569.104C1090.89 558.474 1089.97 548.763 1079.29 539.971C1068.6 531.179 1067.69 521.468 1076.55 510.837C1085.4 500.207 1084.49 490.496 1073.81 481.704C1063.12 472.912 1062.21 463.201 1071.06 452.57C1079.92 441.94 1079.01 432.229 1068.32 423.437C1057.64 414.645 1056.73 404.934 1065.58 394.303C1074.44 383.673 1073.53 373.962 1062.84 365.17C1052.16 356.378 1051.24 346.667 1060.1 336.036C1068.96 325.406 1068.05 315.695 1057.36 306.903" stroke="#404C69"/>
        <path d="M1094.62 597.654C1083.94 588.862 1083.02 579.151 1091.88 568.52C1100.74 557.89 1099.83 548.179 1089.14 539.387C1078.46 530.595 1077.54 520.884 1086.4 510.254C1095.26 499.623 1094.35 489.912 1083.66 481.12C1072.98 472.328 1072.06 462.617 1080.92 451.987C1089.78 441.356 1088.87 431.645 1078.18 422.853C1067.5 414.061 1066.58 404.35 1075.44 393.72C1084.3 383.089 1083.39 373.378 1072.7 364.586C1062.01 355.794 1061.1 346.083 1069.96 335.453C1078.82 324.822 1077.9 315.111 1067.22 306.319" stroke="#404C69"/>
        <path d="M1104.48 597.07C1093.79 588.278 1092.88 578.567 1101.74 567.937C1110.6 557.306 1109.68 547.595 1099 538.803C1088.31 530.011 1087.4 520.3 1096.26 509.67C1105.12 499.039 1104.2 489.328 1093.52 480.536C1082.83 471.744 1081.92 462.033 1090.78 451.403C1099.64 440.773 1098.72 431.061 1088.04 422.269C1077.35 413.477 1076.44 403.766 1085.3 393.136C1094.16 382.506 1093.24 372.794 1082.56 364.002C1071.87 355.211 1070.96 345.499 1079.82 334.869C1088.67 324.239 1087.76 314.527 1077.08 305.735" stroke="#404C69"/>
        <path d="M1114.34 596.487C1103.65 587.695 1102.74 577.984 1111.6 567.353C1120.45 556.723 1119.54 547.012 1108.86 538.22C1098.17 529.428 1097.26 519.717 1106.11 509.086C1114.97 498.456 1114.06 488.745 1103.37 479.953C1092.69 471.161 1091.78 461.45 1100.63 450.819C1109.49 440.189 1108.58 430.478 1097.89 421.686C1087.21 412.894 1086.29 403.183 1095.15 392.552C1104.01 381.922 1103.1 372.211 1092.41 363.419C1081.73 354.627 1080.81 344.916 1089.67 334.285C1098.53 323.655 1097.62 313.944 1086.93 305.152" stroke="#404C69"/>
        <path d="M1124.19 595.903C1113.51 587.111 1112.59 577.4 1121.45 566.77C1130.31 556.139 1129.4 546.428 1118.71 537.636C1108.03 528.844 1107.11 519.133 1115.97 508.503C1124.83 497.872 1123.92 488.161 1113.23 479.369C1102.54 470.577 1101.63 460.866 1110.49 450.236C1119.35 439.605 1118.44 429.894 1107.75 421.102C1097.06 412.31 1096.15 402.599 1105.01 391.969C1113.87 381.338 1112.95 371.627 1102.27 362.835C1091.58 354.043 1090.67 344.332 1099.53 333.702C1108.39 323.071 1107.47 313.36 1096.79 304.568" stroke="#404C69"/>
        <path d="M1134.05 595.319C1123.36 586.527 1122.45 576.816 1131.31 566.186C1140.17 555.555 1139.25 545.844 1128.57 537.052C1117.88 528.26 1116.97 518.549 1125.83 507.919C1134.69 497.289 1133.77 487.577 1123.09 478.785C1112.4 469.993 1111.49 460.282 1120.35 449.652C1129.21 439.022 1128.29 429.31 1117.61 420.518C1106.92 411.727 1106.01 402.015 1114.87 391.385C1123.72 380.755 1122.81 371.043 1112.13 362.251C1101.44 353.46 1100.53 343.748 1109.38 333.118C1118.24 322.488 1117.33 312.776 1106.64 303.984" stroke="#404C69"/>
        <path d="M1143.9 594.736C1133.22 585.944 1132.31 576.233 1141.16 565.602C1150.02 554.972 1149.11 545.261 1138.42 536.469C1127.74 527.677 1126.82 517.966 1135.68 507.335C1144.54 496.705 1143.63 486.994 1132.94 478.202C1122.26 469.41 1121.34 459.699 1130.2 449.068C1139.06 438.438 1138.15 428.727 1127.46 419.935C1116.78 411.143 1115.86 401.432 1124.72 390.801C1133.58 380.171 1132.67 370.46 1121.98 361.668C1111.3 352.876 1110.38 343.165 1119.24 332.534C1128.1 321.904 1127.19 312.193 1116.5 303.401" stroke="#404C69"/>
        <path d="M1153.76 594.152C1143.08 585.36 1142.16 575.649 1151.02 565.019C1159.88 554.388 1158.97 544.677 1148.28 535.885C1137.6 527.093 1136.68 517.382 1145.54 506.752C1154.4 496.121 1153.49 486.41 1142.8 477.618C1132.11 468.826 1131.2 459.115 1140.06 448.485C1148.92 437.854 1148 428.143 1137.32 419.351C1126.63 410.559 1125.72 400.848 1134.58 390.218C1143.44 379.587 1142.52 369.876 1131.84 361.084C1121.15 352.292 1120.24 342.581 1129.1 331.951C1137.96 321.32 1137.04 311.609 1126.36 302.817" stroke="#404C69"/>
        <path d="M1163.62 593.569C1152.93 584.777 1152.02 575.065 1160.88 564.435C1169.74 553.805 1168.82 544.093 1158.14 535.302C1147.45 526.51 1146.54 516.798 1155.4 506.168C1164.26 495.538 1163.34 485.827 1152.66 477.035C1141.97 468.243 1141.06 458.531 1149.92 447.901C1158.77 437.271 1157.86 427.56 1147.18 418.768C1136.49 409.976 1135.58 400.264 1144.44 389.634C1153.29 379.004 1152.38 369.293 1141.69 360.501C1131.01 351.709 1130.1 341.998 1138.95 331.367C1147.81 320.737 1146.9 311.026 1136.21 302.234" stroke="#404C69"/>
    </g>
    <g opacity="0.2">
        <path d="M-41.1014 137.704L-123.018 161.371C-124.364 161.76 -125.409 162.825 -125.771 164.179L-147.542 245.428C-147.9 246.763 -147.543 248.188 -146.599 249.196L-87.847 311.981C-86.8055 313.094 -85.222 313.518 -83.7635 313.075L-1.49052 288.078C-0.168423 287.677 0.85273 286.621 1.21036 285.286L22.9811 204.037C23.3438 202.683 22.9717 201.239 22.0003 200.229L-37.1082 138.774C-38.1375 137.704 -39.6749 137.292 -41.1014 137.704Z" stroke="#7B849A"/>
        <path d="M906.481 492.03L824.564 515.697C823.218 516.085 822.174 517.151 821.811 518.504L800.04 599.754C799.683 601.088 800.039 602.513 800.983 603.522L859.736 666.306C860.777 667.419 862.361 667.843 863.819 667.4L946.092 642.404C947.414 642.002 948.435 640.946 948.793 639.612L970.564 558.362C970.926 557.009 970.554 555.564 969.583 554.554L910.474 493.1C909.445 492.03 907.908 491.618 906.481 492.03Z" stroke="#7B849A"/>
        <path d="M971.017 606.638L889.101 630.305C887.754 630.694 886.71 631.759 886.347 633.112L864.576 714.362C864.219 715.697 864.575 717.121 865.519 718.13L924.272 780.915C925.313 782.028 926.897 782.452 928.355 782.009L1010.63 757.012C1011.95 756.61 1012.97 755.555 1013.33 754.22L1035.1 672.971C1035.46 671.617 1035.09 670.172 1034.12 669.162L975.01 607.708C973.981 606.638 972.444 606.226 971.017 606.638Z" stroke="#7B849A"/>
        <path d="M1019.49 421.888L937.569 445.554C936.223 445.943 935.179 447.008 934.816 448.362L913.045 529.611C912.688 530.946 913.044 532.371 913.988 533.38L972.74 596.164C973.782 597.277 975.365 597.701 976.824 597.258L1059.1 572.261C1060.42 571.86 1061.44 570.804 1061.8 569.469L1083.57 488.22C1083.93 486.866 1083.56 485.422 1082.59 484.412L1023.48 422.957C1022.45 421.887 1020.91 421.475 1019.49 421.888Z" stroke="#7B849A"/>
        <path d="M858.341 671.692L776.424 695.359C775.078 695.748 774.034 696.813 773.671 698.166L751.9 779.416C751.543 780.75 751.899 782.175 752.843 783.184L811.595 845.968C812.637 847.081 814.22 847.506 815.679 847.062L897.952 822.066C899.274 821.664 900.295 820.608 900.653 819.274L922.423 738.024C922.786 736.671 922.414 735.226 921.443 734.216L862.334 672.762C861.305 671.692 859.767 671.28 858.341 671.692Z" stroke="#7B849A"/>
        <path d="M22.6584 255.21L-59.2583 278.877C-60.6045 279.266 -61.649 280.331 -62.0117 281.685L-83.7825 362.934C-84.1401 364.269 -83.7835 365.693 -82.8394 366.702L-24.0872 429.487C-23.0457 430.6 -21.4622 431.024 -20.0038 430.581L62.2692 405.584C63.5913 405.182 64.6125 404.127 64.9701 402.792L86.7409 321.543C87.1035 320.189 86.7315 318.744 85.7601 317.734L26.6515 256.28C25.6222 255.21 24.0848 254.798 22.6584 255.21Z" stroke="#7B849A"/>
        <path d="M87.1945 369.819L5.27787 393.485C3.93163 393.874 2.88709 394.939 2.52441 396.293L-19.2463 477.542C-19.6039 478.877 -19.2474 480.302 -18.3033 481.311L40.4489 544.095C41.4904 545.208 43.0739 545.632 44.5324 545.189L126.805 520.192C128.127 519.791 129.149 518.735 129.506 517.4L151.277 436.151C151.64 434.797 151.268 433.353 150.296 432.343L91.1877 370.889C90.1584 369.818 88.621 369.407 87.1945 369.819Z" stroke="#7B849A"/>
        <path d="M-73.95 619.623L-155.867 643.29C-157.213 643.679 -158.257 644.744 -158.62 646.097L-180.391 727.347C-180.748 728.682 -180.392 730.106 -179.448 731.115L-120.696 793.9C-119.654 795.013 -118.071 795.437 -116.612 794.994L-34.3392 769.997C-33.0171 769.595 -31.9959 768.54 -31.6383 767.205L-9.86755 685.956C-9.50487 684.602 -9.87693 683.157 -10.8483 682.147L-69.9569 620.693C-70.9862 619.623 -72.5236 619.211 -73.95 619.623Z" stroke="#7B849A"/>
        <path d="M135.663 185.068L53.7466 208.735C52.4004 209.124 51.3558 210.189 50.9932 211.542L29.2224 292.792C28.8648 294.127 29.2214 295.551 30.1655 296.56L88.9176 359.345C89.9591 360.457 91.5427 360.882 93.0011 360.439L175.274 335.442C176.596 335.04 177.617 333.985 177.975 332.65L199.746 251.401C200.108 250.047 199.736 248.602 198.765 247.592L139.656 186.138C138.627 185.068 137.09 184.656 135.663 185.068Z" stroke="#7B849A"/>
        <path d="M-25.4813 434.873L-107.398 458.539C-108.744 458.928 -109.789 459.993 -110.151 461.347L-131.922 542.596C-132.28 543.931 -131.923 545.356 -130.979 546.365L-72.2269 609.149C-71.1854 610.262 -69.6019 610.686 -68.1434 610.243L14.1296 585.247C15.4517 584.845 16.4728 583.789 16.8305 582.455L38.6012 501.205C38.9639 499.852 38.5918 498.407 37.6204 497.397L-21.4881 435.943C-22.5174 434.873 -24.0548 434.461 -25.4813 434.873Z" stroke="#7B849A"/>
        <path d="M1083.25 539.394L1001.33 563.06C999.982 563.449 998.938 564.514 998.575 565.868L976.804 647.117C976.447 648.452 976.803 649.877 977.748 650.886L1036.5 713.67C1037.54 714.783 1039.12 715.207 1040.58 714.764L1122.86 689.768C1124.18 689.366 1125.2 688.31 1125.56 686.976L1147.33 605.726C1147.69 604.373 1147.32 602.928 1146.35 601.918L1087.24 540.464C1086.21 539.394 1084.67 538.982 1083.25 539.394Z" stroke="#7B849A"/>
        <path d="M1147.78 654.002L1065.87 677.669C1064.52 678.058 1063.47 679.123 1063.11 680.476L1041.34 761.726C1040.98 763.061 1041.34 764.485 1042.28 765.494L1101.04 828.278C1102.08 829.391 1103.66 829.816 1105.12 829.373L1187.39 804.376C1188.71 803.974 1189.74 802.919 1190.09 801.584L1211.86 720.335C1212.23 718.981 1211.86 717.536 1210.88 716.526L1151.78 655.072C1150.75 654.002 1149.21 653.59 1147.78 654.002Z" stroke="#7B849A"/>
        <path d="M1196.25 469.251L1114.33 492.918C1112.99 493.307 1111.94 494.372 1111.58 495.726L1089.81 576.975C1089.45 578.31 1089.81 579.735 1090.75 580.743L1149.5 643.528C1150.55 644.641 1152.13 645.065 1153.59 644.622L1235.86 619.625C1237.18 619.224 1238.2 618.168 1238.56 616.833L1260.33 535.584C1260.7 534.23 1260.32 532.786 1259.35 531.776L1200.24 470.321C1199.21 469.251 1197.68 468.839 1196.25 469.251Z" stroke="#7B849A"/>
        <path d="M199.423 302.574L117.506 326.241C116.16 326.63 115.116 327.695 114.753 329.049L92.9822 410.298C92.6246 411.633 92.9811 413.057 93.9252 414.066L152.677 476.851C153.719 477.964 155.302 478.388 156.761 477.945L239.034 452.948C240.356 452.546 241.377 451.491 241.735 450.156L263.505 368.907C263.868 367.553 263.496 366.108 262.525 365.099L203.416 303.644C202.387 302.574 200.849 302.162 199.423 302.574Z" stroke="#7B849A"/>
        <path d="M38.2775 552.379L-43.6391 576.045C-44.9854 576.434 -46.0299 577.499 -46.3926 578.853L-68.1633 660.102C-68.5209 661.437 -68.1644 662.862 -67.2203 663.871L-8.4681 726.655C-7.4266 727.768 -5.84307 728.192 -4.38462 727.749L77.8884 702.753C79.2105 702.351 80.2316 701.295 80.5893 699.961L102.36 618.711C102.723 617.358 102.351 615.913 101.379 614.903L42.2707 553.449C41.2414 552.379 39.704 551.967 38.2775 552.379Z" stroke="#7B849A"/>
        <path d="M263.959 417.183L182.043 440.849C180.696 441.238 179.652 442.303 179.289 443.657L157.518 524.906C157.161 526.241 157.517 527.666 158.461 528.675L217.214 591.459C218.255 592.572 219.839 592.996 221.297 592.553L303.57 567.556C304.892 567.155 305.913 566.099 306.271 564.765L328.042 483.515C328.404 482.162 328.032 480.717 327.061 479.707L267.952 418.253C266.923 417.183 265.386 416.771 263.959 417.183Z" stroke="#7B849A"/>
        <path d="M102.814 666.987L20.897 690.654C19.5508 691.043 18.5062 692.108 18.1435 693.461L-3.62718 774.711C-3.98481 776.046 -3.62825 777.47 -2.68413 778.479L56.068 841.263C57.1095 842.376 58.6931 842.801 60.1515 842.358L142.425 817.361C143.747 816.959 144.768 815.904 145.125 814.569L166.896 733.32C167.259 731.966 166.887 730.521 165.915 729.511L106.807 668.057C105.777 666.987 104.24 666.575 102.814 666.987Z" stroke="#7B849A"/>
        <path d="M312.428 232.432L230.511 256.099C229.165 256.488 228.12 257.553 227.758 258.906L205.987 340.156C205.629 341.49 205.986 342.915 206.93 343.924L265.682 406.708C266.724 407.821 268.307 408.246 269.766 407.802L352.039 382.806C353.361 382.404 354.382 381.348 354.74 380.014L376.51 298.764C376.873 297.411 376.501 295.966 375.53 294.956L316.421 233.502C315.392 232.432 313.854 232.02 312.428 232.432Z" stroke="#7B849A"/>
        <path d="M151.282 482.237L69.3658 505.903C68.0195 506.292 66.975 507.357 66.6123 508.711L44.8416 589.96C44.4839 591.295 44.8405 592.72 45.7846 593.729L104.537 656.513C105.578 657.626 107.162 658.05 108.62 657.607L190.893 632.61C192.215 632.209 193.237 631.153 193.594 629.818L215.365 548.569C215.728 547.215 215.355 545.771 214.384 544.761L155.276 483.306C154.246 482.236 152.709 481.824 151.282 482.237Z" stroke="#7B849A"/>
        <path d="M1260.01 586.758L1178.09 610.424C1176.75 610.813 1175.7 611.878 1175.34 613.232L1153.57 694.481C1153.21 695.816 1153.57 697.241 1154.51 698.25L1213.26 761.034C1214.31 762.147 1215.89 762.571 1217.35 762.128L1299.62 737.131C1300.94 736.73 1301.96 735.674 1302.32 734.339L1324.09 653.09C1324.46 651.736 1324.08 650.292 1323.11 649.282L1264 587.828C1262.97 586.757 1261.44 586.346 1260.01 586.758Z" stroke="#7B849A"/>
        <path d="M1373.01 516.615L1291.1 540.282C1289.75 540.671 1288.71 541.736 1288.34 543.09L1266.57 624.339C1266.22 625.674 1266.57 627.098 1267.52 628.107L1326.27 690.892C1327.31 692.005 1328.89 692.429 1330.35 691.986L1412.63 666.989C1413.95 666.587 1414.97 665.532 1415.33 664.197L1437.1 582.948C1437.46 581.594 1437.09 580.149 1436.12 579.14L1377.01 517.685C1375.98 516.615 1374.44 516.203 1373.01 516.615Z" stroke="#7B849A"/>
        <path d="M376.188 349.938L294.271 373.605C292.925 373.994 291.88 375.059 291.518 376.412L269.747 457.662C269.389 458.996 269.746 460.421 270.69 461.43L329.442 524.214C330.484 525.327 332.067 525.752 333.526 525.309L415.799 500.312C417.121 499.91 418.142 498.855 418.499 497.52L440.27 416.27C440.633 414.917 440.261 413.472 439.289 412.462L380.181 351.008C379.152 349.938 377.614 349.526 376.188 349.938Z" stroke="#7B849A"/>
        <path d="M215.043 599.743L133.127 623.409C131.78 623.798 130.736 624.863 130.373 626.217L108.602 707.466C108.245 708.801 108.601 710.226 109.545 711.235L168.298 774.019C169.339 775.132 170.923 775.556 172.381 775.113L254.654 750.116C255.976 749.715 256.997 748.659 257.355 747.324L279.126 666.075C279.488 664.721 279.116 663.277 278.145 662.267L219.036 600.813C218.007 599.742 216.47 599.331 215.043 599.743Z" stroke="#7B849A"/>
        <path d="M440.724 464.547L358.807 488.213C357.461 488.602 356.416 489.667 356.054 491.021L334.283 572.27C333.925 573.605 334.282 575.03 335.226 576.039L393.978 638.823C395.02 639.936 396.603 640.36 398.062 639.917L480.335 614.92C481.657 614.519 482.678 613.463 483.036 612.128L504.806 530.879C505.169 529.525 504.797 528.081 503.825 527.071L444.717 465.617C443.688 464.546 442.15 464.134 440.724 464.547Z" stroke="#7B849A"/>
        <path d="M489.193 279.796L407.276 303.463C405.93 303.852 404.885 304.917 404.522 306.27L382.752 387.52C382.394 388.854 382.751 390.279 383.695 391.288L442.447 454.072C443.488 455.185 445.072 455.61 446.53 455.166L528.803 430.17C530.126 429.768 531.147 428.712 531.504 427.378L553.275 346.128C553.638 344.775 553.266 343.33 552.294 342.32L493.186 280.866C492.156 279.796 490.619 279.384 489.193 279.796Z" stroke="#7B849A"/>
        <path d="M328.047 529.6L246.13 553.267C244.784 553.656 243.74 554.721 243.377 556.075L221.606 637.324C221.249 638.659 221.605 640.084 222.549 641.092L281.301 703.877C282.343 704.99 283.926 705.414 285.385 704.971L367.658 679.974C368.98 679.573 370.001 678.517 370.359 677.182L392.13 595.933C392.492 594.579 392.12 593.135 391.149 592.125L332.04 530.67C331.011 529.6 329.474 529.188 328.047 529.6Z" stroke="#7B849A"/>
        <path d="M1436.77 634.122L1354.86 657.788C1353.51 658.177 1352.47 659.242 1352.1 660.596L1330.33 741.845C1329.98 743.18 1330.33 744.605 1331.28 745.614L1390.03 808.398C1391.07 809.511 1392.65 809.935 1394.11 809.492L1476.39 784.495C1477.71 784.094 1478.73 783.038 1479.09 781.703L1500.86 700.454C1501.22 699.1 1500.85 697.656 1499.88 696.646L1440.77 635.191C1439.74 634.121 1438.2 633.709 1436.77 634.122Z" stroke="#7B849A"/>
        <path d="M1549.78 563.979L1467.86 587.646C1466.52 588.035 1465.47 589.1 1465.11 590.453L1443.34 671.703C1442.98 673.038 1443.34 674.462 1444.28 675.471L1503.03 738.256C1504.07 739.369 1505.66 739.793 1507.12 739.35L1589.39 714.353C1590.71 713.951 1591.73 712.896 1592.09 711.561L1613.86 630.312C1614.22 628.958 1613.85 627.513 1612.88 626.503L1553.77 565.049C1552.74 563.979 1551.21 563.567 1549.78 563.979Z" stroke="#7B849A"/>
        <path d="M552.952 397.302L471.036 420.969C469.689 421.358 468.645 422.423 468.282 423.776L446.511 505.026C446.154 506.36 446.51 507.785 447.455 508.794L506.207 571.578C507.248 572.691 508.832 573.116 510.29 572.673L592.563 547.676C593.885 547.274 594.906 546.219 595.264 544.884L617.035 463.634C617.397 462.281 617.025 460.836 616.054 459.826L556.945 398.372C555.916 397.302 554.379 396.89 552.952 397.302Z" stroke="#7B849A"/>
        <path d="M391.808 647.107L309.891 670.773C308.545 671.162 307.5 672.227 307.138 673.581L285.367 754.83C285.009 756.165 285.366 757.59 286.31 758.599L345.062 821.383C346.104 822.496 347.687 822.92 349.146 822.477L431.419 797.48C432.741 797.079 433.762 796.023 434.12 794.688L455.89 713.439C456.253 712.085 455.881 710.641 454.909 709.631L395.801 648.176C394.772 647.106 393.234 646.694 391.808 647.107Z" stroke="#7B849A"/>
        <path d="M617.488 511.91L535.572 535.577C534.226 535.966 533.181 537.031 532.818 538.385L511.048 619.634C510.69 620.969 511.047 622.394 511.991 623.403L570.743 686.187C571.784 687.3 573.368 687.724 574.826 687.281L657.099 662.284C658.421 661.883 659.443 660.827 659.8 659.492L681.571 578.243C681.934 576.889 681.562 575.445 680.59 574.435L621.482 512.98C620.452 511.91 618.915 511.498 617.488 511.91Z" stroke="#7B849A"/>
        <path d="M665.956 327.16L584.04 350.826C582.693 351.215 581.649 352.28 581.286 353.634L559.515 434.883C559.158 436.218 559.514 437.643 560.458 438.652L619.211 501.436C620.252 502.549 621.836 502.973 623.294 502.53L705.567 477.534C706.889 477.132 707.91 476.076 708.268 474.742L730.039 393.492C730.401 392.139 730.029 390.694 729.058 389.684L669.949 328.23C668.92 327.16 667.383 326.748 665.956 327.16Z" stroke="#7B849A"/>
        <path d="M504.812 576.964L422.895 600.631C421.549 601.02 420.504 602.085 420.142 603.439L398.371 684.688C398.013 686.023 398.37 687.447 399.314 688.456L458.066 751.241C459.108 752.354 460.691 752.778 462.15 752.335L544.423 727.338C545.745 726.936 546.766 725.881 547.123 724.546L568.894 643.297C569.257 641.943 568.885 640.498 567.913 639.489L508.805 578.034C507.776 576.964 506.238 576.552 504.812 576.964Z" stroke="#7B849A"/>
        <path d="M1613.54 681.485L1531.62 705.152C1530.28 705.541 1529.23 706.606 1528.87 707.96L1507.1 789.209C1506.74 790.544 1507.1 791.968 1508.04 792.977L1566.79 855.762C1567.83 856.875 1569.42 857.299 1570.88 856.856L1653.15 831.859C1654.47 831.457 1655.49 830.402 1655.85 829.067L1677.62 747.818C1677.98 746.464 1677.61 745.019 1676.64 744.01L1617.53 682.555C1616.5 681.485 1614.97 681.073 1613.54 681.485Z" stroke="#7B849A"/>
        <path d="M1726.54 611.343L1644.63 635.01C1643.28 635.399 1642.24 636.464 1641.87 637.817L1620.1 719.067C1619.75 720.401 1620.1 721.826 1621.05 722.835L1679.8 785.619C1680.84 786.732 1682.42 787.157 1683.88 786.714L1766.15 761.717C1767.48 761.315 1768.5 760.26 1768.86 758.925L1790.63 677.675C1790.99 676.322 1790.62 674.877 1789.65 673.867L1730.54 612.413C1729.51 611.343 1727.97 610.931 1726.54 611.343Z" stroke="#7B849A"/>
        <path d="M729.716 444.666L647.799 468.333C646.453 468.722 645.409 469.787 645.046 471.14L623.275 552.39C622.918 553.724 623.274 555.149 624.218 556.158L682.97 618.942C684.012 620.055 685.595 620.48 687.054 620.037L769.327 595.04C770.649 594.638 771.67 593.583 772.028 592.248L793.798 510.998C794.161 509.645 793.789 508.2 792.818 507.19L733.709 445.736C732.68 444.666 731.142 444.254 729.716 444.666Z" stroke="#7B849A"/>
        <path d="M568.571 694.47L486.655 718.137C485.309 718.526 484.264 719.591 483.901 720.945L462.131 802.194C461.773 803.529 462.13 804.954 463.074 805.962L521.826 868.747C522.867 869.86 524.451 870.284 525.909 869.841L608.182 844.844C609.504 844.443 610.526 843.387 610.883 842.052L632.654 760.803C633.017 759.449 632.645 758.005 631.673 756.995L572.565 695.54C571.535 694.47 569.998 694.058 568.571 694.47Z" stroke="#7B849A"/>
        <path d="M794.253 559.274L712.336 582.941C710.99 583.33 709.946 584.395 709.583 585.748L687.812 666.998C687.455 668.333 687.811 669.757 688.755 670.766L747.507 733.551C748.549 734.664 750.133 735.088 751.591 734.645L833.864 709.648C835.186 709.246 836.207 708.191 836.565 706.856L858.336 625.607C858.698 624.253 858.326 622.808 857.355 621.798L798.246 560.344C797.217 559.274 795.68 558.862 794.253 559.274Z" stroke="#7B849A"/>
        <path d="M842.721 374.524L760.805 398.19C759.458 398.579 758.414 399.644 758.051 400.998L736.281 482.247C735.923 483.582 736.279 485.007 737.224 486.016L795.976 548.8C797.017 549.913 798.601 550.337 800.059 549.894L882.332 524.898C883.654 524.496 884.675 523.44 885.033 522.106L906.804 440.856C907.167 439.503 906.794 438.058 905.823 437.048L846.715 375.594C845.685 374.524 844.148 374.112 842.721 374.524Z" stroke="#7B849A"/>
        <path d="M681.576 624.328L599.66 647.995C598.313 648.384 597.269 649.449 596.906 650.802L575.136 732.052C574.778 733.387 575.134 734.811 576.079 735.82L634.831 798.605C635.872 799.718 637.456 800.142 638.914 799.699L721.187 774.702C722.509 774.3 723.53 773.245 723.888 771.91L745.659 690.661C746.022 689.307 745.649 687.862 744.678 686.852L685.569 625.398C684.54 624.328 683.003 623.916 681.576 624.328Z" stroke="#7B849A"/>
        <path d="M1903.31 658.707L1821.39 682.374C1820.04 682.763 1819 683.828 1818.64 685.181L1796.87 766.431C1796.51 767.765 1796.87 769.19 1797.81 770.199L1856.56 832.983C1857.6 834.096 1859.19 834.521 1860.65 834.077L1942.92 809.081C1944.24 808.679 1945.26 807.623 1945.62 806.289L1967.39 725.039C1967.75 723.686 1967.38 722.241 1966.41 721.231L1907.3 659.777C1906.27 658.707 1904.73 658.295 1903.31 658.707Z" stroke="#7B849A"/>
    </g>
    <rect opacity="0.11" x="1694.67" y="503.833" width="69.0601" height="69.0601" rx="5" transform="rotate(135 1694.67 503.833)" fill="url(#paint0_linear_0_1)"/>
    <rect opacity="0.27" x="1028.47" width="51.5832" height="51.5832" rx="2" transform="rotate(45 1028.47 0)" fill="url(#paint1_linear_0_1)"/>
    <rect opacity="0.27" x="1048.05" y="574" width="22.6989" height="22.6989" rx="2" transform="rotate(45 1048.05 574)" fill="url(#paint2_linear_0_1)"/>
    <defs>
        <linearGradient id="paint0_linear_0_1" x1="1716.59" y1="403.472" x2="1741.55" y2="619.772" gradientUnits="userSpaceOnUse">
            <stop stop-color="white"/>
            <stop offset="1" stop-color="white" stop-opacity="0"/>
        </linearGradient>
        <linearGradient id="paint1_linear_0_1" x1="1044.85" y1="-74.9625" x2="1063.49" y2="86.5988" gradientUnits="userSpaceOnUse">
            <stop stop-color="white"/>
            <stop offset="1" stop-color="white" stop-opacity="0"/>
        </linearGradient>
        <linearGradient id="paint2_linear_0_1" x1="1055.26" y1="541.013" x2="1063.46" y2="612.107" gradientUnits="userSpaceOnUse">
            <stop stop-color="white"/>
            <stop offset="1" stop-color="white" stop-opacity="0"/>
        </linearGradient>
    </defs>
</svg>

