<svg width="375" height="662" viewBox="0 0 375 662" fill="none" xmlns="http://www.w3.org/2000/svg">
    <g opacity="0.2">
        <path d="M0.675718 280.873L-49.8114 296.113C-51.1168 296.507 -52.1171 297.556 -52.4592 298.89L-65.9543 351.51C-66.2915 352.825 -65.9428 354.236 -65.0282 355.257L-28.8178 395.685C-27.7573 396.869 -26.1203 397.328 -24.6352 396.856L26.0716 380.76C27.3523 380.354 28.3294 379.314 28.6666 377.999L42.1617 325.379C42.5038 324.045 42.1397 322.614 41.1977 321.591L4.76777 282.019C3.71889 280.879 2.12932 280.434 0.675718 280.873Z" stroke="#7B849A"/>
        <path d="M41.727 357.04L-8.76015 372.28C-10.0655 372.674 -11.0658 373.723 -11.4079 375.057L-24.903 427.677C-25.2402 428.992 -24.8915 430.403 -23.9769 431.424L12.2334 471.853C13.2939 473.037 14.931 473.495 16.4161 473.024L67.1228 456.927C68.4036 456.521 69.3807 455.481 69.7179 454.167L83.213 401.546C83.5551 400.212 83.1909 398.781 82.249 397.758L45.819 358.186C44.7702 357.047 43.1806 356.602 41.727 357.04Z" stroke="#7B849A"/>
        <path d="M72.5576 234.258L22.0704 249.497C20.765 249.891 19.7647 250.94 19.4226 252.274L5.92755 304.895C5.59034 306.209 5.93904 307.62 6.85366 308.641L43.064 349.07C44.1245 350.254 45.7616 350.712 47.2466 350.241L97.9534 334.145C99.2342 333.738 100.211 332.699 100.548 331.384L114.044 278.764C114.386 277.43 114.021 275.998 113.08 274.975L76.6496 235.403C75.6007 234.264 74.0112 233.819 72.5576 234.258Z" stroke="#7B849A"/>
        <path d="M-29.9459 400.274L-80.433 415.514C-81.7384 415.908 -82.7387 416.957 -83.0808 418.291L-96.5759 470.911C-96.9131 472.226 -96.5644 473.637 -95.6498 474.658L-59.4394 515.086C-58.3789 516.27 -56.7419 516.729 -55.2568 516.257L-4.55002 500.161C-3.26924 499.755 -2.29216 498.715 -1.95495 497.4L11.5401 444.78C11.8822 443.446 11.5181 442.015 10.5762 440.992L-25.8538 401.42C-26.9027 400.28 -28.4923 399.835 -29.9459 400.274Z" stroke="#7B849A"/>
        <path d="M113.115 312.351L62.6276 327.59C61.3222 327.984 60.3219 329.033 59.9798 330.368L46.4847 382.988C46.1475 384.302 46.4962 385.713 47.4108 386.734L83.6211 427.163C84.6816 428.347 86.3187 428.805 87.8038 428.334L138.511 412.238C139.791 411.831 140.768 410.792 141.106 409.477L154.601 356.857C154.943 355.523 154.579 354.091 153.637 353.068L117.207 313.496C116.158 312.357 114.568 311.912 113.115 312.351Z" stroke="#7B849A"/>
        <path d="M10.6108 478.367L-39.8764 493.607C-41.1817 494.001 -42.182 495.05 -42.5242 496.384L-56.0192 549.004C-56.3564 550.319 -56.0077 551.73 -55.0931 552.751L-18.8828 593.179C-17.8223 594.364 -16.1852 594.822 -14.7002 594.35L36.0066 578.254C37.2874 577.848 38.2645 576.808 38.6017 575.493L52.0968 522.873C52.4389 521.539 52.0747 520.108 51.1328 519.085L14.7028 479.513C13.654 478.373 12.0644 477.928 10.6108 478.367Z" stroke="#7B849A"/>
        <path d="M154.166 388.518L103.679 403.757C102.373 404.151 101.373 405.201 101.031 406.535L87.5359 459.155C87.1987 460.47 87.5474 461.88 88.4621 462.901L124.672 503.33C125.733 504.514 127.37 504.972 128.855 504.501L179.562 488.405C180.843 487.998 181.82 486.959 182.157 485.644L195.652 433.024C195.994 431.69 195.63 430.259 194.688 429.235L158.258 389.663C157.209 388.524 155.62 388.079 154.166 388.518Z" stroke="#7B849A"/>
        <path d="M51.6625 554.534L1.1754 569.774C-0.12997 570.168 -1.13027 571.217 -1.4724 572.551L-14.9675 625.171C-15.3047 626.486 -14.956 627.897 -14.0414 628.918L22.169 669.347C23.2295 670.531 24.8665 670.989 26.3516 670.518L77.0584 654.422C78.3392 654.015 79.3162 652.975 79.6534 651.661L93.1485 599.04C93.4906 597.706 93.1265 596.275 92.1846 595.252L55.7546 555.68C54.7057 554.541 53.1161 554.096 51.6625 554.534Z" stroke="#7B849A"/>
        <path d="M184.997 265.735L134.509 280.975C133.204 281.369 132.204 282.418 131.862 283.752L118.367 336.372C118.029 337.687 118.378 339.098 119.293 340.119L155.503 380.547C156.563 381.731 158.201 382.19 159.686 381.718L210.392 365.622C211.673 365.216 212.65 364.176 212.987 362.861L226.483 310.241C226.825 308.907 226.46 307.476 225.519 306.453L189.089 266.881C188.04 265.741 186.45 265.296 184.997 265.735Z" stroke="#7B849A"/>
        <path d="M82.4931 431.752L32.006 446.991C30.7006 447.385 29.7003 448.435 29.3582 449.769L15.8631 502.389C15.5259 503.703 15.8746 505.114 16.7892 506.135L52.9995 546.564C54.06 547.748 55.6971 548.206 57.1822 547.735L107.889 531.639C109.17 531.232 110.147 530.193 110.484 528.878L123.979 476.258C124.321 474.924 123.957 473.493 123.015 472.469L86.5851 432.897C85.5363 431.758 83.9467 431.313 82.4931 431.752Z" stroke="#7B849A"/>
        <path d="M225.554 343.828L175.067 359.068C173.762 359.462 172.761 360.511 172.419 361.845L158.924 414.465C158.587 415.78 158.936 417.19 159.85 418.212L196.061 458.64C197.121 459.824 198.758 460.283 200.243 459.811L250.95 443.715C252.231 443.308 253.208 442.269 253.545 440.954L267.04 388.334C267.382 387 267.018 385.569 266.076 384.546L229.646 344.974C228.597 343.834 227.008 343.389 225.554 343.828Z" stroke="#7B849A"/>
        <path d="M123.05 509.845L72.5631 525.084C71.2577 525.478 70.2574 526.528 69.9153 527.862L56.4202 580.482C56.083 581.796 56.4317 583.207 57.3463 584.228L93.5567 624.657C94.6172 625.841 96.2542 626.299 97.7393 625.828L148.446 609.732C149.727 609.325 150.704 608.286 151.041 606.971L164.536 554.351C164.878 553.017 164.514 551.586 163.572 550.562L127.142 510.99C126.093 509.851 124.504 509.406 123.05 509.845Z" stroke="#7B849A"/>
        <path d="M266.605 419.995L216.118 435.235C214.813 435.629 213.813 436.678 213.47 438.012L199.975 490.632C199.638 491.947 199.987 493.358 200.902 494.379L237.112 534.807C238.172 535.991 239.809 536.45 241.294 535.978L292.001 519.882C293.282 519.476 294.259 518.436 294.596 517.121L308.091 464.501C308.434 463.167 308.069 461.736 307.127 460.713L270.697 421.141C269.649 420.001 268.059 419.556 266.605 419.995Z" stroke="#7B849A"/>
        <path d="M164.101 586.012L113.614 601.251C112.309 601.645 111.309 602.695 110.967 604.029L97.4715 656.649C97.1343 657.964 97.483 659.374 98.3976 660.395L134.608 700.824C135.668 702.008 137.305 702.466 138.791 701.995L189.497 685.899C190.778 685.492 191.755 684.453 192.092 683.138L205.587 630.518C205.93 629.184 205.565 627.753 204.624 626.73L168.194 587.157C167.145 586.018 165.555 585.573 164.101 586.012Z" stroke="#7B849A"/>
        <path d="M297.436 297.212L246.949 312.452C245.643 312.846 244.643 313.895 244.301 315.229L230.806 367.849C230.469 369.164 230.817 370.575 231.732 371.596L267.942 412.025C269.003 413.209 270.64 413.667 272.125 413.196L322.832 397.1C324.113 396.693 325.09 395.653 325.427 394.339L338.922 341.718C339.264 340.384 338.9 338.953 337.958 337.93L301.528 298.358C300.479 297.219 298.89 296.774 297.436 297.212Z" stroke="#7B849A"/>
        <path d="M194.932 463.229L144.445 478.469C143.14 478.863 142.139 479.912 141.797 481.246L128.302 533.866C127.965 535.181 128.314 536.592 129.228 537.613L165.439 578.041C166.499 579.225 168.136 579.684 169.621 579.212L220.328 563.116C221.609 562.71 222.586 561.67 222.923 560.355L236.418 507.735C236.76 506.401 236.396 504.97 235.454 503.947L199.024 464.375C197.975 463.235 196.386 462.79 194.932 463.229Z" stroke="#7B849A"/>
        <path d="M337.993 375.305L287.506 390.545C286.201 390.939 285.2 391.988 284.858 393.322L271.363 445.942C271.026 447.257 271.375 448.668 272.289 449.689L308.5 490.118C309.56 491.302 311.197 491.76 312.682 491.289L363.389 475.192C364.67 474.786 365.647 473.746 365.984 472.432L379.479 419.811C379.821 418.477 379.457 417.046 378.515 416.023L342.085 376.451C341.036 375.312 339.447 374.867 337.993 375.305Z" stroke="#7B849A"/>
        <path d="M235.49 541.322L185.003 556.562C183.697 556.956 182.697 558.005 182.355 559.339L168.86 611.959C168.522 613.274 168.871 614.685 169.786 615.706L205.996 656.134C207.057 657.318 208.694 657.777 210.179 657.305L260.886 641.209C262.166 640.803 263.143 639.763 263.481 638.448L276.976 585.828C277.318 584.494 276.954 583.063 276.012 582.04L239.582 542.468C238.533 541.328 236.943 540.883 235.49 541.322Z" stroke="#7B849A"/>
        <path d="M379.044 451.473L328.557 466.712C327.252 467.106 326.252 468.155 325.909 469.489L312.414 522.11C312.077 523.424 312.426 524.835 313.34 525.856L349.551 566.285C350.611 567.469 352.248 567.927 353.733 567.456L404.44 551.36C405.721 550.953 406.698 549.914 407.035 548.599L420.53 495.979C420.872 494.645 420.508 493.213 419.566 492.19L383.136 452.618C382.088 451.479 380.498 451.034 379.044 451.473Z" stroke="#7B849A"/>
        <path d="M276.541 617.489L226.054 632.729C224.748 633.123 223.748 634.172 223.406 635.506L209.911 688.126C209.574 689.441 209.922 690.852 210.837 691.873L247.047 732.301C248.108 733.485 249.745 733.944 251.23 733.472L301.937 717.376C303.218 716.97 304.195 715.93 304.532 714.615L318.027 661.995C318.369 660.661 318.005 659.23 317.063 658.207L280.633 618.635C279.584 617.495 277.995 617.05 276.541 617.489Z" stroke="#7B849A"/>
        <path d="M409.875 328.69L359.388 343.929C358.082 344.323 357.082 345.373 356.74 346.707L343.245 399.327C342.908 400.642 343.256 402.052 344.171 403.073L380.381 443.502C381.442 444.686 383.079 445.144 384.564 444.673L435.271 428.577C436.552 428.17 437.529 427.131 437.866 425.816L451.361 373.196C451.703 371.862 451.339 370.431 450.397 369.407L413.967 329.835C412.918 328.696 411.329 328.251 409.875 328.69Z" stroke="#7B849A"/>
        <path d="M307.372 494.706L256.884 509.946C255.579 510.34 254.579 511.389 254.237 512.723L240.742 565.343C240.404 566.658 240.753 568.069 241.668 569.09L277.878 609.519C278.938 610.703 280.576 611.161 282.061 610.69L332.767 594.594C334.048 594.187 335.025 593.147 335.362 591.833L348.858 539.213C349.2 537.878 348.835 536.447 347.894 535.424L311.464 495.852C310.415 494.713 308.825 494.268 307.372 494.706Z" stroke="#7B849A"/>
        <path d="M450.432 406.783L399.945 422.022C398.64 422.416 397.639 423.466 397.297 424.8L383.802 477.42C383.465 478.735 383.814 480.145 384.728 481.166L420.939 521.595C421.999 522.779 423.636 523.237 425.121 522.766L475.828 506.67C477.109 506.263 478.086 505.224 478.423 503.909L491.918 451.289C492.26 449.955 491.896 448.524 490.954 447.501L454.524 407.928C453.475 406.789 451.886 406.344 450.432 406.783Z" stroke="#7B849A"/>
        <path d="M347.929 572.799L297.442 588.039C296.136 588.433 295.136 589.482 294.794 590.816L281.299 643.436C280.961 644.751 281.31 646.162 282.225 647.183L318.435 687.612C319.496 688.796 321.133 689.254 322.618 688.783L373.324 672.686C374.605 672.28 375.582 671.24 375.92 669.926L389.415 617.305C389.757 615.971 389.393 614.54 388.451 613.517L352.021 573.945C350.972 572.806 349.382 572.361 347.929 572.799Z" stroke="#7B849A"/>
        <path d="M388.98 648.967L338.493 664.206C337.187 664.6 336.187 665.649 335.845 666.984L322.35 719.604C322.013 720.918 322.361 722.329 323.276 723.35L359.486 763.779C360.547 764.963 362.184 765.421 363.669 764.95L414.376 748.854C415.657 748.447 416.634 747.408 416.971 746.093L430.466 693.473C430.808 692.139 430.444 690.707 429.502 689.684L393.072 650.112C392.023 648.973 390.434 648.528 388.98 648.967Z" stroke="#7B849A"/>
        <path d="M419.81 526.184L369.323 541.424C368.018 541.818 367.018 542.867 366.676 544.201L353.18 596.821C352.843 598.136 353.192 599.546 354.107 600.568L390.317 640.996C391.377 642.18 393.014 642.638 394.5 642.167L445.206 626.071C446.487 625.664 447.464 624.625 447.801 623.31L461.296 570.69C461.639 569.356 461.274 567.925 460.333 566.902L423.903 527.329C422.854 526.19 421.264 525.745 419.81 526.184Z" stroke="#7B849A"/>
        <path d="M-39.8814 202.78L-90.3685 218.02C-91.6739 218.414 -92.6742 219.463 -93.0163 220.797L-106.511 273.417C-106.849 274.732 -106.5 276.143 -105.585 277.164L-69.375 317.593C-68.3145 318.777 -66.6774 319.235 -65.1923 318.764L-14.4856 302.667C-13.2048 302.261 -12.2277 301.221 -11.8905 299.907L1.60458 247.286C1.9467 245.952 1.58253 244.521 0.640612 243.498L-35.7894 203.926C-36.8382 202.787 -38.4278 202.342 -39.8814 202.78Z" stroke="#7B849A"/>
    </g>
</svg>
