<svg width="410" height="667" viewBox="0 0 410 667" fill="none" xmlns="http://www.w3.org/2000/svg">
    <rect opacity="0.27" x="36.4746" y="578" width="51.5832" height="51.5832" rx="2" transform="rotate(45 36.4746 578)" fill="url(#paint0_linear_0_1)"/>
    <rect opacity="0.12" x="372.05" y="635" width="22.6989" height="22.6989" rx="2" transform="rotate(45 372.05 635)" fill="url(#paint1_linear_0_1)"/>
    <mask id="mask0_0_1" style="mask-type:alpha" maskUnits="userSpaceOnUse" x="282" y="159" width="112" height="103">
        <path d="M361.208 159.637L315.553 160.773C312.071 160.859 308.884 162.752 307.142 165.77L284.187 205.528C282.47 208.503 282.399 212.151 284.001 215.19L305.473 255.94C307.267 259.347 310.859 261.42 314.706 261.271L360.733 259.491C364.165 259.359 367.289 257.473 369.007 254.499L391.961 214.74C393.703 211.723 393.75 208.017 392.083 204.957L370.239 164.851C368.445 161.557 364.958 159.544 361.208 159.637Z" fill="#C4C4C4"/>
    </mask>
    <g mask="url(#mask0_0_1)">
        <path d="M319.746 328.691C311.029 324.728 308.68 318.401 312.697 309.71C316.714 301.018 314.364 294.691 305.648 290.729C296.931 286.766 294.582 280.439 298.599 271.748C302.616 263.057 300.266 256.73 291.55 252.767C282.833 248.805 280.484 242.478 284.501 233.786C288.518 225.095 286.168 218.768 277.452 214.805C268.735 210.843 266.386 204.516 270.403 195.824C274.42 187.133 272.07 180.806 263.354 176.844C254.637 172.881 252.288 166.554 256.305 157.863C260.322 149.171 257.972 142.844 249.256 138.882" stroke="#404C69"/>
        <path d="M326.229 326.535C317.512 322.573 315.163 316.246 319.18 307.554C323.197 298.863 320.847 292.536 312.131 288.574C303.414 284.611 301.065 278.284 305.082 269.593C309.099 260.901 306.749 254.574 298.033 250.612C289.316 246.649 286.967 240.322 290.984 231.631C295.001 222.939 292.651 216.613 283.935 212.65C275.218 208.688 272.869 202.361 276.886 193.669C280.903 184.978 278.553 178.651 269.837 174.688C261.12 170.726 258.77 164.399 262.788 155.707C266.805 147.016 264.455 140.689 255.739 136.727" stroke="#404C69"/>
        <path d="M332.712 324.38C323.996 320.418 321.646 314.091 325.663 305.399C329.68 296.708 327.33 290.381 318.614 286.418C309.898 282.456 307.548 276.129 311.565 267.437C315.582 258.746 313.232 252.419 304.516 248.457C295.8 244.494 293.45 238.167 297.467 229.476C301.484 220.784 299.134 214.457 290.418 210.495C281.702 206.532 279.352 200.205 283.369 191.514C287.386 182.823 285.036 176.496 276.32 172.533C267.604 168.571 265.254 162.244 269.271 153.552C273.288 144.861 270.938 138.534 262.222 134.571" stroke="#404C69"/>
        <path d="M339.195 322.225C330.479 318.262 328.129 311.935 332.146 303.244C336.164 294.552 333.814 288.225 325.097 284.263C316.381 280.3 314.031 273.973 318.048 265.282C322.066 256.591 319.716 250.264 310.999 246.301C302.283 242.339 299.933 236.012 303.95 227.32C307.967 218.629 305.618 212.302 296.901 208.339C288.185 204.377 285.835 198.05 289.852 189.359C293.869 180.667 291.52 174.34 282.803 170.378C274.087 166.415 271.737 160.088 275.754 151.397C279.771 142.705 277.422 136.378 268.705 132.416" stroke="#404C69"/>
        <path d="M345.678 320.07C336.962 316.107 334.612 309.78 338.629 301.089C342.646 292.397 340.297 286.07 331.58 282.108C322.864 278.145 320.514 271.818 324.531 263.127C328.548 254.436 326.199 248.109 317.482 244.146C308.766 240.184 306.416 233.857 310.433 225.165C314.45 216.474 312.101 210.147 303.384 206.184C294.668 202.222 292.318 195.895 296.335 187.203C300.352 178.512 298.003 172.185 289.286 168.223C280.57 164.26 278.22 157.933 282.237 149.242C286.254 140.55 283.905 134.223 275.188 130.261" stroke="#404C69"/>
        <path d="M352.161 317.914C343.445 313.952 341.095 307.625 345.112 298.934C349.129 290.242 346.78 283.915 338.063 279.953C329.347 275.99 326.997 269.663 331.014 260.972C335.031 252.28 332.682 245.953 323.965 241.991C315.249 238.028 312.899 231.701 316.916 223.01C320.933 214.319 318.584 207.992 309.867 204.029C301.151 200.067 298.801 193.74 302.818 185.048C306.835 176.357 304.486 170.03 295.769 166.067C287.053 162.105 284.703 155.778 288.72 147.087C292.737 138.395 290.388 132.068 281.671 128.106" stroke="#404C69"/>
        <path d="M358.644 315.759C349.928 311.797 347.578 305.47 351.595 296.778C355.612 288.087 353.263 281.76 344.546 277.797C335.83 273.835 333.48 267.508 337.497 258.817C341.514 250.125 339.165 243.798 330.448 239.836C321.732 235.873 319.382 229.546 323.399 220.855C327.416 212.163 325.067 205.836 316.35 201.874C307.634 197.911 305.284 191.584 309.301 182.893C313.318 174.202 310.969 167.875 302.252 163.912C293.536 159.95 291.186 153.623 295.203 144.931C299.22 136.24 296.87 129.913 288.154 125.95" stroke="#404C69"/>
        <path d="M365.128 313.604C356.411 309.641 354.062 303.314 358.079 294.623C362.096 285.932 359.746 279.605 351.03 275.642C342.313 271.68 339.963 265.353 343.981 256.661C347.998 247.97 345.648 241.643 336.932 237.68C328.215 233.718 325.865 227.391 329.883 218.699C333.9 210.008 331.55 203.681 322.834 199.719C314.117 195.756 311.767 189.429 315.785 180.738C319.802 172.046 317.452 165.719 308.735 161.757C300.019 157.794 297.669 151.467 301.686 142.776C305.704 134.085 303.354 127.758 294.637 123.795" stroke="#404C69"/>
        <path d="M371.611 311.449C362.894 307.486 360.544 301.159 364.561 292.468C368.579 283.776 366.229 277.449 357.512 273.487C348.796 269.524 346.446 263.197 350.463 254.506C354.481 245.815 352.131 239.488 343.414 235.525C334.698 231.563 332.348 225.236 336.365 216.544C340.383 207.853 338.033 201.526 329.316 197.563C320.6 193.601 318.25 187.274 322.267 178.582C326.284 169.891 323.935 163.564 315.218 159.602C306.502 155.639 304.152 149.312 308.169 140.621C312.186 131.929 309.837 125.602 301.12 121.64" stroke="#404C69"/>
        <path d="M378.094 309.293C369.378 305.331 367.028 299.004 371.045 290.312C375.062 281.621 372.713 275.294 363.996 271.332C355.28 267.369 352.93 261.042 356.947 252.351C360.964 243.659 358.615 237.332 349.898 233.37C341.182 229.407 338.832 223.08 342.849 214.389C346.866 205.698 344.517 199.371 335.8 195.408C327.084 191.446 324.734 185.119 328.751 176.427C332.768 167.736 330.419 161.409 321.702 157.446C312.986 153.484 310.636 147.157 314.653 138.465C318.67 129.774 316.321 123.447 307.604 119.485" stroke="#404C69"/>
        <path d="M384.577 307.138C375.86 303.176 373.511 296.849 377.528 288.157C381.545 279.466 379.195 273.139 370.479 269.176C361.762 265.214 359.413 258.887 363.43 250.195C367.447 241.504 365.097 235.177 356.381 231.215C347.664 227.252 345.315 220.925 349.332 212.234C353.349 203.542 350.999 197.215 342.283 193.253C333.566 189.29 331.217 182.963 335.234 174.272C339.251 165.581 336.901 159.254 328.185 155.291C319.468 151.329 317.119 145.002 321.136 136.31C325.153 127.619 322.803 121.292 314.087 117.329" stroke="#404C69"/>
        <path d="M391.06 304.983C382.344 301.02 379.994 294.693 384.011 286.002C388.028 277.311 385.679 270.984 376.962 267.021C368.246 263.059 365.896 256.732 369.913 248.04C373.93 239.349 371.581 233.022 362.864 229.059C354.148 225.097 351.798 218.77 355.815 210.079C359.832 201.387 357.483 195.06 348.766 191.098C340.05 187.135 337.7 180.808 341.717 172.117C345.734 163.425 343.385 157.098 334.668 153.136C325.952 149.173 323.602 142.846 327.619 134.155C331.636 125.464 329.287 119.137 320.57 115.174" stroke="#404C69"/>
        <path d="M397.543 302.828C388.827 298.865 386.477 292.538 390.494 283.847C394.511 275.155 392.162 268.829 383.445 264.866C374.729 260.903 372.379 254.577 376.396 245.885C380.413 237.194 378.063 230.867 369.347 226.904C360.631 222.942 358.281 216.615 362.298 207.923C366.315 199.232 363.965 192.905 355.249 188.943C346.533 184.98 344.183 178.653 348.2 169.962C352.217 161.27 349.867 154.943 341.151 150.981C332.435 147.018 330.085 140.691 334.102 132C338.119 123.308 335.769 116.982 327.053 113.019" stroke="#404C69"/>
        <path d="M404.026 300.672C395.31 296.71 392.96 290.383 396.977 281.692C400.994 273 398.644 266.673 389.928 262.711C381.212 258.748 378.862 252.421 382.879 243.73C386.896 235.038 384.546 228.711 375.83 224.749C367.114 220.786 364.764 214.46 368.781 205.768C372.798 197.077 370.448 190.75 361.732 186.787C353.016 182.825 350.666 176.498 354.683 167.806C358.7 159.115 356.35 152.788 347.634 148.825C338.918 144.863 336.568 138.536 340.585 129.845C344.602 121.153 342.252 114.826 333.536 110.864" stroke="#404C69"/>
        <path d="M410.509 298.517C401.793 294.555 399.443 288.228 403.46 279.536C407.477 270.845 405.127 264.518 396.411 260.556C387.695 256.593 385.345 250.266 389.362 241.575C393.379 232.883 391.029 226.556 382.313 222.594C373.596 218.631 371.247 212.304 375.264 203.613C379.281 194.922 376.931 188.595 368.215 184.632C359.498 180.67 357.149 174.343 361.166 165.651C365.183 156.96 362.833 150.633 354.117 146.67C345.4 142.708 343.051 136.381 347.068 127.689C351.085 118.998 348.735 112.671 340.019 108.709" stroke="#404C69"/>
        <path d="M416.992 296.362C408.275 292.4 405.926 286.073 409.943 277.381C413.96 268.69 411.61 262.363 402.894 258.4C394.177 254.438 391.828 248.111 395.845 239.42C399.862 230.728 397.512 224.401 388.796 220.439C380.079 216.476 377.73 210.149 381.747 201.458C385.764 192.766 383.414 186.439 374.698 182.477C365.981 178.514 363.632 172.187 367.649 163.496C371.666 154.805 369.316 148.478 360.6 144.515C351.883 140.553 349.534 134.226 353.551 125.534C357.568 116.843 355.218 110.516 346.502 106.553" stroke="#404C69"/>
        <path d="M423.476 294.207C414.759 290.244 412.41 283.917 416.427 275.226C420.444 266.534 418.094 260.207 409.378 256.245C400.661 252.282 398.312 245.955 402.329 237.264C406.346 228.573 403.996 222.246 395.28 218.283C386.563 214.321 384.214 207.994 388.231 199.302C392.248 190.611 389.898 184.284 381.182 180.321C372.465 176.359 370.116 170.032 374.133 161.341C378.15 152.649 375.8 146.322 367.084 142.36C358.367 138.397 356.018 132.07 360.035 123.379C364.052 114.687 361.702 108.36 352.986 104.398" stroke="#404C69"/>
        <path d="M429.959 292.051C421.242 288.089 418.893 281.762 422.91 273.071C426.927 264.379 424.577 258.052 415.861 254.09C407.144 250.127 404.795 243.8 408.812 235.109C412.829 226.417 410.479 220.091 401.763 216.128C393.046 212.165 390.697 205.839 394.714 197.147C398.731 188.456 396.381 182.129 387.665 178.166C378.948 174.204 376.598 167.877 380.616 159.185C384.633 150.494 382.283 144.167 373.567 140.205C364.85 136.242 362.5 129.915 366.518 121.224C370.535 112.532 368.185 106.205 359.469 102.243" stroke="#404C69"/>
    </g>
    <rect opacity="0.11" x="107.669" y="187.334" width="33.0001" height="33.0001" rx="5" transform="rotate(135 107.669 187.334)" fill="url(#paint2_linear_0_1)"/>
    <rect opacity="0.27" x="369.05" width="22.6989" height="22.6989" rx="2" transform="rotate(45 369.05 0)" fill="url(#paint3_linear_0_1)"/>
    <rect opacity="0.27" x="52.0503" y="53" width="22.6989" height="22.6989" rx="2" transform="rotate(45 52.0503 53)" fill="url(#paint4_linear_0_1)"/>
    <defs>
        <linearGradient id="paint0_linear_0_1" x1="52.8489" y1="503.037" x2="71.4906" y2="664.599" gradientUnits="userSpaceOnUse">
            <stop stop-color="white"/>
            <stop offset="1" stop-color="white" stop-opacity="0"/>
        </linearGradient>
        <linearGradient id="paint1_linear_0_1" x1="379.256" y1="602.013" x2="387.459" y2="673.107" gradientUnits="userSpaceOnUse">
            <stop stop-color="white"/>
            <stop offset="1" stop-color="white" stop-opacity="0"/>
        </linearGradient>
        <linearGradient id="paint2_linear_0_1" x1="118.144" y1="139.378" x2="130.07" y2="242.736" gradientUnits="userSpaceOnUse">
            <stop stop-color="white"/>
            <stop offset="1" stop-color="white" stop-opacity="0"/>
        </linearGradient>
        <linearGradient id="paint3_linear_0_1" x1="376.256" y1="-32.9868" x2="384.459" y2="38.1073" gradientUnits="userSpaceOnUse">
            <stop stop-color="white"/>
            <stop offset="1" stop-color="white" stop-opacity="0"/>
        </linearGradient>
        <linearGradient id="paint4_linear_0_1" x1="59.2557" y1="20.0132" x2="67.4589" y2="91.1073" gradientUnits="userSpaceOnUse">
            <stop stop-color="white"/>
            <stop offset="1" stop-color="white" stop-opacity="0"/>
        </linearGradient>
    </defs>
</svg>
