<svg width="820" height="449" viewBox="0 0 820 449" fill="none" xmlns="http://www.w3.org/2000/svg">
    <g opacity="0.2">
        <path d="M260.675 167.873L210.188 183.113C208.882 183.507 207.882 184.556 207.54 185.89L194.045 238.51C193.708 239.825 194.056 241.236 194.971 242.257L231.181 282.686C232.242 283.87 233.879 284.328 235.364 283.857L286.071 267.761C287.351 267.354 288.328 266.314 288.666 265L302.161 212.38C302.503 211.045 302.139 209.614 301.197 208.591L264.767 169.019C263.718 167.88 262.128 167.435 260.675 167.873Z" stroke="#4E5B7A"/>
        <path d="M158.171 333.89L107.684 349.13C106.378 349.524 105.378 350.573 105.036 351.907L91.5408 404.527C91.2036 405.842 91.5523 407.253 92.4669 408.274L128.677 448.702C129.738 449.886 131.375 450.345 132.86 449.873L183.567 433.777C184.847 433.371 185.825 432.331 186.162 431.016L199.657 378.396C199.999 377.062 199.635 375.631 198.693 374.608L162.263 335.036C161.214 333.896 159.624 333.451 158.171 333.89Z" stroke="#4E5B7A"/>
        <path d="M301.726 244.04L251.238 259.28C249.933 259.674 248.933 260.723 248.591 262.057L235.096 314.677C234.758 315.992 235.107 317.403 236.022 318.424L272.232 358.853C273.292 360.037 274.93 360.495 276.415 360.024L327.121 343.928C328.402 343.521 329.379 342.481 329.716 341.167L343.212 288.547C343.554 287.212 343.189 285.781 342.248 284.758L305.818 245.186C304.769 244.047 303.179 243.602 301.726 244.04Z" stroke="#4E5B7A"/>
        <path d="M199.223 410.057L148.735 425.297C147.43 425.691 146.43 426.74 146.088 428.074L132.593 480.694C132.255 482.009 132.604 483.42 133.519 484.441L169.729 524.869C170.79 526.053 172.427 526.512 173.912 526.04L224.618 509.944C225.899 509.538 226.876 508.498 227.214 507.183L240.709 454.563C241.051 453.229 240.687 451.798 239.745 450.775L203.315 411.203C202.266 410.063 200.676 409.618 199.223 410.057Z" stroke="#4E5B7A"/>
        <path d="M332.557 121.258L282.069 136.497C280.764 136.891 279.764 137.941 279.422 139.275L265.927 191.895C265.589 193.21 265.938 194.62 266.853 195.641L303.063 236.07C304.124 237.254 305.761 237.712 307.246 237.241L357.952 221.145C359.233 220.738 360.21 219.699 360.547 218.384L374.043 165.764C374.385 164.43 374.021 162.999 373.079 161.975L336.649 122.403C335.6 121.264 334.01 120.819 332.557 121.258Z" stroke="#4E5B7A"/>
        <path d="M230.054 287.274L179.567 302.514C178.261 302.908 177.261 303.957 176.919 305.291L163.424 357.911C163.086 359.226 163.435 360.637 164.35 361.658L200.56 402.087C201.621 403.271 203.258 403.729 204.743 403.257L255.449 387.161C256.73 386.755 257.707 385.715 258.045 384.4L271.54 331.78C271.882 330.446 271.518 329.015 270.576 327.992L234.146 288.42C233.097 287.281 231.507 286.836 230.054 287.274Z" stroke="#4E5B7A"/>
        <path d="M373.114 199.351L322.627 214.59C321.322 214.984 320.321 216.034 319.979 217.368L306.484 269.988C306.147 271.303 306.496 272.713 307.41 273.734L343.621 314.163C344.681 315.347 346.318 315.805 347.803 315.334L398.51 299.238C399.791 298.831 400.768 297.792 401.105 296.477L414.6 243.857C414.942 242.523 414.578 241.092 413.636 240.068L377.206 200.496C376.157 199.357 374.568 198.912 373.114 199.351Z" stroke="#4E5B7A"/>
        <path d="M270.609 365.367L220.122 380.607C218.817 381.001 217.817 382.05 217.474 383.384L203.979 436.004C203.642 437.319 203.991 438.73 204.905 439.751L241.116 480.18C242.176 481.364 243.813 481.822 245.298 481.35L296.005 465.254C297.286 464.848 298.263 463.808 298.6 462.493L312.095 409.873C312.437 408.539 312.073 407.108 311.131 406.085L274.701 366.513C273.652 365.374 272.063 364.929 270.609 365.367Z" stroke="#4E5B7A"/>
        <path d="M414.166 275.518L363.679 290.758C362.373 291.152 361.373 292.201 361.031 293.535L347.536 346.155C347.199 347.47 347.547 348.88 348.462 349.902L384.672 390.33C385.733 391.514 387.37 391.973 388.855 391.501L439.562 375.405C440.843 374.998 441.82 373.959 442.157 372.644L455.652 320.024C455.994 318.69 455.63 317.259 454.688 316.236L418.258 276.664C417.209 275.524 415.62 275.079 414.166 275.518Z" stroke="#4E5B7A"/>
        <path d="M311.662 441.535L261.175 456.774C259.87 457.168 258.869 458.217 258.527 459.551L245.032 512.172C244.695 513.486 245.044 514.897 245.958 515.918L282.168 556.347C283.229 557.531 284.866 557.989 286.351 557.518L337.058 541.422C338.339 541.015 339.316 539.976 339.653 538.661L353.148 486.041C353.49 484.707 353.126 483.275 352.184 482.252L315.754 442.68C314.705 441.541 313.116 441.096 311.662 441.535Z" stroke="#4E5B7A"/>
        <path d="M444.996 152.735L394.509 167.975C393.204 168.369 392.203 169.418 391.861 170.752L378.366 223.372C378.029 224.687 378.378 226.098 379.292 227.119L415.502 267.547C416.563 268.731 418.2 269.19 419.685 268.718L470.392 252.622C471.673 252.216 472.65 251.176 472.987 249.861L486.482 197.241C486.824 195.907 486.46 194.476 485.518 193.453L449.088 153.881C448.039 152.741 446.45 152.296 444.996 152.735Z" stroke="#4E5B7A"/>
        <path d="M342.493 318.752L292.006 333.992C290.701 334.386 289.7 335.435 289.358 336.769L275.863 389.389C275.526 390.704 275.875 392.114 276.789 393.136L313 433.564C314.06 434.748 315.697 435.206 317.182 434.735L367.889 418.639C369.17 418.232 370.147 417.193 370.484 415.878L383.979 363.258C384.321 361.924 383.957 360.493 383.015 359.47L346.585 319.897C345.536 318.758 343.947 318.313 342.493 318.752Z" stroke="#4E5B7A"/>
        <path d="M485.554 230.828L435.067 246.068C433.761 246.462 432.761 247.511 432.419 248.845L418.924 301.465C418.586 302.78 418.935 304.191 419.85 305.212L456.06 345.64C457.121 346.824 458.758 347.283 460.243 346.811L510.949 330.715C512.23 330.309 513.207 329.269 513.545 327.954L527.04 275.334C527.382 274 527.018 272.569 526.076 271.546L489.646 231.974C488.597 230.834 487.007 230.389 485.554 230.828Z" stroke="#4E5B7A"/>
        <path d="M383.049 396.845L332.562 412.085C331.256 412.479 330.256 413.528 329.914 414.862L316.419 467.482C316.082 468.797 316.43 470.207 317.345 471.229L353.555 511.657C354.616 512.841 356.253 513.299 357.738 512.828L408.445 496.732C409.725 496.325 410.702 495.286 411.04 493.971L424.535 441.351C424.877 440.017 424.513 438.586 423.571 437.563L387.141 397.99C386.092 396.851 384.502 396.406 383.049 396.845Z" stroke="#4E5B7A"/>
        <path d="M526.603 306.995L476.116 322.235C474.811 322.629 473.811 323.678 473.469 325.012L459.973 377.632C459.636 378.947 459.985 380.358 460.9 381.379L497.11 421.807C498.17 422.992 499.807 423.45 501.293 422.978L551.999 406.882C553.28 406.476 554.257 405.436 554.594 404.121L568.089 351.501C568.432 350.167 568.067 348.736 567.125 347.713L530.695 308.141C529.647 307.001 528.057 306.556 526.603 306.995Z" stroke="#4E5B7A"/>
        <path d="M557.434 184.213L506.946 199.452C505.641 199.846 504.641 200.895 504.299 202.229L490.804 254.85C490.466 256.164 490.815 257.575 491.73 258.596L527.94 299.025C529 300.209 530.638 300.667 532.123 300.196L582.829 284.1C584.11 283.693 585.087 282.654 585.424 281.339L598.92 228.719C599.262 227.385 598.897 225.953 597.956 224.93L561.526 185.358C560.477 184.219 558.887 183.774 557.434 184.213Z" stroke="#4E5B7A"/>
        <path d="M454.931 350.229L404.443 365.469C403.138 365.863 402.138 366.912 401.796 368.246L388.301 420.866C387.963 422.181 388.312 423.592 389.227 424.613L425.437 465.041C426.498 466.225 428.135 466.684 429.62 466.212L480.326 450.116C481.607 449.71 482.584 448.67 482.922 447.355L496.417 394.735C496.759 393.401 496.395 391.97 495.453 390.947L459.023 351.375C457.974 350.235 456.384 349.79 454.931 350.229Z" stroke="#4E5B7A"/>
        <path d="M-35.5909 149.609L-86.078 164.848C-87.3834 165.242 -88.3837 166.292 -88.7258 167.626L-102.221 220.246C-102.558 221.561 -102.209 222.971 -101.295 223.992L-65.0844 264.421C-64.0239 265.605 -62.3869 266.063 -60.9018 265.592L-10.195 249.496C-8.91426 249.089 -7.93718 248.05 -7.59997 246.735L5.8951 194.115C6.23723 192.781 5.87306 191.35 4.93114 190.326L-31.4988 150.754C-32.5477 149.615 -34.1373 149.17 -35.5909 149.609Z" stroke="#4E5B7A"/>
        <path d="M-4.75983 26.8258L-55.247 42.0655C-56.5523 42.4595 -57.5526 43.5087 -57.8948 44.8427L-71.3898 97.4628C-71.727 98.7776 -71.3783 100.188 -70.4637 101.209L-34.2534 141.638C-33.1929 142.822 -31.5558 143.28 -30.0708 142.809L20.636 126.713C21.9168 126.306 22.8939 125.267 23.2311 123.952L36.7262 71.3319C37.0683 69.9979 36.7041 68.5667 35.7622 67.5435L-0.667782 27.9714C-1.71666 26.8321 -3.30623 26.3871 -4.75983 26.8258Z" stroke="#4E5B7A"/>
        <path d="M597.992 262.306L547.505 277.545C546.2 277.939 545.199 278.988 544.857 280.322L531.362 332.943C531.025 334.257 531.374 335.668 532.288 336.689L568.499 377.118C569.559 378.302 571.196 378.76 572.681 378.289L623.388 362.193C624.669 361.786 625.646 360.747 625.983 359.432L639.478 306.812C639.82 305.478 639.456 304.046 638.514 303.023L602.084 263.451C601.035 262.312 599.446 261.867 597.992 262.306Z" stroke="#4E5B7A"/>
        <path d="M495.489 428.322L445.002 443.562C443.697 443.956 442.696 445.005 442.354 446.339L428.859 498.959C428.522 500.274 428.871 501.685 429.785 502.706L465.996 543.134C467.056 544.318 468.693 544.777 470.178 544.305L520.885 528.209C522.166 527.803 523.143 526.763 523.48 525.448L536.975 472.828C537.317 471.494 536.953 470.063 536.011 469.04L499.581 429.468C498.532 428.328 496.943 427.883 495.489 428.322Z" stroke="#4E5B7A"/>
        <path d="M639.044 338.473L588.557 353.712C587.251 354.106 586.251 355.155 585.909 356.489L572.414 409.11C572.077 410.424 572.425 411.835 573.34 412.856L609.55 453.285C610.611 454.469 612.248 454.927 613.733 454.456L664.44 438.36C665.721 437.953 666.698 436.914 667.035 435.599L680.53 382.979C680.872 381.645 680.508 380.213 679.566 379.19L643.136 339.618C642.087 338.479 640.497 338.034 639.044 338.473Z" stroke="#4E5B7A"/>
        <path d="M669.874 215.69L619.387 230.929C618.081 231.324 617.081 232.373 616.739 233.707L603.244 286.327C602.907 287.642 603.255 289.052 604.17 290.074L640.38 330.502C641.441 331.686 643.078 332.144 644.563 331.673L695.27 315.577C696.551 315.17 697.528 314.131 697.865 312.816L711.36 260.196C711.702 258.862 711.338 257.431 710.396 256.408L673.966 216.835C672.917 215.696 671.328 215.251 669.874 215.69Z" stroke="#4E5B7A"/>
        <path d="M567.369 381.707L516.882 396.946C515.577 397.34 514.576 398.39 514.234 399.724L500.739 452.344C500.402 453.659 500.751 455.069 501.665 456.09L537.876 496.519C538.936 497.703 540.573 498.161 542.058 497.69L592.765 481.594C594.046 481.187 595.023 480.148 595.36 478.833L608.855 426.213C609.197 424.879 608.833 423.448 607.891 422.424L571.461 382.852C570.412 381.713 568.823 381.268 567.369 381.707Z" stroke="#4E5B7A"/>
        <path d="M35.7968 104.919L-14.6903 120.158C-15.9957 120.552 -16.996 121.601 -17.3381 122.936L-30.8332 175.556C-31.1704 176.87 -30.8217 178.281 -29.9071 179.302L6.30325 219.731C7.36376 220.915 9.00081 221.373 10.4859 220.902L61.1927 204.806C62.4734 204.399 63.4505 203.36 63.7877 202.045L77.2828 149.425C77.6249 148.091 77.2608 146.659 76.3188 145.636L39.8889 106.064C38.84 104.925 37.2504 104.48 35.7968 104.919Z" stroke="#4E5B7A"/>
        <path d="M76.8486 181.086L26.3614 196.325C25.0561 196.72 24.0558 197.769 23.7136 199.103L10.2186 251.723C9.88136 253.038 10.2301 254.448 11.1447 255.47L47.355 295.898C48.4155 297.082 50.0526 297.54 51.5376 297.069L102.244 280.973C103.525 280.566 104.502 279.527 104.839 278.212L118.335 225.592C118.677 224.258 118.313 222.827 117.371 221.804L80.9406 182.231C79.8917 181.092 78.3022 180.647 76.8486 181.086Z" stroke="#4E5B7A"/>
        <path d="M-25.6553 347.102L-76.1425 362.342C-77.4478 362.736 -78.4481 363.785 -78.7903 365.119L-92.2853 417.739C-92.6225 419.054 -92.2739 420.465 -91.3592 421.486L-55.1489 461.915C-54.0884 463.099 -52.4513 463.557 -50.9663 463.086L-0.25949 446.99C1.02128 446.583 1.99837 445.543 2.33558 444.229L15.8306 391.609C16.1728 390.274 15.8086 388.843 14.8667 387.82L-21.5633 348.248C-22.6122 347.109 -24.2017 346.664 -25.6553 347.102Z" stroke="#4E5B7A"/>
        <path d="M107.679 58.3029L57.1915 73.5425C55.8861 73.9366 54.8858 74.9858 54.5437 76.3198L41.0486 128.94C40.7114 130.255 41.0601 131.665 41.9747 132.687L78.1851 173.115C79.2456 174.299 80.8826 174.757 82.3677 174.286L133.074 158.19C134.355 157.783 135.332 156.744 135.67 155.429L149.165 102.809C149.507 101.475 149.143 100.044 148.201 99.0206L111.771 59.4485C110.722 58.3091 109.132 57.8641 107.679 58.3029Z" stroke="#4E5B7A"/>
        <path d="M5.17377 224.319L-45.3134 239.559C-46.6187 239.953 -47.619 241.002 -47.9612 242.336L-61.4562 294.956C-61.7934 296.271 -61.4448 297.682 -60.5301 298.703L-24.3198 339.132C-23.2593 340.316 -21.6222 340.774 -20.1372 340.303L30.5696 324.207C31.8504 323.8 32.8275 322.76 33.1647 321.446L46.6598 268.826C47.0019 267.492 46.6377 266.06 45.6958 265.037L9.26581 225.465C8.21694 224.326 6.62737 223.881 5.17377 224.319Z" stroke="#4E5B7A"/>
        <path d="M710.43 293.783L659.942 309.023C658.637 309.417 657.637 310.466 657.295 311.8L643.8 364.42C643.462 365.735 643.811 367.145 644.726 368.167L680.936 408.595C681.997 409.779 683.634 410.237 685.119 409.766L735.825 393.67C737.106 393.263 738.083 392.224 738.421 390.909L751.916 338.289C752.258 336.955 751.894 335.524 750.952 334.501L714.522 294.928C713.473 293.789 711.883 293.344 710.43 293.783Z" stroke="#4E5B7A"/>
        <path d="M607.928 459.799L557.441 475.039C556.135 475.433 555.135 476.482 554.793 477.816L541.298 530.436C540.96 531.751 541.309 533.162 542.224 534.183L578.434 574.612C579.495 575.796 581.132 576.254 582.617 575.783L633.324 559.687C634.604 559.28 635.581 558.24 635.919 556.926L649.414 504.306C649.756 502.972 649.392 501.54 648.45 500.517L612.02 460.945C610.971 459.806 609.381 459.361 607.928 459.799Z" stroke="#4E5B7A"/>
        <path d="M751.483 369.95L700.996 385.19C699.691 385.584 698.691 386.633 698.348 387.967L684.853 440.587C684.516 441.902 684.865 443.313 685.779 444.334L721.99 484.762C723.05 485.946 724.687 486.405 726.172 485.933L776.879 469.837C778.16 469.431 779.137 468.391 779.474 467.076L792.969 414.456C793.311 413.122 792.947 411.691 792.005 410.668L755.575 371.096C754.527 369.956 752.937 369.511 751.483 369.95Z" stroke="#4E5B7A"/>
        <path d="M782.313 247.167L731.826 262.407C730.521 262.801 729.521 263.85 729.178 265.184L715.683 317.804C715.346 319.119 715.695 320.53 716.61 321.551L752.82 361.98C753.88 363.164 755.517 363.622 757.002 363.151L807.709 347.054C808.99 346.648 809.967 345.608 810.304 344.294L823.799 291.673C824.142 290.339 823.777 288.908 822.835 287.885L786.405 248.313C785.357 247.174 783.767 246.729 782.313 247.167Z" stroke="#4E5B7A"/>
        <path d="M679.81 413.184L629.323 428.424C628.018 428.818 627.018 429.867 626.676 431.201L613.18 483.821C612.843 485.136 613.192 486.546 614.107 487.568L650.317 527.996C651.377 529.18 653.014 529.639 654.5 529.167L705.206 513.071C706.487 512.665 707.464 511.625 707.801 510.31L721.296 457.69C721.639 456.356 721.274 454.925 720.333 453.902L683.903 414.33C682.854 413.19 681.264 412.745 679.81 413.184Z" stroke="#4E5B7A"/>
        <path d="M148.234 136.396L97.7472 151.636C96.4418 152.03 95.4415 153.079 95.0994 154.413L81.6043 207.033C81.2671 208.348 81.6158 209.758 82.5304 210.78L118.741 251.208C119.801 252.392 121.438 252.85 122.923 252.379L173.63 236.283C174.911 235.876 175.888 234.837 176.225 233.522L189.72 180.902C190.062 179.568 189.698 178.137 188.756 177.114L152.326 137.541C151.277 136.402 149.688 135.957 148.234 136.396Z" stroke="#4E5B7A"/>
        <path d="M45.7314 302.413L-4.75575 317.652C-6.06112 318.046 -7.06143 319.096 -7.40355 320.43L-20.8986 373.05C-21.2358 374.365 -20.8871 375.775 -19.9725 376.796L16.2378 417.225C17.2983 418.409 18.9354 418.867 20.4205 418.396L71.1272 402.3C72.408 401.893 73.3851 400.854 73.7223 399.539L87.2174 346.919C87.5595 345.585 87.1953 344.154 86.2534 343.13L49.8234 303.558C48.7746 302.419 47.185 301.974 45.7314 302.413Z" stroke="#4E5B7A"/>
        <path d="M189.288 212.563L138.801 227.803C137.496 228.197 136.495 229.246 136.153 230.58L122.658 283.2C122.321 284.515 122.67 285.926 123.584 286.947L159.794 327.375C160.855 328.559 162.492 329.018 163.977 328.546L214.684 312.45C215.965 312.044 216.942 311.004 217.279 309.689L230.774 257.069C231.116 255.735 230.752 254.304 229.81 253.281L193.38 213.709C192.331 212.569 190.742 212.124 189.288 212.563Z" stroke="#4E5B7A"/>
        <path d="M86.7831 378.58L36.296 393.819C34.9906 394.213 33.9903 395.263 33.6482 396.597L20.1531 449.217C19.8159 450.532 20.1646 451.942 21.0792 452.963L57.2896 493.392C58.3501 494.576 59.9871 495.034 61.4722 494.563L112.179 478.467C113.46 478.06 114.437 477.021 114.774 475.706L128.269 423.086C128.611 421.752 128.247 420.321 127.305 419.297L90.8752 379.725C89.8263 378.586 88.2367 378.141 86.7831 378.58Z" stroke="#4E5B7A"/>
        <path d="M220.117 89.7804L169.63 105.02C168.325 105.414 167.324 106.463 166.982 107.797L153.487 160.417C153.15 161.732 153.499 163.143 154.413 164.164L190.624 204.593C191.684 205.777 193.321 206.235 194.806 205.764L245.513 189.668C246.794 189.261 247.771 188.221 248.108 186.907L261.603 134.286C261.945 132.952 261.581 131.521 260.639 130.498L224.209 90.926C223.16 89.7867 221.571 89.3417 220.117 89.7804Z" stroke="#4E5B7A"/>
        <path d="M117.613 255.797L67.1261 271.037C65.8207 271.431 64.8204 272.48 64.4783 273.814L50.9832 326.434C50.646 327.749 50.9947 329.16 51.9093 330.181L88.1197 370.609C89.1802 371.793 90.8172 372.252 92.3023 371.78L143.009 355.684C144.29 355.278 145.267 354.238 145.604 352.923L159.099 300.303C159.441 298.969 159.077 297.538 158.135 296.515L121.705 256.943C120.656 255.803 119.067 255.358 117.613 255.797Z" stroke="#4E5B7A"/>
        <path d="M822.869 325.26L772.382 340.5C771.077 340.894 770.076 341.943 769.734 343.277L756.239 395.897C755.902 397.212 756.251 398.623 757.165 399.644L793.376 440.073C794.436 441.257 796.073 441.715 797.558 441.244L848.265 425.147C849.546 424.741 850.523 423.701 850.86 422.387L864.355 369.766C864.697 368.432 864.333 367.001 863.391 365.978L826.961 326.406C825.912 325.267 824.323 324.822 822.869 325.26Z" stroke="#4E5B7A"/>
        <path d="M863.921 401.427L813.434 416.667C812.128 417.061 811.128 418.11 810.786 419.444L797.291 472.064C796.954 473.379 797.302 474.79 798.217 475.811L834.427 516.24C835.488 517.424 837.125 517.882 838.61 517.411L889.317 501.314C890.597 500.908 891.575 499.868 891.912 498.554L905.407 445.933C905.749 444.599 905.385 443.168 904.443 442.145L868.013 402.573C866.964 401.434 865.374 400.989 863.921 401.427Z" stroke="#4E5B7A"/>
        <path d="M894.751 278.645L844.264 293.884C842.958 294.278 841.958 295.328 841.616 296.662L828.121 349.282C827.784 350.596 828.132 352.007 829.047 353.028L865.257 393.457C866.318 394.641 867.955 395.099 869.44 394.628L920.147 378.532C921.428 378.125 922.405 377.086 922.742 375.771L936.237 323.151C936.579 321.817 936.215 320.386 935.273 319.362L898.843 279.79C897.794 278.651 896.205 278.206 894.751 278.645Z" stroke="#4E5B7A"/>
        <path d="M792.248 444.661L741.761 459.901C740.455 460.295 739.455 461.344 739.113 462.678L725.618 515.298C725.281 516.613 725.629 518.024 726.544 519.045L762.754 559.474C763.815 560.658 765.452 561.116 766.937 560.644L817.644 544.548C818.925 544.142 819.902 543.102 820.239 541.787L833.734 489.167C834.076 487.833 833.712 486.402 832.77 485.379L796.34 445.807C795.291 444.668 793.702 444.223 792.248 444.661Z" stroke="#4E5B7A"/>
    </g>
</svg>
