<svg width="1911" height="608" viewBox="0 0 1911 608" fill="none" xmlns="http://www.w3.org/2000/svg">
<g opacity="0.2">
<path d="M-41.1014 67.7044L-123.018 91.3711C-124.364 91.76 -125.409 92.8251 -125.771 94.1787L-147.542 175.428C-147.9 176.763 -147.543 178.188 -146.599 179.196L-87.847 241.981C-86.8055 243.094 -85.222 243.518 -83.7635 243.075L-1.49052 218.078C-0.168423 217.677 0.85273 216.621 1.21036 215.286L22.9811 134.037C23.3438 132.683 22.9717 131.239 22.0003 130.229L-37.1082 68.7744C-38.1375 67.7042 -39.6749 67.2923 -41.1014 67.7044Z" stroke="#7B849A"/>
<path d="M906.481 422.03L824.564 445.697C823.218 446.085 822.174 447.151 821.811 448.504L800.04 529.754C799.683 531.088 800.039 532.513 800.983 533.522L859.736 596.306C860.777 597.419 862.361 597.843 863.819 597.4L946.092 572.404C947.414 572.002 948.435 570.946 948.793 569.612L970.564 488.362C970.926 487.009 970.554 485.564 969.583 484.554L910.474 423.1C909.445 422.03 907.908 421.618 906.481 422.03Z" stroke="#7B849A"/>
<path d="M971.017 536.638L889.101 560.305C887.754 560.694 886.71 561.759 886.347 563.112L864.576 644.362C864.219 645.697 864.575 647.121 865.519 648.13L924.272 710.915C925.313 712.028 926.897 712.452 928.355 712.009L1010.63 687.012C1011.95 686.61 1012.97 685.555 1013.33 684.22L1035.1 602.971C1035.46 601.617 1035.09 600.172 1034.12 599.162L975.01 537.708C973.981 536.638 972.444 536.226 971.017 536.638Z" stroke="#7B849A"/>
<path d="M1019.49 351.888L937.569 375.554C936.223 375.943 935.179 377.008 934.816 378.362L913.045 459.611C912.688 460.946 913.044 462.371 913.988 463.38L972.74 526.164C973.782 527.277 975.365 527.701 976.824 527.258L1059.1 502.261C1060.42 501.86 1061.44 500.804 1061.8 499.469L1083.57 418.22C1083.93 416.866 1083.56 415.422 1082.59 414.412L1023.48 352.957C1022.45 351.887 1020.91 351.475 1019.49 351.888Z" stroke="#7B849A"/>
<path d="M858.341 601.692L776.424 625.359C775.078 625.748 774.034 626.813 773.671 628.166L751.9 709.416C751.543 710.75 751.899 712.175 752.843 713.184L811.595 775.968C812.637 777.081 814.22 777.506 815.679 777.062L897.952 752.066C899.274 751.664 900.295 750.608 900.653 749.274L922.423 668.024C922.786 666.671 922.414 665.226 921.443 664.216L862.334 602.762C861.305 601.692 859.767 601.28 858.341 601.692Z" stroke="#7B849A"/>
<path d="M22.6584 185.21L-59.2583 208.877C-60.6045 209.266 -61.649 210.331 -62.0117 211.685L-83.7825 292.934C-84.1401 294.269 -83.7835 295.693 -82.8394 296.702L-24.0872 359.487C-23.0457 360.6 -21.4622 361.024 -20.0038 360.581L62.2692 335.584C63.5913 335.182 64.6125 334.127 64.9701 332.792L86.7409 251.543C87.1035 250.189 86.7315 248.744 85.7601 247.734L26.6515 186.28C25.6222 185.21 24.0848 184.798 22.6584 185.21Z" stroke="#7B849A"/>
<path d="M87.1945 299.819L5.27787 323.485C3.93163 323.874 2.88709 324.939 2.52441 326.293L-19.2463 407.542C-19.6039 408.877 -19.2474 410.302 -18.3033 411.311L40.4489 474.095C41.4904 475.208 43.0739 475.632 44.5324 475.189L126.805 450.192C128.127 449.791 129.149 448.735 129.506 447.4L151.277 366.151C151.64 364.797 151.268 363.353 150.296 362.343L91.1877 300.889C90.1584 299.818 88.621 299.407 87.1945 299.819Z" stroke="#7B849A"/>
<path d="M-73.95 549.623L-155.867 573.29C-157.213 573.679 -158.257 574.744 -158.62 576.097L-180.391 657.347C-180.748 658.682 -180.392 660.106 -179.448 661.115L-120.696 723.9C-119.654 725.013 -118.071 725.437 -116.612 724.994L-34.3392 699.997C-33.0171 699.595 -31.9959 698.54 -31.6383 697.205L-9.86755 615.956C-9.50487 614.602 -9.87693 613.157 -10.8483 612.147L-69.9569 550.693C-70.9862 549.623 -72.5236 549.211 -73.95 549.623Z" stroke="#7B849A"/>
<path d="M135.663 115.068L53.7466 138.735C52.4004 139.124 51.3558 140.189 50.9932 141.542L29.2224 222.792C28.8648 224.127 29.2214 225.551 30.1655 226.56L88.9176 289.345C89.9591 290.457 91.5427 290.882 93.0011 290.439L175.274 265.442C176.596 265.04 177.617 263.985 177.975 262.65L199.746 181.401C200.108 180.047 199.736 178.602 198.765 177.592L139.656 116.138C138.627 115.068 137.09 114.656 135.663 115.068Z" stroke="#7B849A"/>
<path d="M-25.4813 364.873L-107.398 388.539C-108.744 388.928 -109.789 389.993 -110.151 391.347L-131.922 472.596C-132.28 473.931 -131.923 475.356 -130.979 476.365L-72.2269 539.149C-71.1854 540.262 -69.6019 540.686 -68.1434 540.243L14.1296 515.247C15.4517 514.845 16.4728 513.789 16.8305 512.455L38.6012 431.205C38.9639 429.852 38.5918 428.407 37.6204 427.397L-21.4881 365.943C-22.5174 364.873 -24.0548 364.461 -25.4813 364.873Z" stroke="#7B849A"/>
<path d="M1083.25 469.394L1001.33 493.06C999.982 493.449 998.938 494.514 998.575 495.868L976.804 577.117C976.447 578.452 976.803 579.877 977.748 580.886L1036.5 643.67C1037.54 644.783 1039.12 645.207 1040.58 644.764L1122.86 619.768C1124.18 619.366 1125.2 618.31 1125.56 616.976L1147.33 535.726C1147.69 534.373 1147.32 532.928 1146.35 531.918L1087.24 470.464C1086.21 469.394 1084.67 468.982 1083.25 469.394Z" stroke="#7B849A"/>
<path d="M1147.78 584.002L1065.87 607.669C1064.52 608.058 1063.47 609.123 1063.11 610.476L1041.34 691.726C1040.98 693.061 1041.34 694.485 1042.28 695.494L1101.04 758.278C1102.08 759.391 1103.66 759.816 1105.12 759.373L1187.39 734.376C1188.71 733.974 1189.74 732.919 1190.09 731.584L1211.86 650.335C1212.23 648.981 1211.86 647.536 1210.88 646.526L1151.78 585.072C1150.75 584.002 1149.21 583.59 1147.78 584.002Z" stroke="#7B849A"/>
<path d="M1196.25 399.251L1114.33 422.918C1112.99 423.307 1111.94 424.372 1111.58 425.726L1089.81 506.975C1089.45 508.31 1089.81 509.735 1090.75 510.743L1149.5 573.528C1150.55 574.641 1152.13 575.065 1153.59 574.622L1235.86 549.625C1237.18 549.224 1238.2 548.168 1238.56 546.833L1260.33 465.584C1260.7 464.23 1260.32 462.786 1259.35 461.776L1200.24 400.321C1199.21 399.251 1197.68 398.839 1196.25 399.251Z" stroke="#7B849A"/>
<path d="M199.423 232.574L117.506 256.241C116.16 256.63 115.116 257.695 114.753 259.049L92.9822 340.298C92.6246 341.633 92.9811 343.057 93.9252 344.066L152.677 406.851C153.719 407.964 155.302 408.388 156.761 407.945L239.034 382.948C240.356 382.546 241.377 381.491 241.735 380.156L263.505 298.907C263.868 297.553 263.496 296.108 262.525 295.099L203.416 233.644C202.387 232.574 200.849 232.162 199.423 232.574Z" stroke="#7B849A"/>
<path d="M38.2775 482.379L-43.6391 506.045C-44.9854 506.434 -46.0299 507.499 -46.3926 508.853L-68.1633 590.102C-68.5209 591.437 -68.1644 592.862 -67.2203 593.871L-8.4681 656.655C-7.4266 657.768 -5.84307 658.192 -4.38462 657.749L77.8884 632.753C79.2105 632.351 80.2316 631.295 80.5893 629.961L102.36 548.711C102.723 547.358 102.351 545.913 101.379 544.903L42.2707 483.449C41.2414 482.379 39.704 481.967 38.2775 482.379Z" stroke="#7B849A"/>
<path d="M263.959 347.183L182.043 370.849C180.696 371.238 179.652 372.303 179.289 373.657L157.518 454.906C157.161 456.241 157.517 457.666 158.461 458.675L217.214 521.459C218.255 522.572 219.839 522.996 221.297 522.553L303.57 497.556C304.892 497.155 305.913 496.099 306.271 494.765L328.042 413.515C328.404 412.162 328.032 410.717 327.061 409.707L267.952 348.253C266.923 347.183 265.386 346.771 263.959 347.183Z" stroke="#7B849A"/>
<path d="M102.814 596.987L20.897 620.654C19.5508 621.043 18.5062 622.108 18.1435 623.461L-3.62718 704.711C-3.98481 706.046 -3.62825 707.47 -2.68413 708.479L56.068 771.263C57.1095 772.376 58.6931 772.801 60.1515 772.358L142.425 747.361C143.747 746.959 144.768 745.904 145.125 744.569L166.896 663.32C167.259 661.966 166.887 660.521 165.915 659.511L106.807 598.057C105.777 596.987 104.24 596.575 102.814 596.987Z" stroke="#7B849A"/>
<path d="M312.428 162.432L230.511 186.099C229.165 186.488 228.12 187.553 227.758 188.906L205.987 270.156C205.629 271.49 205.986 272.915 206.93 273.924L265.682 336.708C266.724 337.821 268.307 338.246 269.766 337.802L352.039 312.806C353.361 312.404 354.382 311.348 354.74 310.014L376.51 228.764C376.873 227.411 376.501 225.966 375.53 224.956L316.421 163.502C315.392 162.432 313.854 162.02 312.428 162.432Z" stroke="#7B849A"/>
<path d="M151.282 412.237L69.3658 435.903C68.0195 436.292 66.975 437.357 66.6123 438.711L44.8416 519.96C44.4839 521.295 44.8405 522.72 45.7846 523.729L104.537 586.513C105.578 587.626 107.162 588.05 108.62 587.607L190.893 562.61C192.215 562.209 193.237 561.153 193.594 559.818L215.365 478.569C215.728 477.215 215.355 475.771 214.384 474.761L155.276 413.306C154.246 412.236 152.709 411.824 151.282 412.237Z" stroke="#7B849A"/>
<path d="M1260.01 516.758L1178.09 540.424C1176.75 540.813 1175.7 541.878 1175.34 543.232L1153.57 624.481C1153.21 625.816 1153.57 627.241 1154.51 628.25L1213.26 691.034C1214.31 692.147 1215.89 692.571 1217.35 692.128L1299.62 667.131C1300.94 666.73 1301.96 665.674 1302.32 664.339L1324.09 583.09C1324.46 581.736 1324.08 580.292 1323.11 579.282L1264 517.828C1262.97 516.757 1261.44 516.346 1260.01 516.758Z" stroke="#7B849A"/>
<path d="M1373.01 446.615L1291.1 470.282C1289.75 470.671 1288.71 471.736 1288.34 473.09L1266.57 554.339C1266.22 555.674 1266.57 557.098 1267.52 558.107L1326.27 620.892C1327.31 622.005 1328.89 622.429 1330.35 621.986L1412.63 596.989C1413.95 596.587 1414.97 595.532 1415.33 594.197L1437.1 512.948C1437.46 511.594 1437.09 510.149 1436.12 509.14L1377.01 447.685C1375.98 446.615 1374.44 446.203 1373.01 446.615Z" stroke="#7B849A"/>
<path d="M376.188 279.938L294.271 303.605C292.925 303.994 291.88 305.059 291.518 306.412L269.747 387.662C269.389 388.996 269.746 390.421 270.69 391.43L329.442 454.214C330.484 455.327 332.067 455.752 333.526 455.309L415.799 430.312C417.121 429.91 418.142 428.855 418.499 427.52L440.27 346.27C440.633 344.917 440.261 343.472 439.289 342.462L380.181 281.008C379.152 279.938 377.614 279.526 376.188 279.938Z" stroke="#7B849A"/>
<path d="M215.043 529.743L133.127 553.409C131.78 553.798 130.736 554.863 130.373 556.217L108.602 637.466C108.245 638.801 108.601 640.226 109.545 641.235L168.298 704.019C169.339 705.132 170.923 705.556 172.381 705.113L254.654 680.116C255.976 679.715 256.997 678.659 257.355 677.324L279.126 596.075C279.488 594.721 279.116 593.277 278.145 592.267L219.036 530.813C218.007 529.742 216.47 529.331 215.043 529.743Z" stroke="#7B849A"/>
<path d="M440.724 394.547L358.807 418.213C357.461 418.602 356.416 419.667 356.054 421.021L334.283 502.27C333.925 503.605 334.282 505.03 335.226 506.039L393.978 568.823C395.02 569.936 396.603 570.36 398.062 569.917L480.335 544.92C481.657 544.519 482.678 543.463 483.036 542.128L504.806 460.879C505.169 459.525 504.797 458.081 503.825 457.071L444.717 395.617C443.688 394.546 442.15 394.134 440.724 394.547Z" stroke="#7B849A"/>
<path d="M489.193 209.796L407.276 233.463C405.93 233.852 404.885 234.917 404.522 236.27L382.752 317.52C382.394 318.854 382.751 320.279 383.695 321.288L442.447 384.072C443.488 385.185 445.072 385.61 446.53 385.166L528.803 360.17C530.126 359.768 531.147 358.712 531.504 357.378L553.275 276.128C553.638 274.775 553.266 273.33 552.294 272.32L493.186 210.866C492.156 209.796 490.619 209.384 489.193 209.796Z" stroke="#7B849A"/>
<path d="M328.047 459.6L246.13 483.267C244.784 483.656 243.74 484.721 243.377 486.075L221.606 567.324C221.249 568.659 221.605 570.084 222.549 571.092L281.301 633.877C282.343 634.99 283.926 635.414 285.385 634.971L367.658 609.974C368.98 609.573 370.001 608.517 370.359 607.182L392.13 525.933C392.492 524.579 392.12 523.135 391.149 522.125L332.04 460.67C331.011 459.6 329.474 459.188 328.047 459.6Z" stroke="#7B849A"/>
<path d="M1436.77 564.122L1354.86 587.788C1353.51 588.177 1352.47 589.242 1352.1 590.596L1330.33 671.845C1329.98 673.18 1330.33 674.605 1331.28 675.614L1390.03 738.398C1391.07 739.511 1392.65 739.935 1394.11 739.492L1476.39 714.495C1477.71 714.094 1478.73 713.038 1479.09 711.703L1500.86 630.454C1501.22 629.1 1500.85 627.656 1499.88 626.646L1440.77 565.191C1439.74 564.121 1438.2 563.709 1436.77 564.122Z" stroke="#7B849A"/>
<path d="M1549.78 493.979L1467.86 517.646C1466.52 518.035 1465.47 519.1 1465.11 520.453L1443.34 601.703C1442.98 603.038 1443.34 604.462 1444.28 605.471L1503.03 668.256C1504.07 669.369 1505.66 669.793 1507.12 669.35L1589.39 644.353C1590.71 643.951 1591.73 642.896 1592.09 641.561L1613.86 560.312C1614.22 558.958 1613.85 557.513 1612.88 556.503L1553.77 495.049C1552.74 493.979 1551.21 493.567 1549.78 493.979Z" stroke="#7B849A"/>
<path d="M552.952 327.302L471.036 350.969C469.689 351.358 468.645 352.423 468.282 353.776L446.511 435.026C446.154 436.36 446.51 437.785 447.455 438.794L506.207 501.578C507.248 502.691 508.832 503.116 510.29 502.673L592.563 477.676C593.885 477.274 594.906 476.219 595.264 474.884L617.035 393.634C617.397 392.281 617.025 390.836 616.054 389.826L556.945 328.372C555.916 327.302 554.379 326.89 552.952 327.302Z" stroke="#7B849A"/>
<path d="M391.808 577.107L309.891 600.773C308.545 601.162 307.5 602.227 307.138 603.581L285.367 684.83C285.009 686.165 285.366 687.59 286.31 688.599L345.062 751.383C346.104 752.496 347.687 752.92 349.146 752.477L431.419 727.48C432.741 727.079 433.762 726.023 434.12 724.688L455.89 643.439C456.253 642.085 455.881 640.641 454.909 639.631L395.801 578.176C394.772 577.106 393.234 576.694 391.808 577.107Z" stroke="#7B849A"/>
<path d="M617.488 441.91L535.572 465.577C534.226 465.966 533.181 467.031 532.818 468.385L511.048 549.634C510.69 550.969 511.047 552.394 511.991 553.403L570.743 616.187C571.784 617.3 573.368 617.724 574.826 617.281L657.099 592.284C658.421 591.883 659.443 590.827 659.8 589.492L681.571 508.243C681.934 506.889 681.562 505.445 680.59 504.435L621.482 442.98C620.452 441.91 618.915 441.498 617.488 441.91Z" stroke="#7B849A"/>
<path d="M665.956 257.16L584.04 280.826C582.693 281.215 581.649 282.28 581.286 283.634L559.515 364.883C559.158 366.218 559.514 367.643 560.458 368.652L619.211 431.436C620.252 432.549 621.836 432.973 623.294 432.53L705.567 407.534C706.889 407.132 707.91 406.076 708.268 404.742L730.039 323.492C730.401 322.139 730.029 320.694 729.058 319.684L669.949 258.23C668.92 257.16 667.383 256.748 665.956 257.16Z" stroke="#7B849A"/>
<path d="M504.812 506.964L422.895 530.631C421.549 531.02 420.504 532.085 420.142 533.439L398.371 614.688C398.013 616.023 398.37 617.447 399.314 618.456L458.066 681.241C459.108 682.354 460.691 682.778 462.15 682.335L544.423 657.338C545.745 656.936 546.766 655.881 547.123 654.546L568.894 573.297C569.257 571.943 568.885 570.498 567.913 569.489L508.805 508.034C507.776 506.964 506.238 506.552 504.812 506.964Z" stroke="#7B849A"/>
<path d="M1613.54 611.485L1531.62 635.152C1530.28 635.541 1529.23 636.606 1528.87 637.96L1507.1 719.209C1506.74 720.544 1507.1 721.968 1508.04 722.977L1566.79 785.762C1567.83 786.875 1569.42 787.299 1570.88 786.856L1653.15 761.859C1654.47 761.457 1655.49 760.402 1655.85 759.067L1677.62 677.818C1677.98 676.464 1677.61 675.019 1676.64 674.01L1617.53 612.555C1616.5 611.485 1614.97 611.073 1613.54 611.485Z" stroke="#7B849A"/>
<path d="M1726.54 541.343L1644.63 565.01C1643.28 565.399 1642.24 566.464 1641.87 567.817L1620.1 649.067C1619.75 650.401 1620.1 651.826 1621.05 652.835L1679.8 715.619C1680.84 716.732 1682.42 717.157 1683.88 716.714L1766.15 691.717C1767.48 691.315 1768.5 690.26 1768.86 688.925L1790.63 607.675C1790.99 606.322 1790.62 604.877 1789.65 603.867L1730.54 542.413C1729.51 541.343 1727.97 540.931 1726.54 541.343Z" stroke="#7B849A"/>
<path d="M729.716 374.666L647.799 398.333C646.453 398.722 645.409 399.787 645.046 401.14L623.275 482.39C622.918 483.724 623.274 485.149 624.218 486.158L682.97 548.942C684.012 550.055 685.595 550.48 687.054 550.037L769.327 525.04C770.649 524.638 771.67 523.583 772.028 522.248L793.798 440.998C794.161 439.645 793.789 438.2 792.818 437.19L733.709 375.736C732.68 374.666 731.142 374.254 729.716 374.666Z" stroke="#7B849A"/>
<path d="M568.571 624.47L486.655 648.137C485.309 648.526 484.264 649.591 483.901 650.945L462.131 732.194C461.773 733.529 462.13 734.954 463.074 735.962L521.826 798.747C522.867 799.86 524.451 800.284 525.909 799.841L608.182 774.844C609.504 774.443 610.526 773.387 610.883 772.052L632.654 690.803C633.017 689.449 632.645 688.005 631.673 686.995L572.565 625.54C571.535 624.47 569.998 624.058 568.571 624.47Z" stroke="#7B849A"/>
<path d="M794.253 489.274L712.336 512.941C710.99 513.33 709.946 514.395 709.583 515.748L687.812 596.998C687.455 598.333 687.811 599.757 688.755 600.766L747.507 663.551C748.549 664.664 750.133 665.088 751.591 664.645L833.864 639.648C835.186 639.246 836.207 638.191 836.565 636.856L858.336 555.607C858.698 554.253 858.326 552.808 857.355 551.798L798.246 490.344C797.217 489.274 795.68 488.862 794.253 489.274Z" stroke="#7B849A"/>
<path d="M842.721 304.524L760.805 328.19C759.458 328.579 758.414 329.644 758.051 330.998L736.281 412.247C735.923 413.582 736.279 415.007 737.224 416.016L795.976 478.8C797.017 479.913 798.601 480.337 800.059 479.894L882.332 454.898C883.654 454.496 884.675 453.44 885.033 452.106L906.804 370.856C907.167 369.503 906.794 368.058 905.823 367.048L846.715 305.594C845.685 304.524 844.148 304.112 842.721 304.524Z" stroke="#7B849A"/>
<path d="M681.576 554.328L599.66 577.995C598.313 578.384 597.269 579.449 596.906 580.802L575.136 662.052C574.778 663.387 575.134 664.811 576.079 665.82L634.831 728.605C635.872 729.718 637.456 730.142 638.914 729.699L721.187 704.702C722.509 704.3 723.53 703.245 723.888 701.91L745.659 620.661C746.022 619.307 745.649 617.862 744.678 616.852L685.569 555.398C684.54 554.328 683.003 553.916 681.576 554.328Z" stroke="#7B849A"/>
<path d="M1903.31 588.707L1821.39 612.374C1820.04 612.763 1819 613.828 1818.64 615.181L1796.87 696.431C1796.51 697.765 1796.87 699.19 1797.81 700.199L1856.56 762.983C1857.6 764.096 1859.19 764.521 1860.65 764.077L1942.92 739.081C1944.24 738.679 1945.26 737.623 1945.62 736.289L1967.39 655.039C1967.75 653.686 1967.38 652.241 1966.41 651.231L1907.3 589.777C1906.27 588.707 1904.73 588.295 1903.31 588.707Z" stroke="#7B849A"/>
</g>
</svg>
