<?xml version="1.0" encoding="utf-8"?>
<!-- Generator: Adobe Illustrator 26.1.0, SVG Export Plug-In . SVG Version: 6.00 Build 0)  -->
<svg version="1.1" id="Шар_1" xmlns="http://www.w3.org/2000/svg" xmlns:xlink="http://www.w3.org/1999/xlink" x="0px" y="0px"
	 viewBox="0 0 1920 325.3" style="enable-background:new 0 0 1920 325.3;" xml:space="preserve">
<style type="text/css">
	.st0{clip-path:url(#SVGID_00000155863759397718138340000007036845726020481187_);fill:none;stroke:#E0E2F4;}
	
		.st1{clip-path:url(#SVGID_00000155863759397718138340000007036845726020481187_);fill:url(#SVGID_00000070100203841294009930000013693313784280939420_);}
	.st2{clip-path:url(#SVGID_00000155863759397718138340000007036845726020481187_);fill:#D6E7F0;}
	.st3{clip-path:url(#SVGID_00000155863759397718138340000007036845726020481187_);fill:#F0E3D6;}
	.st4{clip-path:url(#SVGID_00000155863759397718138340000007036845726020481187_);fill:#F0D6E9;}
</style>
<g>
	<defs>
		<rect id="SVGID_1_" width="1920" height="325.3"/>
	</defs>
	<clipPath id="SVGID_00000155855281756033269700000013441425341341584549_">
		<use xlink:href="#SVGID_1_"  style="overflow:visible;"/>
	</clipPath>
	<path style="clip-path:url(#SVGID_00000155855281756033269700000013441425341341584549_);fill:none;stroke:#E0E2F4;" d="
		M1265.6-649.9c129.3-43,271.8-15.6,389.8,52.5c101.2,58.4,130.5,178.3,187,280.6c65.1,117.9,191.1,221.3,162.8,353.1
		c-29.9,139.2-161,247.2-299.1,282.1c-124.1,31.4-229.3-75.2-349.8-118.1c-124.6-44.3-279.3-26.7-357.5-133.2
		c-88.5-120.4-106.7-287.7-54.5-427.8C996.4-501.2,1123.4-602.7,1265.6-649.9z"/>
	<path style="clip-path:url(#SVGID_00000155855281756033269700000013441425341341584549_);fill:none;stroke:#E0E2F4;" d="
		M346.7-649.9c-129.3-43-271.8-15.6-389.8,52.5c-101.2,58.4-130.5,178.3-187,280.6C-295.2-199-421.2-95.6-392.9,36.1
		c29.9,139.2,161,247.2,299.1,282.1C30.2,349.6,135.4,243,256,200.2c124.6-44.3,279.3-26.7,357.5-133.2
		C702-53.5,720.2-220.8,668-360.8C615.8-501.2,488.8-602.7,346.7-649.9z"/>
	<path style="clip-path:url(#SVGID_00000155855281756033269700000013441425341341584549_);fill:none;stroke:#E0E2F4;" d="
		M746.9-564.5c-99.8-92.8-240.8-127.1-376.4-114.1C254.2-667.5,177.7-570.6,83.9-501c-108.2,80.3-265.7,122-294.7,253.6
		c-30.6,139.1,43.8,291.7,155,380.8c99.9,80,239.8,26.7,367.3,37.8c131.7,11.5,265.2,91.7,380.6,27.2
		C822.5,125.6,908.5-19,919.2-168.1C929.9-317.5,856.5-462.5,746.9-564.5z"/>
	<path style="clip-path:url(#SVGID_00000155855281756033269700000013441425341341584549_);fill:none;stroke:#E0E2F4;" d="
		M1662.9-707.5c-101.2,58.4-130.5,178.3-187,280.6c-65.1,117.9-191.1,221.3-162.8,353.1c29.9,139.2,161,247.2,299.1,282.1
		c124.1,31.4,229.3-75.2,349.8-118.1c124.6-44.3,279.3-26.7,357.5-133.2c88.5-120.4,106.7-287.7,54.5-427.8"/>
	
		<linearGradient id="SVGID_00000170974925312590862490000016991815908713491621_" gradientUnits="userSpaceOnUse" x1="1796.267" y1="-384.4997" x2="1881.8269" y2="-664.5137" gradientTransform="matrix(0.7071 0.7071 0.7071 -0.7071 871.4222 -1509.7993)">
		<stop  offset="0" style="stop-color:#DAF0D6"/>
		<stop  offset="1" style="stop-color:#DAF0D6;stop-opacity:0"/>
	</linearGradient>
	
		<path style="clip-path:url(#SVGID_00000155855281756033269700000013441425341341584549_);fill:url(#SVGID_00000170974925312590862490000016991815908713491621_);" d="
		M1803.5,134l27.6,27.6c3.1,3.1,3.1,8.2,0,11.3l-27.6,27.6c-3.1,3.1-8.2,3.1-11.3,0l-27.6-27.6c-3.1-3.1-3.1-8.2,0-11.3l27.6-27.6
		C1795.4,130.9,1800.4,130.9,1803.5,134z"/>
	<path style="clip-path:url(#SVGID_00000155855281756033269700000013441425341341584549_);fill:#D6E7F0;" d="M436.7,144l12.7,12.7
		c3.1,3.1,3.1,8.2,0,11.3l-12.7,12.7c-3.1,3.1-8.2,3.1-11.3,0L412.7,168c-3.1-3.1-3.1-8.2,0-11.3l12.7-12.7
		C428.5,140.9,433.6,140.9,436.7,144z"/>
	<path style="clip-path:url(#SVGID_00000155855281756033269700000013441425341341584549_);fill:#F0E3D6;" d="M1390.8,193.1
		l17.3,17.3c1.6,1.6,1.6,4.1,0,5.7l-17.3,17.3c-1.6,1.6-4.1,1.6-5.7,0l-17.3-17.3c-1.6-1.6-1.6-4.1,0-5.7l17.3-17.3
		C1386.7,191.5,1389.2,191.5,1390.8,193.1z"/>
	<path style="clip-path:url(#SVGID_00000155855281756033269700000013441425341341584549_);fill:#F0D6E9;" d="M1740.4,296.5l10,10
		c1.2,1.2,1.2,3.1,0,4.2l-10,10c-1.2,1.2-3.1,1.2-4.2,0l-10-10c-1.2-1.2-1.2-3.1,0-4.2l10-10
		C1737.3,295.3,1739.2,295.3,1740.4,296.5z"/>
	<path style="clip-path:url(#SVGID_00000155855281756033269700000013441425341341584549_);fill:#F0E3D6;" d="M600.4,126.5l10,10
		c1.2,1.2,1.2,3.1,0,4.2l-10,10c-1.2,1.2-3.1,1.2-4.2,0l-10-10c-1.2-1.2-1.2-3.1,0-4.2l10-10C597.3,125.3,599.2,125.3,600.4,126.5z"
		/>
	<path style="clip-path:url(#SVGID_00000155855281756033269700000013441425341341584549_);fill:#F0D6E9;" d="M169.4,224.5l10,10
		c1.2,1.2,1.2,3.1,0,4.2l-10,10c-1.2,1.2-3.1,1.2-4.2,0l-10-10c-1.2-1.2-1.2-3.1,0-4.2l10-10C166.3,223.3,168.2,223.3,169.4,224.5z"
		/>
</g>
</svg>
