<svg width="820" height="599" viewBox="0 0 820 599" fill="none" xmlns="http://www.w3.org/2000/svg">
    <path fill-rule="evenodd" clip-rule="evenodd" d="M579.759 26.5737C649.977 3.20969 727.31 18.0809 791.369 55.0692C846.314 86.7944 862.243 151.855 892.903 207.385C928.257 271.418 996.644 327.531 981.297 399.065C965.08 474.659 893.914 533.252 818.926 552.205C751.567 569.231 694.458 511.359 629.008 488.108C561.368 464.079 477.378 473.617 434.898 415.782C386.871 350.396 376.986 259.587 405.294 183.531C433.652 107.338 502.593 52.2496 579.759 26.5737Z" stroke="#E0E2F4"/>
    <path fill-rule="evenodd" clip-rule="evenodd" d="M58.5467 69.5732C-11.671 46.2092 -89.0044 61.0805 -153.064 98.0688C-208.008 129.794 -223.938 194.855 -254.597 250.385C-289.951 314.417 -358.338 370.531 -342.992 442.064C-326.774 517.659 -255.608 576.251 -180.621 595.205C-113.261 612.23 -56.1526 554.358 9.2975 531.107C76.9379 507.079 160.928 516.616 203.408 458.781C251.434 393.395 261.319 302.586 233.012 226.53C204.653 150.338 135.712 95.2491 58.5467 69.5732Z" stroke="#E0E2F4"/>
    <path fill-rule="evenodd" clip-rule="evenodd" d="M278.627 92.9756C224.448 42.5679 147.92 23.9902 74.2859 31.0443C11.1294 37.0947 -30.3742 89.6695 -81.321 127.459C-140.068 171.034 -225.58 193.69 -241.317 265.138C-257.948 340.644 -217.532 423.493 -157.181 471.869C-102.97 515.324 -26.989 486.385 42.2068 492.406C113.718 498.628 186.168 542.175 248.825 507.197C319.663 467.652 366.358 389.143 372.182 308.199C378.016 227.11 338.168 148.371 278.627 92.9756Z" stroke="#E0E2F4"/>
    <path d="M774.937 1.14725C719.993 32.8724 704.063 97.9331 673.404 153.463C638.05 217.496 569.663 273.61 585.009 345.143C601.227 420.737 672.392 479.33 747.38 498.283C814.739 515.309 871.848 457.437 937.298 434.186C1004.94 410.157 1088.93 419.695 1131.41 361.86C1179.44 296.474 1189.32 205.665 1161.01 129.609" stroke="#E0E2F4"/>
    <rect x="115.06" y="493" width="18.4692" height="18.4692" rx="2" transform="rotate(45 115.06 493)" fill="#D6E7F0"/>
    <rect x="625.459" y="478" width="17.6176" height="17.6176" rx="4" transform="rotate(45 625.459 478)" fill="#F0E3D6"/>
    <rect x="788.737" y="551" width="10.9393" height="10.9393" rx="3" transform="rotate(45 788.737 551)" fill="#F0D6E9"/>
    <rect x="232.735" y="506" width="10.9393" height="10.9393" rx="3" transform="rotate(45 232.735 506)" fill="#F0E3D6"/>
</svg>
