<svg width="1920" height="1034" viewBox="0 0 1920 1034" fill="none" xmlns="http://www.w3.org/2000/svg">
    <path fill-rule="evenodd" clip-rule="evenodd" d="M1265.55 58.7198C1394.88 15.6856 1537.32 43.077 1655.32 111.206C1756.52 169.64 1785.86 289.476 1842.33 391.756C1907.45 509.698 2033.41 613.054 2005.14 744.811C1975.27 884.049 1844.19 991.97 1706.07 1026.88C1582 1058.24 1476.81 951.645 1356.26 908.82C1231.68 864.561 1076.97 882.128 998.731 775.602C910.271 655.168 892.063 487.906 944.203 347.819C996.437 207.48 1123.42 106.012 1265.55 58.7198Z" stroke="#E0E2F4"/>
    <path fill-rule="evenodd" clip-rule="evenodd" d="M346.702 58.7198C217.368 15.6856 74.9273 43.077 -43.0636 111.206C-144.265 169.64 -173.607 289.476 -230.078 391.756C-295.196 509.698 -421.159 613.054 -392.892 744.811C-363.02 884.049 -231.941 991.97 -93.8209 1026.88C30.2483 1058.24 135.437 951.645 255.989 908.82C380.576 864.561 535.277 882.128 613.521 775.602C701.981 655.168 720.189 487.906 668.049 347.819C615.815 207.48 488.833 106.012 346.702 58.7198Z" stroke="#E0E2F4"/>
    <path fill-rule="evenodd" clip-rule="evenodd" d="M746.877 144.13C647.083 51.2845 506.126 17.0662 370.5 30.0592C254.172 41.2033 177.727 138.041 83.8877 207.645C-24.3191 287.906 -181.823 329.637 -210.809 461.237C-241.442 600.31 -166.999 752.911 -55.8396 842.014C44.0119 922.054 183.962 868.751 311.413 879.841C443.13 891.302 576.575 971.511 691.983 907.085C822.461 834.247 908.467 689.641 919.194 540.551C929.94 391.192 856.545 246.163 746.877 144.13Z" stroke="#E0E2F4"/>
    <path d="M1662.94 1.20581C1561.73 59.6403 1532.39 179.476 1475.92 281.757C1410.8 399.698 1284.84 503.054 1313.11 634.811C1342.98 774.049 1474.06 881.97 1612.18 916.881C1736.25 948.24 1841.44 841.645 1961.99 798.82C2086.58 754.561 2241.28 772.128 2319.52 665.602C2407.98 545.168 2426.19 377.907 2374.05 237.819" stroke="#E0E2F4"/>
    <rect x="1797.89" y="837" width="55" height="55" rx="8" transform="rotate(45 1797.89 837)" fill="url(#paint0_linear_0_1)"/>
    <rect x="431.055" y="847" width="34.0185" height="34.0185" rx="8" transform="rotate(45 431.055 847)" fill="#D6E7F0"/>
    <rect x="1387.94" y="898.946" width="32.4499" height="32.4499" rx="4" transform="rotate(45 1387.94 898.946)" fill="#F0E3D6"/>
    <rect x="1738.25" y="1003" width="20.1491" height="20.1491" rx="3" transform="rotate(45 1738.25 1003)" fill="#F0D6E9"/>
    <rect x="598.248" y="833" width="20.1491" height="20.1491" rx="3" transform="rotate(45 598.248 833)" fill="#F0E3D6"/>
    <rect x="167.248" y="931" width="20.1491" height="20.1491" rx="3" transform="rotate(45 167.248 931)" fill="#F0D6E9"/>
    <defs>
        <linearGradient id="paint0_linear_0_1" x1="1778.88" y1="718.836" x2="1864.44" y2="998.85" gradientUnits="userSpaceOnUse">
            <stop stop-color="#DAF0D6"/>
            <stop offset="1" stop-color="#DAF0D6" stop-opacity="0"/>
        </linearGradient>
    </defs>
</svg>
